<svg xmlns="http://www.w3.org/2000/svg" xmlns:xlink="http://www.w3.org/1999/xlink" contentStyleType="text/css" data-diagram-type="DESCRIPTION" height="1633px" preserveAspectRatio="none" style="width:1772px;height:1633px;background:#FFFFFF;" version="1.1" viewBox="0 0 1772 1633" width="1772px" zoomAndPan="magnify"><?plantuml 1.2026.6?><defs/><g><g class="title" data-source-line="3"><text fill="#000000" font-family="sans-serif" font-size="14" font-weight="700" lengthAdjust="spacing" textLength="359.8438" x="702.8127" y="24.5332">TokenOptimizer &#8212; Architecture (layered components)</text></g><!--cluster L0--><g class="cluster" data-qualified-name="L0" data-source-line="25" id="ent0003"><path d="M30.5,169.1094 L190.9756,169.1094 A3.75,3.75 0 0 1 193.4756,171.6094 L200.4756,192.7188 L1057.5,192.7188 A2.5,2.5 0 0 1 1060,195.2188 L1060,308.6094 A2.5,2.5 0 0 1 1057.5,311.1094 L30.5,311.1094 A2.5,2.5 0 0 1 28,308.6094 L28,171.6094 A2.5,2.5 0 0 1 30.5,169.1094" fill="#F4F7FB" style="stroke:#35506E;stroke-width:1.5;"/><line style="stroke:#35506E;stroke-width:1.5;" x1="28" x2="200.4756" y1="192.7188" y2="192.7188"/><text fill="#000000" font-family="sans-serif" font-size="14" font-weight="700" lengthAdjust="spacing" textLength="159.4756" x="32" y="185.6426">Interfaces (entry points)</text></g><!--cluster LC--><g class="cluster" data-qualified-name="LC" data-source-line="31" id="ent0007"><path d="M1086.5,186.6094 L1179.2588,186.6094 A3.75,3.75 0 0 1 1181.7588,189.1094 L1188.7588,210.2188 L1421.5,210.2188 A2.5,2.5 0 0 1 1424,212.7188 L1424,444.6094 A2.5,2.5 0 0 1 1421.5,447.1094 L1086.5,447.1094 A2.5,2.5 0 0 1 1084,444.6094 L1084,189.1094 A2.5,2.5 0 0 1 1086.5,186.6094" fill="#F4F7FB" style="stroke:#35506E;stroke-width:1.5;"/><line style="stroke:#35506E;stroke-width:1.5;" x1="1084" x2="1188.7588" y1="210.2188" y2="210.2188"/><text fill="#000000" font-family="sans-serif" font-size="14" font-weight="700" lengthAdjust="spacing" textLength="91.7588" x="1088" y="203.1426">Configuration</text></g><!--cluster L1--><g class="cluster" data-qualified-name="L1" data-source-line="36" id="ent0010"><path d="M224.5,505.1094 L475.2031,505.1094 A3.75,3.75 0 0 1 477.7031,507.6094 L484.7031,528.7188 L1102.5,528.7188 A2.5,2.5 0 0 1 1105,531.2188 L1105,743.6094 A2.5,2.5 0 0 1 1102.5,746.1094 L224.5,746.1094 A2.5,2.5 0 0 1 222,743.6094 L222,507.6094 A2.5,2.5 0 0 1 224.5,505.1094" fill="#F4F7FB" style="stroke:#35506E;stroke-width:1.5;"/><line style="stroke:#35506E;stroke-width:1.5;" x1="222" x2="484.7031" y1="528.7188" y2="528.7188"/><text fill="#000000" font-family="sans-serif" font-size="14" font-weight="700" lengthAdjust="spacing" textLength="249.7031" x="226" y="521.6426">Sources / Integrations (integrations/*)</text></g><!--cluster L2--><g class="cluster" data-qualified-name="L2" data-source-line="45" id="ent0017"><path d="M427.5,787.1094 L636.9824,787.1094 A3.75,3.75 0 0 1 639.4824,789.6094 L646.4824,810.7188 L940.5,810.7188 A2.5,2.5 0 0 1 943,813.2188 L943,1208.6094 A2.5,2.5 0 0 1 940.5,1211.1094 L427.5,1211.1094 A2.5,2.5 0 0 1 425,1208.6094 L425,789.6094 A2.5,2.5 0 0 1 427.5,787.1094" fill="#F4F7FB" style="stroke:#35506E;stroke-width:1.5;"/><line style="stroke:#35506E;stroke-width:1.5;" x1="425" x2="646.4824" y1="810.7188" y2="810.7188"/><text fill="#000000" font-family="sans-serif" font-size="14" font-weight="700" lengthAdjust="spacing" textLength="208.4824" x="429" y="803.6426">Optimize strategies (optimize/*)</text></g><!--cluster L3--><g class="cluster" data-qualified-name="L3" data-source-line="53" id="ent0023"><path d="M642.5,1244.1094 L792.0723,1244.1094 A3.75,3.75 0 0 1 794.5723,1246.6094 L801.5723,1267.7188 L1446.5,1267.7188 A2.5,2.5 0 0 1 1449,1270.2188 L1449,1496.6094 A2.5,2.5 0 0 1 1446.5,1499.1094 L642.5,1499.1094 A2.5,2.5 0 0 1 640,1496.6094 L640,1246.6094 A2.5,2.5 0 0 1 642.5,1244.1094" fill="#F4F7FB" style="stroke:#35506E;stroke-width:1.5;"/><line style="stroke:#35506E;stroke-width:1.5;" x1="640" x2="801.5723" y1="1267.7188" y2="1267.7188"/><text fill="#000000" font-family="sans-serif" font-size="14" font-weight="700" lengthAdjust="spacing" textLength="148.5723" x="644" y="1260.6426">Core / LLM (core/llm/*)</text></g><!--cluster L4--><g class="cluster" data-qualified-name="L4" data-source-line="63" id="ent0030"><path d="M8.5,1383.1094 L169.748,1383.1094 A3.75,3.75 0 0 1 172.248,1385.6094 L179.248,1406.7188 L613.5,1406.7188 A2.5,2.5 0 0 1 616,1409.2188 L616,1615.6094 A2.5,2.5 0 0 1 613.5,1618.1094 L8.5,1618.1094 A2.5,2.5 0 0 1 6,1615.6094 L6,1385.6094 A2.5,2.5 0 0 1 8.5,1383.1094" fill="#F4F7FB" style="stroke:#35506E;stroke-width:1.5;"/><line style="stroke:#35506E;stroke-width:1.5;" x1="6" x2="179.248" y1="1406.7188" y2="1406.7188"/><text fill="#000000" font-family="sans-serif" font-size="14" font-weight="700" lengthAdjust="spacing" textLength="160.248" x="10" y="1399.6426">Outputs &amp; Observability</text></g><!--entity ui--><g class="entity" data-qualified-name="L0.ui" data-source-line="26" id="ent0004"><rect fill="#FDFDFD" height="55.2188" rx="4" ry="4" style="stroke:#6B6B6B;stroke-width:0.5;" width="367.2861" x="44.5" y="222.6094"/><text fill="#000000" font-family="sans-serif" font-size="14" lengthAdjust="spacing" textLength="139.2822" x="158.502" y="247.1426">Desktop UI (ui/app.py)</text><text fill="#000000" font-family="sans-serif" font-size="14" lengthAdjust="spacing" textLength="347.2861" x="54.5" y="264.752">Tabs: Token Optimizer | Feature-Dev Skills | Dashboard</text></g><!--entity cli--><g class="entity" data-qualified-name="L0.cli" data-source-line="27" id="ent0005"><rect fill="#FDFDFD" height="90.4375" rx="4" ry="4" style="stroke:#6B6B6B;stroke-width:0.5;" width="380.2744" x="424" y="205.1094"/><text fill="#000000" font-family="sans-serif" font-size="14" lengthAdjust="spacing" textLength="128.3857" x="549.9443" y="229.6426">CLI  tokenopt (cli.py)</text><text fill="#000000" font-family="sans-serif" font-size="14" lengthAdjust="spacing" textLength="245.8613" x="491.2065" y="247.252">optimize-doc &#183; triage-jira &#183; triage-jenkins</text><text fill="#000000" font-family="sans-serif" font-size="14" lengthAdjust="spacing" textLength="259.1025" x="484.5859" y="264.8613">review-github-pr &#183; triage-github-prs &#183; route</text><text fill="#000000" font-family="sans-serif" font-size="14" lengthAdjust="spacing" textLength="360.2744" x="434" y="282.4707">compress-prd &#183; anchor-plan &#183; ab-suite &#183; dashboard &#183; demo</text></g><!--entity lib--><g class="entity" data-qualified-name="L0.lib" data-source-line="28" id="ent0006"><rect fill="#FDFDFD" height="55.2188" rx="4" ry="4" style="stroke:#6B6B6B;stroke-width:0.5;" width="227.7305" x="816" y="222.6094"/><text fill="#000000" font-family="sans-serif" font-size="14" lengthAdjust="spacing" textLength="42.793" x="908.4688" y="247.1426">Library</text><text fill="#000000" font-family="sans-serif" font-size="14" lengthAdjust="spacing" textLength="207.7305" x="826" y="264.752">OptimizedRunner / TextOptimizer</text></g><!--entity config--><g class="entity" data-qualified-name="LC.config" data-source-line="32" id="ent0008"><rect fill="#FDFDFD" height="90.4375" rx="4" ry="4" style="stroke:#6B6B6B;stroke-width:0.5;" width="307.8545" x="1100" y="341.1094"/><text fill="#000000" font-family="sans-serif" font-size="14" lengthAdjust="spacing" textLength="140.8408" x="1183.5068" y="365.6426">Config (core/config.py)</text><text fill="#000000" font-family="sans-serif" font-size="14" lengthAdjust="spacing" textLength="138.5234" x="1184.6655" y="383.252">loaded from env / .env</text><text fill="#000000" font-family="sans-serif" font-size="14" lengthAdjust="spacing" textLength="163.4199" x="1172.2173" y="400.8613">models, cache_dir, log_dir</text><text fill="#000000" font-family="sans-serif" font-size="14" lengthAdjust="spacing" textLength="287.8545" x="1110" y="418.4707">JIRA &#183; GitHub &#183; AzDO &#183; GitLab &#183; Jenkins creds</text></g><!--entity bc--><g class="entity" data-qualified-name="LC.bc" data-source-line="33" id="ent0009"><rect fill="#FDFDFD" height="55.2188" rx="4" ry="4" style="stroke:#6B6B6B;stroke-width:0.5;" width="183.3926" x="1131.5" y="222.6094"/><text fill="#000000" font-family="sans-serif" font-size="14" lengthAdjust="spacing" textLength="152.5234" x="1146.9346" y="247.1426">build_config(**overrides)</text><text fill="#000000" font-family="sans-serif" font-size="14" lengthAdjust="spacing" textLength="163.3926" x="1141.5" y="264.752">UI form fields override env</text></g><!--entity doc--><g class="entity" data-qualified-name="L1.doc" data-source-line="37" id="ent0011"><rect fill="#FDFDFD" height="55.2188" rx="4" ry="4" style="stroke:#6B6B6B;stroke-width:0.5;" width="208.2891" x="484" y="558.1094"/><text fill="#000000" font-family="sans-serif" font-size="14" lengthAdjust="spacing" textLength="106.6133" x="534.8379" y="582.6426">read_document()</text><text fill="#000000" font-family="sans-serif" font-size="14" lengthAdjust="spacing" textLength="188.2891" x="494" y="600.252">.docx (python-docx) / .txt / .md</text></g><!--entity jira--><g class="entity" data-qualified-name="L1.jira" data-source-line="38" id="ent0012"><rect fill="#FDFDFD" height="37.6094" rx="4" ry="4" style="stroke:#6B6B6B;stroke-width:0.5;" width="176.3926" x="246" y="666.6094"/><text fill="#000000" font-family="sans-serif" font-size="14" lengthAdjust="spacing" textLength="156.3926" x="256" y="691.1426">JiraConnector.search(jql)</text></g><!--entity gh--><g class="entity" data-qualified-name="L1.gh" data-source-line="39" id="ent0013"><rect fill="#FDFDFD" height="72.8281" rx="4" ry="4" style="stroke:#6B6B6B;stroke-width:0.5;" width="237.1162" x="434.5" y="649.1094"/><text fill="#000000" font-family="sans-serif" font-size="14" lengthAdjust="spacing" textLength="108.165" x="498.9756" y="673.6426">GitHubConnector</text><text fill="#000000" font-family="sans-serif" font-size="14" lengthAdjust="spacing" textLength="118.2959" x="493.9102" y="691.252">get_pr &#183; get_pr_diff</text><text fill="#000000" font-family="sans-serif" font-size="14" lengthAdjust="spacing" textLength="217.1162" x="444.5" y="708.8613">list_open_prs &#183; comment_on_issue</text></g><!--entity jenkins--><g class="entity" data-qualified-name="L1.jenkins" data-source-line="40" id="ent0014"><rect fill="#FDFDFD" height="55.2188" rx="4" ry="4" style="stroke:#6B6B6B;stroke-width:0.5;" width="191.2402" x="704.5" y="558.1094"/><text fill="#000000" font-family="sans-serif" font-size="14" lengthAdjust="spacing" textLength="112.0615" x="744.0894" y="582.6426">JenkinsConnector</text><text fill="#000000" font-family="sans-serif" font-size="14" lengthAdjust="spacing" textLength="171.2402" x="714.5" y="600.252">get_build &#183; get_console_log</text></g><!--entity other--><g class="entity" data-qualified-name="L1.other" data-source-line="41" id="ent0015"><rect fill="#FDFDFD" height="55.2188" rx="4" ry="4" style="stroke:#6B6B6B;stroke-width:0.5;" width="164.7236" x="907.5" y="558.1094"/><text fill="#000000" font-family="sans-serif" font-size="14" lengthAdjust="spacing" textLength="144.7236" x="917.5" y="582.6426">Azure DevOps &#183; GitLab</text><text fill="#000000" font-family="sans-serif" font-size="14" lengthAdjust="spacing" textLength="68.4824" x="955.6206" y="600.252">connectors</text></g><!--entity srcs--><g class="entity" data-qualified-name="L1.srcs" data-source-line="42" id="ent0016"><rect fill="#FDFDFD" height="72.8281" rx="4" ry="4" style="stroke:#6B6B6B;stroke-width:0.5;" width="225.4609" x="246.5" y="549.1094"/><text fill="#000000" font-family="sans-serif" font-size="14" lengthAdjust="spacing" textLength="67.6963" x="325.3823" y="573.6426">sources.py</text><text fill="#000000" font-family="sans-serif" font-size="14" lengthAdjust="spacing" textLength="205.4609" x="256.5" y="591.252">fetch_jira_text / fetch_github_text</text><text fill="#000000" font-family="sans-serif" font-size="14" lengthAdjust="spacing" textLength="129.5479" x="294.4565" y="608.8613">(remote -&gt; plain text)</text></g><!--entity local--><g class="entity" data-qualified-name="L2.local" data-source-line="46" id="ent0018"><rect fill="#FDFDFD" height="72.8281" rx="4" ry="4" style="stroke:#6B6B6B;stroke-width:0.5;" width="260.4883" x="667" y="823.1094"/><text fill="#000000" font-family="sans-serif" font-size="14" lengthAdjust="spacing" textLength="168.082" x="713.2031" y="847.6426">local.reduce_text()  [offline]</text><text fill="#000000" font-family="sans-serif" font-size="14" lengthAdjust="spacing" textLength="182.8818" x="705.8032" y="865.252">unicode fold &#183; boilerplate strip</text><text fill="#000000" font-family="sans-serif" font-size="14" lengthAdjust="spacing" textLength="240.4883" x="677" y="882.8613">punctuation/filler collapse &#183; para dedup</text></g><!--entity prefilter--><g class="entity" data-qualified-name="L2.prefilter" data-source-line="47" id="ent0019"><rect fill="#FDFDFD" height="72.8281" rx="4" ry="4" style="stroke:#6B6B6B;stroke-width:0.5;" width="213.751" x="441" y="823.1094"/><text fill="#000000" font-family="sans-serif" font-size="14" lengthAdjust="spacing" textLength="150.1719" x="472.7896" y="847.6426">1. prefilter_fields(profile)</text><text fill="#000000" font-family="sans-serif" font-size="14" lengthAdjust="spacing" textLength="193.751" x="451" y="865.252">allowlists: jira_issue &#183; github_pr</text><text fill="#000000" font-family="sans-serif" font-size="14" lengthAdjust="spacing" textLength="169.6543" x="463.0483" y="882.8613">jenkins_build &#183; azdo &#183; gitlab</text></g><!--entity compress--><g class="entity" data-qualified-name="L2.compress" data-source-line="48" id="ent0020"><rect fill="#FDFDFD" height="55.2188" rx="4" ry="4" style="stroke:#6B6B6B;stroke-width:0.5;" width="340.5713" x="585.5" y="923.1094"/><text fill="#000000" font-family="sans-serif" font-size="14" lengthAdjust="spacing" textLength="320.5713" x="595.5" y="947.6426">2. compress_text / compress_prose / compress_diff</text><text fill="#000000" font-family="sans-serif" font-size="14" lengthAdjust="spacing" textLength="291.0811" x="610.2451" y="965.252">strip_noise &#183; dedupe_lines &#183; head_tail_truncate</text></g><!--entity summarize--><g class="entity" data-qualified-name="L2.summarize" data-source-line="49" id="ent0021"><rect fill="#FDFDFD" height="72.8281" rx="4" ry="4" style="stroke:#6B6B6B;stroke-width:0.5;" width="315.7158" x="598" y="1005.1094"/><text fill="#000000" font-family="sans-serif" font-size="14" lengthAdjust="spacing" textLength="84.0205" x="713.8477" y="1029.6426">3. summarize</text><text fill="#000000" font-family="sans-serif" font-size="14" lengthAdjust="spacing" textLength="229.5234" x="641.0962" y="1047.252">Haiku  -&gt;  local Ollama  -&gt;  extractive</text><text fill="#000000" font-family="sans-serif" font-size="14" lengthAdjust="spacing" textLength="295.7158" x="608" y="1064.8613">(tokens.count_tokens_offline: tiktoken/estimate)</text></g><!--entity pipe--><g class="entity" data-qualified-name="L2.pipe" data-source-line="50" id="ent0022"><rect fill="#FDFDFD" height="72.8281" rx="4" ry="4" style="stroke:#6B6B6B;stroke-width:0.5;" width="317.9512" x="609" y="1122.1094"/><text fill="#000000" font-family="sans-serif" font-size="14" lengthAdjust="spacing" textLength="55.2617" x="740.3447" y="1146.6426">pipelines</text><text fill="#000000" font-family="sans-serif" font-size="14" lengthAdjust="spacing" textLength="297.9512" x="619" y="1164.252">OptimizedRunner (items) &#183; TextOptimizer (docs)</text><text fill="#000000" font-family="sans-serif" font-size="14" lengthAdjust="spacing" textLength="144.7441" x="695.6035" y="1181.8613">build_prompt_request()</text></g><!--entity client--><g class="entity" data-qualified-name="L3.client" data-source-line="54" id="ent0024"><rect fill="#FDFDFD" height="72.8281" rx="4" ry="4" style="stroke:#6B6B6B;stroke-width:0.5;" width="246.8438" x="776.5" y="1280.1094"/><text fill="#000000" font-family="sans-serif" font-size="14" lengthAdjust="spacing" textLength="144.7305" x="827.5566" y="1304.6426">ClaudeClient (client.py)</text><text fill="#000000" font-family="sans-serif" font-size="14" lengthAdjust="spacing" textLength="171.1787" x="814.3325" y="1322.252">complete() &#183; count_tokens()</text><text fill="#000000" font-family="sans-serif" font-size="14" lengthAdjust="spacing" textLength="226.8438" x="786.5" y="1339.8613">adaptive thinking + effort &#183; streaming</text></g><!--entity pcache--><g class="entity" data-qualified-name="L3.pcache" data-source-line="55" id="ent0025"><rect fill="#FDFDFD" height="72.8281" rx="4" ry="4" style="stroke:#6B6B6B;stroke-width:0.5;" width="287.3057" x="656.5" y="1410.1094"/><text fill="#000000" font-family="sans-serif" font-size="14" lengthAdjust="spacing" textLength="128.3926" x="735.9565" y="1434.6426">Native prompt cache</text><text fill="#000000" font-family="sans-serif" font-size="14" lengthAdjust="spacing" textLength="267.3057" x="666.5" y="1452.252">cache_control=ephemeral on system prefix</text><text fill="#000000" font-family="sans-serif" font-size="14" lengthAdjust="spacing" textLength="73.5479" x="763.3789" y="1469.8613">~0.1x reads</text></g><!--entity rcache--><g class="entity" data-qualified-name="L3.rcache" data-source-line="56" id="ent0026"><rect fill="#FDFDFD" height="72.8281" rx="4" ry="4" style="stroke:#6B6B6B;stroke-width:0.5;" width="216.8682" x="955.5" y="1410.1094"/><text fill="#000000" font-family="sans-serif" font-size="14" lengthAdjust="spacing" textLength="172.7578" x="977.5552" y="1434.6426">ResponseCache (cache.py)</text><text fill="#000000" font-family="sans-serif" font-size="14" lengthAdjust="spacing" textLength="147.4648" x="990.2017" y="1452.252">sha256(request) -&gt; disk</text><text fill="#000000" font-family="sans-serif" font-size="14" lengthAdjust="spacing" textLength="196.8682" x="965.5" y="1469.8613">exact-match, 0 tokens, TTL 24h</text></g><!--entity usage--><g class="entity" data-qualified-name="L3.usage" data-source-line="57" id="ent0027"><rect fill="#FDFDFD" height="55.2188" rx="4" ry="4" style="stroke:#6B6B6B;stroke-width:0.5;" width="247.582" x="1185" y="1419.1094"/><text fill="#000000" font-family="sans-serif" font-size="14" lengthAdjust="spacing" textLength="122.5479" x="1247.5171" y="1443.6426">Usage + _PRICING</text><text fill="#000000" font-family="sans-serif" font-size="14" lengthAdjust="spacing" textLength="227.582" x="1195" y="1461.252">per-tier token tally -&gt; estimate_cost()</text></g><!--entity outtxt--><g class="entity" data-qualified-name="L4.outtxt" data-source-line="64" id="ent0031"><rect fill="#FDFDFD" height="55.2188" rx="4" ry="4" style="stroke:#6B6B6B;stroke-width:0.5;" width="145.2959" x="22.5" y="1538.1094"/><text fill="#000000" font-family="sans-serif" font-size="14" lengthAdjust="spacing" textLength="125.2959" x="32.5" y="1562.6426">optimized_output.txt</text><text fill="#000000" font-family="sans-serif" font-size="14" lengthAdjust="spacing" textLength="124.8926" x="32.7017" y="1580.252">(stats header + text)</text></g><!--entity result--><g class="entity" data-qualified-name="L4.result" data-source-line="65" id="ent0032"><rect fill="#FDFDFD" height="55.2188" rx="4" ry="4" style="stroke:#6B6B6B;stroke-width:0.5;" width="323.4473" x="159.5" y="1419.1094"/><text fill="#000000" font-family="sans-serif" font-size="14" lengthAdjust="spacing" textLength="273.875" x="184.2861" y="1443.6426">OptimizationResult / TextOptimizationResult</text><text fill="#000000" font-family="sans-serif" font-size="14" lengthAdjust="spacing" textLength="303.4473" x="169.5" y="1461.252">raw vs optimized tokens &#183; %saved &#183; cost &#183; stages</text></g><!--entity logs--><g class="entity" data-qualified-name="L4.logs" data-source-line="66" id="ent0033"><rect fill="#FDFDFD" height="72.8281" rx="4" ry="4" style="stroke:#6B6B6B;stroke-width:0.5;" width="267.8369" x="180" y="1529.1094"/><text fill="#000000" font-family="sans-serif" font-size="14" lengthAdjust="spacing" textLength="106.6201" x="260.6084" y="1553.6426">run_log.log_run()</text><text fill="#000000" font-family="sans-serif" font-size="14" lengthAdjust="spacing" textLength="157.999" x="234.9189" y="1571.252">logs/&lt;run_id&gt;_&lt;cmd&gt;.log</text><text fill="#000000" font-family="sans-serif" font-size="14" lengthAdjust="spacing" textLength="247.8369" x="190" y="1588.8613">human report + JSON, secrets redacted</text></g><!--entity dash--><g class="entity" data-qualified-name="L4.dash" data-source-line="67" id="ent0034"><rect fill="#FDFDFD" height="55.2188" rx="4" ry="4" style="stroke:#6B6B6B;stroke-width:0.5;" width="139.8613" x="460" y="1538.1094"/><text fill="#000000" font-family="sans-serif" font-size="14" lengthAdjust="spacing" textLength="92.6201" x="483.6206" y="1562.6426">A/B dashboard</text><text fill="#000000" font-family="sans-serif" font-size="14" lengthAdjust="spacing" textLength="119.8613" x="470" y="1580.252">ab_dashboard.html</text></g><!--entity user--><g class="entity" data-qualified-name="user" data-source-line="22" id="ent0001"><ellipse cx="469.7793" cy="61.1094" fill="#F1F1F1" rx="8" ry="8" style="stroke:#181818;stroke-width:0.5;"/><path d="M469.7793,69.1094 L469.7793,96.1094 M456.7793,77.1094 L482.7793,77.1094 M469.7793,96.1094 L456.7793,111.1094 M469.7793,96.1094 L482.7793,111.1094" fill="none" style="stroke:#181818;stroke-width:0.5;"/><text fill="#000000" font-family="sans-serif" font-size="14" lengthAdjust="spacing" textLength="29.5586" x="455" y="127.1426">User</text></g><!--entity ops--><g class="entity" data-qualified-name="ops" data-source-line="23" id="ent0002"><ellipse cx="614.0757" cy="52.6094" fill="#F1F1F1" rx="8" ry="8" style="stroke:#181818;stroke-width:0.5;"/><path d="M614.0757,60.6094 L614.0757,87.6094 M601.0757,68.6094 L627.0757,68.6094 M614.0757,87.6094 L601.0757,102.6094 M614.0757,87.6094 L627.0757,102.6094" fill="none" style="stroke:#181818;stroke-width:0.5;"/><text fill="#000000" font-family="sans-serif" font-size="14" lengthAdjust="spacing" textLength="51.3447" x="588.4033" y="118.6426">Ops / CI</text><text fill="#000000" font-family="sans-serif" font-size="14" lengthAdjust="spacing" textLength="73.1514" x="577.5" y="136.252">(scheduled)</text></g><!--entity api--><g class="entity" data-qualified-name="api" data-source-line="60" id="ent0028"><path d="M1476.5464,1423.3265 C1482.2543,1412.6989 1488.3396,1413.1157 1496.0793,1421.2062 C1502.0031,1413.7384 1508.7118,1412.5032 1514.5598,1421.2924 C1517.3342,1409.6948 1527.3754,1408.8999 1534.4608,1416.9188 C1539.9821,1407.261 1547.2668,1406.4463 1553.2079,1416.5199 C1558.4983,1406.5663 1565.6204,1407.5607 1572.1835,1415.1427 C1576.8701,1407.6891 1583.327,1405.9679 1588.8829,1414.2183 C1594.125,1404.2198 1601.9761,1402.9182 1608.7528,1412.6748 C1615.7269,1402.755 1622.2168,1405.3856 1627.7441,1414.1457 C1633.8518,1403.5764 1640.4295,1403.0371 1647.5509,1413.1761 C1655.7282,1403.7068 1665.7117,1405.5759 1668.6336,1418.1928 C1673.3995,1409.6366 1682.3459,1407.0293 1687.9156,1417.3728 C1693.3457,1408.6313 1702.9845,1408.3385 1707.3609,1418.4591 C1714.098,1412.4876 1722.4952,1413.6887 1724.4003,1423.6324 C1730.5871,1414.7793 1738.2268,1414.0518 1744.6344,1423.3869 C1757.3131,1430.6776 1757.1923,1438.4336 1747.0562,1447.9718 C1757.4691,1455.7047 1755.5293,1467.556 1743.7803,1472.3052 C1739.0958,1480.0184 1732.8476,1481.7022 1727.0069,1473.5258 C1721.0484,1485.0751 1712.5253,1483.1194 1705.4811,1474.696 C1701.6754,1483.7514 1695.1672,1485.7418 1688.4255,1477.6094 C1684.4694,1488.8955 1674.8917,1489.144 1667.7973,1480.929 C1662.1857,1490.3045 1654.6414,1490.0418 1649.774,1480.2299 C1644.5074,1489.1261 1636.3429,1491.6017 1629.9936,1481.3483 C1625.4742,1489.6308 1616.5064,1493.0636 1610.4894,1482.9349 C1602.9718,1491.7907 1596.8412,1490.3731 1590.3072,1481.7963 C1583.9334,1491.8289 1575.4561,1490.3476 1570.7383,1480.1912 C1564.9667,1487.2383 1559.0414,1486.6138 1553.9067,1479.4376 C1546.8334,1488.6815 1536.4717,1487.1125 1532.431,1476.2056 C1526.4816,1484.7839 1519.6371,1483.5181 1514.2487,1475.5876 C1506.6375,1482.7336 1500.4545,1483.6004 1494.7831,1473.4096 C1488.5063,1482.5924 1479.8858,1482.8624 1473.7798,1473.2191 C1460.3054,1467.5706 1460.405,1454.3854 1471.801,1446.8692 C1462.0348,1438.1833 1464.2527,1427.5658 1476.5464,1423.3265" fill="#F1F1F1" style="stroke:#181818;stroke-width:0.5;"/><text fill="#000000" font-family="sans-serif" font-size="14" lengthAdjust="spacing" textLength="153.2959" x="1531.4482" y="1443.6426">Anthropic Messages API</text><text fill="#000000" font-family="sans-serif" font-size="14" lengthAdjust="spacing" textLength="255.1924" x="1480.5" y="1461.252">Opus 4.8 (reason) &#183; Haiku 4.5 (summary)</text></g><!--entity ollama--><g class="entity" data-qualified-name="ollama" data-source-line="61" id="ent0029"><polygon fill="#F1F1F1" points="141.5,1136.1094,151.5,1126.1094,408.7061,1126.1094,408.7061,1181.3281,398.7061,1191.3281,141.5,1191.3281,141.5,1136.1094" style="stroke:#181818;stroke-width:0.5;stroke-linejoin:miter;stroke-miterlimit:10;"/><line style="stroke:#181818;stroke-width:0.5;" x1="398.7061" x2="408.7061" y1="1136.1094" y2="1126.1094"/><line style="stroke:#181818;stroke-width:0.5;" x1="141.5" x2="398.7061" y1="1136.1094" y2="1136.1094"/><line style="stroke:#181818;stroke-width:0.5;" x1="398.7061" x2="398.7061" y1="1136.1094" y2="1191.3281"/><text fill="#000000" font-family="sans-serif" font-size="14" lengthAdjust="spacing" textLength="143.1719" x="198.5171" y="1160.6426">Ollama (optional, local)</text><text fill="#000000" font-family="sans-serif" font-size="14" lengthAdjust="spacing" textLength="227.2061" x="156.5" y="1178.252">abstractive summary, 0 cloud tokens</text></g><!--link user to ui--><g class="link" data-entity-1="ent0001" data-entity-2="ent0004" data-link-type="dependency" data-source-line="70" id="lnk35"><path d="M454.86,102.3994 C418.23,126.0894 327.9983,184.4338 273.2083,219.8738" fill="none" id="user-to-ui" style="stroke:#35506E;stroke-width:1;"/><polygon fill="#35506E" points="269.01,222.5894,278.7394,221.0599,273.2083,219.8738,274.3944,214.3427,269.01,222.5894" style="stroke:#35506E;stroke-width:1;stroke-linejoin:miter;stroke-miterlimit:10;"/></g><!--link user to cli--><g class="link" data-entity-1="ent0001" data-entity-2="ent0005" data-link-type="dependency" data-source-line="71" id="lnk36"><path d="M485.14,109.0594 C505.86,131.5894 540.4544,169.18 569.8344,201.11" fill="none" id="user-to-cli" style="stroke:#35506E;stroke-width:1;"/><polygon fill="#35506E" points="573.22,204.7894,570.0695,195.458,569.8344,201.11,564.1825,200.8749,573.22,204.7894" style="stroke:#35506E;stroke-width:1;stroke-linejoin:miter;stroke-miterlimit:10;"/></g><!--link ops to cli--><g class="link" data-entity-1="ent0002" data-entity-2="ent0005" data-link-type="dependency" data-source-line="72" id="lnk37"><path d="M614,139.1394 C614,159.9494 614,179.3694 614,199.8994" fill="none" id="ops-to-cli" style="stroke:#35506E;stroke-width:1;"/><polygon fill="#35506E" points="614,204.8994,618,195.8994,614,199.8994,610,195.8994,614,204.8994" style="stroke:#35506E;stroke-width:1;stroke-linejoin:miter;stroke-miterlimit:10;"/></g><!--link lib to pipe--><g class="link" data-entity-1="ent0006" data-entity-2="ent0022" data-link-type="dependency" data-source-line="73" id="lnk38"><path d="M942.96,277.7994 C965.9,322.0694 1018.02,410.2394 1089,455.1094 C1102.85,463.8694 1114.18,450.7994 1125,463.1094 C1160.8,503.8294 1136,530.3894 1136,584.6094 C1136,584.6094 1136,584.6094 1136,1042.6094 C1136,1089.3394 1031.4537,1118.4292 931.9237,1136.0192" fill="none" id="lib-to-pipe" style="stroke:#35506E;stroke-width:1;stroke-dasharray:7,7;"/><polygon fill="#35506E" points="927,1136.8894,936.5588,1139.262,931.9237,1136.0192,935.1665,1131.3841,927,1136.8894" style="stroke:#35506E;stroke-width:1;stroke-linejoin:miter;stroke-miterlimit:10;"/></g><!--link ui to bc--><g class="link" data-entity-1="ent0004" data-entity-2="ent0009" data-link-type="dependency" data-source-line="75" id="lnk39"><path d="M268.2,222.3894 C306.34,197.9094 366.24,163.9894 424,150.1094 C457.76,141.9994 1015.45,141.1594 1049,150.1094 C1101.35,164.0794 1150.2609,195.0323 1183.7709,219.4823" fill="none" id="ui-to-bc" style="stroke:#35506E;stroke-width:1;stroke-dasharray:7,7;"/><polygon fill="#35506E" points="1187.81,222.4294,1182.8972,213.8933,1183.7709,219.4823,1178.1819,220.3559,1187.81,222.4294" style="stroke:#35506E;stroke-width:1;stroke-linejoin:miter;stroke-miterlimit:10;"/></g><!--link bc to config--><g class="link" data-entity-1="ent0009" data-entity-2="ent0008" data-link-type="dependency" data-source-line="76" id="lnk40"><path d="M1229.2,277.8994 C1233.37,295.9294 1237.8333,315.238 1242.6533,336.078" fill="none" id="bc-to-config" style="stroke:#35506E;stroke-width:1;"/><polygon fill="#35506E" points="1243.78,340.9494,1245.6491,331.2795,1242.6533,336.078,1237.8548,333.0822,1243.78,340.9494" style="stroke:#35506E;stroke-width:1;stroke-linejoin:miter;stroke-miterlimit:10;"/></g><!--link cli to config--><g class="link" data-entity-1="ent0005" data-entity-2="ent0008" data-link-type="dependency" data-source-line="77" id="lnk41"><path d="M729.53,295.1794 C755.71,304.0494 783.59,312.6294 810,319.1094 C905.08,342.4494 1008.7973,358.1697 1094.8373,368.7397" fill="none" id="cli-to-config" style="stroke:#35506E;stroke-width:1;stroke-dasharray:7,7;"/><polygon fill="#35506E" points="1099.8,369.3494,1091.3549,364.2818,1094.8373,368.7397,1090.3794,372.2221,1099.8,369.3494" style="stroke:#35506E;stroke-width:1;stroke-linejoin:miter;stroke-miterlimit:10;"/></g><!--link lib to config--><g class="link" data-entity-1="ent0006" data-entity-2="ent0008" data-link-type="dependency" data-source-line="78" id="lnk42"><path d="M991.39,277.7694 C1020.85,290.4494 1056.68,305.7394 1089,319.1094 C1106.39,326.3094 1120.2221,331.9514 1138.2721,339.2214" fill="none" id="lib-to-config" style="stroke:#35506E;stroke-width:1;stroke-dasharray:7,7;"/><polygon fill="#35506E" points="1142.91,341.0894,1136.0561,334.0166,1138.2721,339.2214,1133.0673,341.4373,1142.91,341.0894" style="stroke:#35506E;stroke-width:1;stroke-linejoin:miter;stroke-miterlimit:10;"/></g><!--link ui to doc--><g class="link" data-entity-1="ent0004" data-entity-2="ent0011" data-link-type="dependency" data-source-line="80" id="lnk43"><path d="M228.26,277.9494 C229.56,293.6894 233.28,313.3094 243,328.1094 C312.52,433.9194 377.81,411.7094 478,489.1094 C506.42,511.0694 533.4424,534.6948 555.1824,554.3648" fill="none" id="ui-to-doc" style="stroke:#35506E;stroke-width:1;"/><polygon fill="#35506E" points="558.89,557.7194,554.8999,548.715,555.1824,554.3648,549.5326,554.6472,558.89,557.7194" style="stroke:#35506E;stroke-width:1;stroke-linejoin:miter;stroke-miterlimit:10;"/></g><!--link ui to srcs--><g class="link" data-entity-1="ent0004" data-entity-2="ent0016" data-link-type="dependency" data-source-line="81" id="lnk44"><path d="M211.31,277.7894 C203.47,291.8794 194.99,309.8094 191,327.1094 C175.41,394.7494 180.44,422.0994 217,481.1094 C234.35,509.1194 258.1292,529.2132 284.6792,546.2132" fill="none" id="ui-to-srcs" style="stroke:#35506E;stroke-width:1;"/><polygon fill="#35506E" points="288.89,548.9094,283.4675,540.6876,284.6792,546.2132,279.1537,547.4249,288.89,548.9094" style="stroke:#35506E;stroke-width:1;stroke-linejoin:miter;stroke-miterlimit:10;"/></g><!--link cli to doc--><g class="link" data-entity-1="ent0005" data-entity-2="ent0011" data-link-type="dependency" data-source-line="82" id="lnk45"><path d="M610.55,295.3994 C605.06,365.7394 594.919,495.8945 590.459,553.0545" fill="none" id="cli-to-doc" style="stroke:#35506E;stroke-width:1;"/><polygon fill="#35506E" points="590.07,558.0394,594.758,549.3778,590.459,553.0545,586.7822,548.7555,590.07,558.0394" style="stroke:#35506E;stroke-width:1;stroke-linejoin:miter;stroke-miterlimit:10;"/></g><!--link cli to jira--><g class="link" data-entity-1="ent0005" data-entity-2="ent0012" data-link-type="dependency" data-source-line="83" id="lnk46"><path d="M499.04,295.1894 C472.7,304.1094 444.61,312.7094 418,319.1094 C383.53,327.3994 287.16,318.3294 260,341.1094 C162.91,422.5094 145.92,514.0094 212,622.1094 C224.72,642.9194 242.2323,655.1011 264.1523,664.6011" fill="none" id="cli-to-jira" style="stroke:#35506E;stroke-width:1;"/><polygon fill="#35506E" points="268.74,666.5894,262.0728,659.3403,264.1523,664.6011,258.8916,666.6806,268.74,666.5894" style="stroke:#35506E;stroke-width:1;stroke-linejoin:miter;stroke-miterlimit:10;"/></g><!--link cli to gh--><g class="link" data-entity-1="ent0005" data-entity-2="ent0013" data-link-type="dependency" data-source-line="84" id="lnk47"><path d="M485.95,295.1394 C399.78,332.2494 292.79,394.6394 241,489.1094 C212.59,540.9394 202.3,577.4294 241,622.1094 C268.49,653.8494 386.94,640.3594 428,649.1094 C430.1,649.5594 427.3334,648.9152 429.4534,649.3952" fill="none" id="cli-to-gh" style="stroke:#35506E;stroke-width:1;"/><polygon fill="#35506E" points="434.33,650.4994,426.4355,644.6107,429.4534,649.3952,424.6689,652.4132,434.33,650.4994" style="stroke:#35506E;stroke-width:1;stroke-linejoin:miter;stroke-miterlimit:10;"/></g><!--link cli to jenkins--><g class="link" data-entity-1="ent0005" data-entity-2="ent0014" data-link-type="dependency" data-source-line="85" id="lnk48"><path d="M638.7,295.3994 C677.93,365.7394 750.8645,496.5126 782.7445,553.6726" fill="none" id="cli-to-jenkins" style="stroke:#35506E;stroke-width:1;"/><polygon fill="#35506E" points="785.18,558.0394,784.2895,548.2309,782.7445,553.6726,777.3027,552.1276,785.18,558.0394" style="stroke:#35506E;stroke-width:1;stroke-linejoin:miter;stroke-miterlimit:10;"/></g><!--link lib to other--><g class="link" data-entity-1="ent0006" data-entity-2="ent0015" data-link-type="dependency" data-source-line="86" id="lnk49"><path d="M934.81,277.8394 C946.04,340.2794 973.0244,490.2584 984.2844,552.8284" fill="none" id="lib-to-other" style="stroke:#35506E;stroke-width:1;"/><polygon fill="#35506E" points="985.17,557.7494,987.5127,548.1832,984.2844,552.8284,979.6392,549.6001,985.17,557.7494" style="stroke:#35506E;stroke-width:1;stroke-linejoin:miter;stroke-miterlimit:10;"/></g><!--link srcs to jira--><g class="link" data-entity-1="ent0016" data-entity-2="ent0012" data-link-type="dependency" data-source-line="87" id="lnk50"><path d="M349.9,622.2694 C346.08,637.2594 343.0266,649.2147 339.8666,661.5947" fill="none" id="srcs-to-jira" style="stroke:#35506E;stroke-width:1;"/><polygon fill="#35506E" points="338.63,666.4394,344.7316,658.7083,339.8666,661.5947,336.9802,656.7297,338.63,666.4394" style="stroke:#35506E;stroke-width:1;stroke-linejoin:miter;stroke-miterlimit:10;"/></g><!--link srcs to gh--><g class="link" data-entity-1="ent0016" data-entity-2="ent0013" data-link-type="dependency" data-source-line="88" id="lnk51"><path d="M429.31,622.1294 C446.66,630.8894 460.7877,638.0238 478.1377,646.7938" fill="none" id="srcs-to-gh" style="stroke:#35506E;stroke-width:1;"/><polygon fill="#35506E" points="482.6,649.0494,476.3723,641.4195,478.1377,646.7938,472.7633,648.5592,482.6,649.0494" style="stroke:#35506E;stroke-width:1;stroke-linejoin:miter;stroke-miterlimit:10;"/></g><!--link config to L1--><g class="link" data-entity-1="ent0008" data-entity-2="ent0010" data-link-type="dependency" data-source-line="89" id="lnk52"><path d="M1218.77,431.4294 C1195.985,460.0894 1166.13,497.6444 1141.6838,528.3956 C1129.4606,543.7713 1118.5897,557.4459 1110.6308,567.4573 C1108.6411,569.9602 1109.9449,568.3202 1108.3435,570.3345" fill="none" id="config-to-L1" style="stroke:#35506E;stroke-width:1;stroke-dasharray:7,7;"/><polygon fill="#35506E" points="1105.232,574.2484,1113.9638,569.6926,1108.3435,570.3345,1107.7016,564.7142,1105.232,574.2484" style="stroke:#35506E;stroke-width:1;stroke-linejoin:miter;stroke-miterlimit:10;"/><text fill="#000000" font-family="sans-serif" font-size="13" lengthAdjust="spacing" textLength="62.8672" x="1190" y="477.6045">credentials</text></g><!--link doc to local--><g class="link" data-entity-1="ent0011" data-entity-2="ent0018" data-link-type="dependency" data-source-line="91" id="lnk53"><path d="M634.63,613.2194 C649.62,623.2094 665.56,635.4894 678,649.1094 C726.52,702.2294 761.5844,773.9462 780.6644,818.3062" fill="none" id="doc-to-local" style="stroke:#35506E;stroke-width:1;"/><polygon fill="#35506E" points="782.64,822.8994,782.7585,813.0512,780.6644,818.3062,775.4094,816.2122,782.64,822.8994" style="stroke:#35506E;stroke-width:1;stroke-linejoin:miter;stroke-miterlimit:10;"/></g><!--link jira to prefilter--><g class="link" data-entity-1="ent0012" data-entity-2="ent0019" data-link-type="dependency" data-source-line="92" id="lnk54"><path d="M356.5,704.6894 C391.27,732.6394 454.8229,783.7169 499.6729,819.7669" fill="none" id="jira-to-prefilter" style="stroke:#35506E;stroke-width:1;"/><polygon fill="#35506E" points="503.57,822.8994,499.0611,814.1432,499.6729,819.7669,494.0492,820.3786,503.57,822.8994" style="stroke:#35506E;stroke-width:1;stroke-linejoin:miter;stroke-miterlimit:10;"/></g><!--link gh to prefilter--><g class="link" data-entity-1="ent0013" data-entity-2="ent0019" data-link-type="dependency" data-source-line="93" id="lnk55"><path d="M551.96,722.2494 C551.11,751.7694 550.0357,788.5115 549.1757,818.0215" fill="none" id="gh-to-prefilter" style="stroke:#35506E;stroke-width:1;"/><polygon fill="#35506E" points="549.03,823.0194,553.2905,814.1397,549.1757,818.0215,545.2939,813.9067,549.03,823.0194" style="stroke:#35506E;stroke-width:1;stroke-linejoin:miter;stroke-miterlimit:10;"/></g><!--link jenkins to compress--><g class="link" data-entity-1="ent0014" data-entity-2="ent0020" data-link-type="dependency" data-source-line="94" id="lnk56"><path d="M828.45,613.1794 C885.31,669.5094 1001.85,803.3694 933,896.1094 C924.87,907.0594 918.8294,913.2571 907.2794,920.2971" fill="none" id="jenkins-to-compress" style="stroke:#35506E;stroke-width:1;"/><polygon fill="#35506E" points="903.01,922.8994,912.7768,921.6307,907.2794,920.2971,908.6131,914.7997,903.01,922.8994" style="stroke:#35506E;stroke-width:1;stroke-linejoin:miter;stroke-miterlimit:10;"/></g><!--link other to prefilter--><g class="link" data-entity-1="ent0015" data-entity-2="ent0019" data-link-type="dependency" data-source-line="95" id="lnk57"><path d="M941.85,613.1194 C877.07,649.1494 758.7,716.3194 661,779.1094 C639.51,792.9194 620.4109,806.0963 600.6809,820.1663" fill="none" id="other-to-prefilter" style="stroke:#35506E;stroke-width:1;"/><polygon fill="#35506E" points="596.61,823.0694,606.2601,821.1006,600.6809,820.1663,601.6152,814.5871,596.61,823.0694" style="stroke:#35506E;stroke-width:1;stroke-linejoin:miter;stroke-miterlimit:10;"/></g><!--link local to compress--><g class="link" data-entity-1="ent0018" data-entity-2="ent0020" data-link-type="dependency" data-source-line="96" id="lnk58"><path d="M780.56,896.2994 C776.46,905.1994 774.2319,910.038 770.3719,918.418" fill="none" id="local-to-compress" style="stroke:#35506E;stroke-width:1;"/><polygon fill="#35506E" points="768.28,922.9594,775.6784,916.4584,770.3719,918.418,768.4122,913.1114,768.28,922.9594" style="stroke:#35506E;stroke-width:1;stroke-linejoin:miter;stroke-miterlimit:10;"/></g><!--link prefilter to compress--><g class="link" data-entity-1="ent0019" data-entity-2="ent0020" data-link-type="dependency" data-source-line="97" id="lnk59"><path d="M631.1,896.1694 C652.04,905.1294 669.5528,912.6232 689.2628,921.0532" fill="none" id="prefilter-to-compress" style="stroke:#35506E;stroke-width:1;"/><polygon fill="#35506E" points="693.86,923.0194,687.1581,915.8024,689.2628,921.0532,684.0121,923.1579,693.86,923.0194" style="stroke:#35506E;stroke-width:1;stroke-linejoin:miter;stroke-miterlimit:10;"/></g><!--link compress to summarize--><g class="link" data-entity-1="ent0020" data-entity-2="ent0021" data-link-type="dependency" data-source-line="98" id="lnk60"><path d="M756,978.3094 C756,986.7094 756,991.1194 756,1000.0294" fill="none" id="compress-to-summarize" style="stroke:#35506E;stroke-width:1;"/><polygon fill="#35506E" points="756,1005.0294,760,996.0294,756,1000.0294,752,996.0294,756,1005.0294" style="stroke:#35506E;stroke-width:1;stroke-linejoin:miter;stroke-miterlimit:10;"/></g><!--link summarize to pipe--><g class="link" data-entity-1="ent0021" data-entity-2="ent0022" data-link-type="dependency" data-source-line="99" id="lnk61"><path d="M759.73,1078.3694 C761.18,1092.2094 762.3129,1103.0562 763.7529,1116.9062" fill="none" id="summarize-to-pipe" style="stroke:#35506E;stroke-width:1;"/><polygon fill="#35506E" points="764.27,1121.8794,767.3178,1112.514,763.7529,1116.9062,759.3607,1113.3413,764.27,1121.8794" style="stroke:#35506E;stroke-width:1;stroke-linejoin:miter;stroke-miterlimit:10;"/></g><!--link pipe to client--><g class="link" data-entity-1="ent0022" data-entity-2="ent0024" data-link-type="dependency" data-source-line="101" id="lnk62"><path d="M798.28,1195.3994 C819.75,1220.7694 845.1897,1250.843 866.6297,1276.173" fill="none" id="pipe-to-client" style="stroke:#35506E;stroke-width:1;"/><polygon fill="#35506E" points="869.86,1279.9894,867.0986,1270.5356,866.6297,1276.173,860.9923,1275.7041,869.86,1279.9894" style="stroke:#35506E;stroke-width:1;stroke-linejoin:miter;stroke-miterlimit:10;"/></g><!--link client to pcache--><g class="link" data-entity-1="ent0024" data-entity-2="ent0025" data-link-type="dependency" data-source-line="102" id="lnk63"><path d="M872.14,1353.2694 C858.39,1370.8694 844.908,1388.1191 831.128,1405.7591" fill="none" id="client-to-pcache" style="stroke:#35506E;stroke-width:1;"/><polygon fill="#35506E" points="828.05,1409.6994,836.7427,1405.0693,831.128,1405.7591,830.4383,1400.1445,828.05,1409.6994" style="stroke:#35506E;stroke-width:1;stroke-linejoin:miter;stroke-miterlimit:10;"/></g><!--link client to rcache--><g class="link" data-entity-1="ent0024" data-entity-2="ent0026" data-link-type="dependency" data-source-line="103" id="lnk64"><path d="M945.68,1353.2694 C968.34,1370.9394 991.6779,1389.1637 1014.3379,1406.8437" fill="none" id="client-to-rcache" style="stroke:#35506E;stroke-width:1;"/><polygon fill="#35506E" points="1018.28,1409.9194,1013.6448,1401.2294,1014.3379,1406.8437,1008.7237,1407.5367,1018.28,1409.9194" style="stroke:#35506E;stroke-width:1;stroke-linejoin:miter;stroke-miterlimit:10;"/></g><!--link client to usage--><g class="link" data-entity-1="ent0024" data-entity-2="ent0027" data-link-type="dependency" data-source-line="104" id="lnk65"><path d="M1023.7,1335.0494 C1072.93,1344.0594 1129.52,1357.0494 1179,1375.1094 C1209.99,1386.4294 1238.3293,1401.5722 1263.1493,1416.4222" fill="none" id="client-to-usage" style="stroke:#35506E;stroke-width:1;"/><polygon fill="#35506E" points="1267.44,1418.9894,1261.7705,1410.936,1263.1493,1416.4222,1257.6631,1417.8011,1267.44,1418.9894" style="stroke:#35506E;stroke-width:1;stroke-linejoin:miter;stroke-miterlimit:10;"/></g><!--link client to api--><g class="link" data-entity-1="ent0024" data-entity-2="ent0028" data-link-type="dependency" data-source-line="105" id="lnk66"><path d="M1023.69,1320.1394 C1135.2,1324.8994 1302.84,1338.2194 1444,1375.1094 C1479.08,1384.2794 1511.8242,1397.6639 1541.9542,1411.8139" fill="none" id="client-to-api" style="stroke:#35506E;stroke-width:1;"/><polygon fill="#35506E" points="1546.48,1413.9394,1540.034,1406.493,1541.9542,1411.8139,1536.6333,1413.7342,1546.48,1413.9394" style="stroke:#35506E;stroke-width:1;stroke-linejoin:miter;stroke-miterlimit:10;"/></g><!--link summarize to ollama--><g class="link" data-entity-1="ent0021" data-entity-2="ent0029" data-link-type="dependency" data-source-line="106" id="lnk67"><path d="M607.43,1078.1294 C543.41,1093.4394 474.0129,1110.0267 411.9429,1124.8667" fill="none" id="summarize-to-ollama" style="stroke:#35506E;stroke-width:1;stroke-dasharray:7,7;"/><polygon fill="#35506E" points="407.08,1126.0294,416.7634,1127.8269,411.9429,1124.8667,414.9032,1120.0462,407.08,1126.0294" style="stroke:#35506E;stroke-width:1;stroke-linejoin:miter;stroke-miterlimit:10;"/><text fill="#000000" font-family="sans-serif" font-size="13" lengthAdjust="spacing" textLength="38.3018" x="545" y="1105.6045">no key</text></g><!--link client to result--><g class="link" data-entity-1="ent0024" data-entity-2="ent0032" data-link-type="dependency" data-source-line="108" id="lnk68"><path d="M776.15,1344.9894 C677.15,1366.8794 544.0921,1396.29 446.0721,1417.96" fill="none" id="client-to-result" style="stroke:#35506E;stroke-width:1;"/><polygon fill="#35506E" points="441.19,1419.0394,450.8413,1421.0023,446.0721,1417.96,449.1143,1413.1909,441.19,1419.0394" style="stroke:#35506E;stroke-width:1;stroke-linejoin:miter;stroke-miterlimit:10;"/></g><!--link local to outtxt--><g class="link" data-entity-1="ent0018" data-entity-2="ent0031" data-link-type="dependency" data-source-line="109" id="lnk69"><path d="M666.8,895.0394 C664.86,895.4094 662.92,895.7694 661,896.1094 C601.43,906.7594 119,889.0994 119,949.6094 C119,949.6094 119,949.6094 119,1447.6094 C119,1479.1294 111.9443,1509.6706 105.0643,1533.1806" fill="none" id="local-to-outtxt" style="stroke:#35506E;stroke-width:1;"/><polygon fill="#35506E" points="103.66,1537.9794,110.0268,1530.4651,105.0643,1533.1806,102.3488,1528.2182,103.66,1537.9794" style="stroke:#35506E;stroke-width:1;stroke-linejoin:miter;stroke-miterlimit:10;"/></g><!--link result to outtxt--><g class="link" data-entity-1="ent0032" data-entity-2="ent0031" data-link-type="dependency" data-source-line="110" id="lnk70"><path d="M269.72,1474.1594 C232.86,1493.2394 187.8104,1516.561 150.9104,1535.661" fill="none" id="result-to-outtxt" style="stroke:#35506E;stroke-width:1;"/><polygon fill="#35506E" points="146.47,1537.9594,156.3015,1537.3745,150.9104,1535.661,152.624,1530.2699,146.47,1537.9594" style="stroke:#35506E;stroke-width:1;stroke-linejoin:miter;stroke-miterlimit:10;"/></g><!--link result to logs--><g class="link" data-entity-1="ent0032" data-entity-2="ent0033" data-link-type="dependency" data-source-line="111" id="lnk71"><path d="M319.41,1474.1594 C318.44,1490.3394 317.4874,1506.2382 316.4374,1523.8582" fill="none" id="result-to-logs" style="stroke:#35506E;stroke-width:1;"/><polygon fill="#35506E" points="316.14,1528.8494,320.6683,1520.1033,316.4374,1523.8582,312.6825,1519.6274,316.14,1528.8494" style="stroke:#35506E;stroke-width:1;stroke-linejoin:miter;stroke-miterlimit:10;"/></g><!--link result to dash--><g class="link" data-entity-1="ent0032" data-entity-2="ent0034" data-link-type="dependency" data-source-line="112" id="lnk72"><path d="M368.43,1474.1594 C402.51,1493.2394 443.9171,1516.4171 478.0371,1535.5171" fill="none" id="result-to-dash" style="stroke:#35506E;stroke-width:1;"/><polygon fill="#35506E" points="482.4,1537.9594,476.5006,1530.0729,478.0371,1535.5171,472.5929,1537.0535,482.4,1537.9594" style="stroke:#35506E;stroke-width:1;stroke-linejoin:miter;stroke-miterlimit:10;"/></g><?plantuml-src TLVXRjms4lw_Jp78uQvoujKcZfChWbu0npwt3jouI9nVjmU1At5Nx58aIrAsDtSj-X1zb_xlezoJt0n7qagR50Qov6WuCvpvvkFaAxYrMsbkN5ID-YGz_E_Ntw2IKIWjAz1Y9pt-2b_MAieojbxciw_WoaJfrwAK0UQluToQjThGweDjVIViBKA8NaIvKRskbulhw--JIXjT6qC-Yofg-QL0paP-8UkZAMtZh94cXgFPB6oLSSABPY_-47TepkCnOJPQZbH2BIfxhym6raA7yPTAhaMhuwryY6TQRKo3Tg2KTC-Hbh6L3DB1ivEHq0kp9U79ox6mzmx_cG6y4ULsusrhgdEhhOU_N5xG7tsnlfA-axvyGtyexLIzmJnyFVjvPDUX9R7vCwkdbt-_V7DezVcB5qzV_XEbbxRFpShgQcBsp7jxFzMVYJBYzj778FqZ405QNFJ26nTW0UTNIvE5ifPLYsWvIbhMXTciZ_BH22WP9jFlm5b5XKkwrq_JFVQvUdGXmpPQ1n-l86lLGZYNkztHqjoALNZ5284zHFuBbr8GDkONyWu-R9NM0OKN8jGhAtp5OQkfY_FhAu18bgoBa9LQiGlRcPrNjeG_VeVe5LvX_gFoOhoL1fCMbiRBEoNlvniLwtOrTtwaCyW22R50KIuDeTFB451SaLYOihP-xhGmQRkQXnQXJkkgZpzjP6FJFJ3GwKMkrSeBlriEFLEzRmqXPW44uo5DwRHMAopulZ3SiossfhA6Yt5-M8okhxEIUhPC6qwLjgB2Fbnxsu0qT-Wmnv-bQR0zT3Y6KY0cYahvOz1sGukbUNlr_epkywsAtxKhMfrzkhZf9DSYITvoSg74BWzywUHr6jQgLReg-4ls-B6zazuhx4iC366pjhw1jPAwGYnsdoZ8P6vLJfBGqzKY4Tg6au58LQFTud67rMU7wV5IL0M2fIMkoD1xZfi7oDmkrjOGZ1wEA3Nn8T9Fmt14yTJCMmGOPjf8wgmyIEBQxCUVDBib-4trEO73YQNPo5Wm_dY5-LwliKWgnC8wQOeEY8X0YhImfb0Xj3BPtzG7qN093iodbFSUCFF1QbbWQJb4FZArS_Q9A1lRafXYA3ArGMUOwsjZZQGoEHcuA8YqfLdBMDO5vQ28CgMH9TnXIOOCvB55i7FmHS5kKWP8pDaBlWoJYd_fLShwpXzAVN9OQcrBeND4PLlAv3Kx0lYNNQ-rClBVIzCQLIBs4NoSffN5vzDZD35vKcvfN6lm6KkOMgoHgB1FIwkrS27rFD4mzdhLEcvNSZYDuLaEI21u51crO81dpbiKICIUqDhUKycH9bE-KebJoJXN3alPLMfVJl6fifsE5glaUV0nzNwIGyzWVIc6FKQ1bnW9683fueMnYc-OBeUemOmbHDJKFZHd5D5ZRZ1LNSUpaQdxvpc4jcc4np8jpNT2RLkWWdEYu0OJsGYMO70UNobrXufPulcGb_X8ne8tHLUsLn3LDeaMCY00C80EDBsZQGXEEPc2_vnmCoJk9XpHhIRC2nbsE_4IKnRcgN6nyFAd5Zrcx8tC7Z2pfsJIZCJCgtKp8FFvPnojHLl9SwreNg7737-Pf2cHMaQP7N7pxpD0N2KguIX746j5eDZ04v1h9Cz8sbWwAHgKzYyFMftwVIVIQRuI4pwwJBoFBHwzrV-GhfQDz5WUQo3i0kQ8qVMmDByypPyz034eyu1BHwSktik0yroGv_G9xqO_V3KSuqvUlCowH1vHsIiLjaiZ7x3oSonbMH_3KtxbyJswlRs6azCwUV9VyFGnKEQVGF73-wlpgtVVOhTAFuyAAvXCGCJssf6R7YbuoQ62BPsc4fRQjXLIducrjqwLy3tY6By5EFlXYb3J1ZZDlmOCN0HhKbqOogVv2yWOTpisAfoQqRI9bCNOJYnbiS-F6VDKmrNeeTw1TaUtvZ3uxaoooSAO1NdmXh_1pGg7kZknKbh57KFiz11YFJrMXKtdw46ZkIyAD45TZ6bwCY9Tr4ADgOsk9HBzOLrnqfvEAQCFE5g9UxYZIRBpszs5qlNN8EvanO0E7LGfmrpQTFxWaMuDFLGvpI6upjBqiWcBR-Y3gbuNtvHDzPe-BqtTDZYCUUce2vx0smytxuuXI9n68XclCDMowkXvS_ZUBTxivpOgJJ7iyZescjz-515GQ9A6ES89PzDXJVCT3i_36YSsoFFNJ12pLgKD3Z2habLuCaBDzA7RzeUwBHqZPHewkcLw4kbKB-_NQTBeDpWM3FBkUIVJjESdcypiZmqxEiTJ8qM1CzEhDCmXVIZy3zTiHhCrwV7xbcPhskuVdKrz8EZSTtVkteOKmu4YlmGJjU7ZLDmlE1y3smyhDfpIJl_s5I4Ev1zMO28PIVnd4gQ6aO3QUk-7SiJDYNao5hPoDviOP43lRzQr5il_H9AmETedqFqV?></g></svg>