<svg xmlns="http://www.w3.org/2000/svg" xmlns:xlink="http://www.w3.org/1999/xlink" contentStyleType="text/css" data-diagram-type="ACTIVITY" height="1618px" preserveAspectRatio="none" style="width:3386px;height:1618px;background:#FFFFFF;" version="1.1" viewBox="0 0 3386 1618" width="3386px" zoomAndPan="magnify"><?plantuml 1.2026.6?><defs/><g><g class="title" data-source-line="3"><text fill="#000000" font-family="sans-serif" font-size="14" font-weight="700" lengthAdjust="spacing" textLength="382.334" x="1500.8759" y="34.5332">Flow &#8212; Document Optimization  (TextOptimizer.optimize)</text></g><rect fill="#FFFFCC" height="18.0566" rx="2.5" ry="2.5" style="stroke:#FFDD88;stroke-width:3;" width="3355.0857" x="13" y="51.6094"/><text fill="#000000" font-family="monospace" font-size="10" lengthAdjust="spacing" textLength="534.0869" x="20" y="63.666">This&#160;syntax&#160;is&#160;deprecated,&#160;you&#160;must&#160;add&#160;&lt;&lt;#D6E8FF&gt;&gt;&#160;at&#160;the&#160;end&#160;of&#160;the&#160;line,&#160;after&#160;the&#160;';'</text><rect fill="none" height="22.6406" style="stroke:none;stroke-width:1;" width="3339.0857" x="20" y="79.1211"/><rect fill="#F4F7FB" height="1518.7344" style="stroke:#F4F7FB;stroke-width:1;" width="250.1191" x="20" y="79.1211"/><ellipse cx="146.0596" cy="116.7617" fill="#222222" rx="10" ry="10" style="stroke:#222222;stroke-width:1;"/><rect fill="#FDFDFD" height="50.1875" rx="12.5" ry="12.5" style="stroke:#35506E;stroke-width:0.5;" width="181.3906" x="55.3643" y="146.7617"/><text fill="#000000" font-family="sans-serif" font-size="12" lengthAdjust="spacing" textLength="114.7383" x="65.3643" y="169.2188">read_document(path)</text><text fill="#000000" font-family="sans-serif" font-size="12" lengthAdjust="spacing" textLength="161.3906" x="65.3643" y="184.3125">.docx (python-docx) / .txt / .md</text><rect fill="#FDFDFD" height="50.1875" rx="12.5" ry="12.5" style="stroke:#35506E;stroke-width:0.5;" width="240.1191" x="26" y="216.9492"/><text fill="#000000" font-family="sans-serif" font-size="12" lengthAdjust="spacing" textLength="78.0117" x="36" y="239.4063">TextOptimizer.</text><text fill="#000000" font-family="sans-serif" font-size="12" lengthAdjust="spacing" text-decoration="underline" textLength="44.6953" x="114.0117" y="239.4063">post_init</text><text fill="#000000" font-family="sans-serif" font-size="12" lengthAdjust="spacing" textLength="220.1191" x="36" y="254.5">build ClaudeClient only if API key present</text><line style="stroke:#000000;stroke-width:1.5;" x1="20" x2="20" y1="79.1211" y2="1597.8555"/><polygon fill="#FFF4D6" points="514.0935,287.1367,575.845,287.1367,587.845,299.1367,575.845,311.1367,514.0935,311.1367,502.0935,299.1367,514.0935,287.1367" style="stroke:#B8860B;stroke-width:0.5;stroke-linejoin:miter;stroke-miterlimit:10;"/><text fill="#000000" font-family="sans-serif" font-size="11" lengthAdjust="spacing" textLength="61.7515" x="514.0935" y="303.6377">API key set?</text><text fill="#000000" font-family="sans-serif" font-size="11" lengthAdjust="spacing" textLength="17.1177" x="484.9758" y="296.7197">yes</text><text fill="#000000" font-family="sans-serif" font-size="11" lengthAdjust="spacing" textLength="12.2354" x="587.845" y="296.7197">no</text><rect fill="#FDFDFD" height="50.1875" rx="12.5" ry="12.5" style="stroke:#35506E;stroke-width:0.5;" width="202.7539" x="276.1191" y="321.1367"/><text fill="#000000" font-family="sans-serif" font-size="12" lengthAdjust="spacing" textLength="182.7539" x="286.1191" y="343.5938">RAW tokens via API count_tokens</text><text fill="#000000" font-family="sans-serif" font-size="12" lengthAdjust="spacing" textLength="105.7441" x="286.1191" y="358.6875">token_method = api</text><polygon fill="#FFF4D6" points="668.7217,321.1367,756.1631,321.1367,768.1631,333.1367,756.1631,345.1367,668.7217,345.1367,656.7217,333.1367,668.7217,321.1367" style="stroke:#B8860B;stroke-width:0.5;stroke-linejoin:miter;stroke-miterlimit:10;"/><text fill="#000000" font-family="sans-serif" font-size="11" lengthAdjust="spacing" textLength="87.4414" x="668.7217" y="337.6377">tiktoken installed?</text><text fill="#000000" font-family="sans-serif" font-size="11" lengthAdjust="spacing" textLength="17.1177" x="639.604" y="330.7197">yes</text><text fill="#000000" font-family="sans-serif" font-size="11" lengthAdjust="spacing" textLength="12.2354" x="768.1631" y="330.7197">no</text><rect fill="#FDFDFD" height="50.1875" rx="12.5" ry="12.5" style="stroke:#35506E;stroke-width:0.5;" width="188.0703" x="508.873" y="355.1367"/><text fill="#000000" font-family="sans-serif" font-size="12" lengthAdjust="spacing" textLength="168.0703" x="518.873" y="377.5938">RAW tokens via tiktoken cl100k</text><text fill="#000000" font-family="sans-serif" font-size="12" lengthAdjust="spacing" textLength="131.0859" x="518.873" y="392.6875">token_method = tiktoken</text><rect fill="#FDFDFD" height="50.1875" rx="12.5" ry="12.5" style="stroke:#35506E;stroke-width:0.5;" width="210.0664" x="716.9434" y="355.1367"/><text fill="#000000" font-family="sans-serif" font-size="12" lengthAdjust="spacing" textLength="190.0664" x="726.9434" y="377.5938">RAW tokens via char/word estimate</text><text fill="#000000" font-family="sans-serif" font-size="12" lengthAdjust="spacing" textLength="135.082" x="726.9434" y="392.6875">token_method = estimate</text><line style="stroke:#000000;stroke-width:1.5;" x1="270.1191" x2="270.1191" y1="79.1211" y2="1597.8555"/><rect fill="#EAF3EA" height="1518.7344" style="stroke:#EAF3EA;stroke-width:1;" width="480.1387" x="931.0098" y="79.1211"/><rect fill="#FDFDFD" height="50.1875" rx="12.5" ry="12.5" style="stroke:#35506E;stroke-width:0.5;" width="207.752" x="958.8564" y="461.3242"/><text fill="#000000" font-family="sans-serif" font-size="12" lengthAdjust="spacing" textLength="108.7207" x="968.8564" y="483.7813">normalize_unicode()</text><text fill="#000000" font-family="sans-serif" font-size="12" lengthAdjust="spacing" textLength="187.752" x="968.8564" y="498.875">fancy Unicode -&gt; ASCII, drop emoji</text><rect fill="#FDFDFD" height="50.1875" rx="12.5" ry="12.5" style="stroke:#35506E;stroke-width:0.5;" width="251.4453" x="937.0098" y="531.5117"/><text fill="#000000" font-family="sans-serif" font-size="12" lengthAdjust="spacing" textLength="92.707" x="947.0098" y="553.9688">strip_boilerplate()</text><text fill="#000000" font-family="sans-serif" font-size="12" lengthAdjust="spacing" textLength="231.4453" x="947.0098" y="569.0625">page numbers, headers/footers, rules, TOC</text><rect fill="#FDFDFD" height="50.1875" rx="12.5" ry="12.5" style="stroke:#35506E;stroke-width:0.5;" width="232.8125" x="946.3262" y="601.6992"/><text fill="#000000" font-family="sans-serif" font-size="12" lengthAdjust="spacing" textLength="120.7441" x="956.3262" y="624.1563">collapse_punctuation()</text><text fill="#000000" font-family="sans-serif" font-size="12" lengthAdjust="spacing" textLength="212.8125" x="956.3262" y="639.25">decorative/repeated punctuation, bullets</text><rect fill="#FDFDFD" height="50.1875" rx="12.5" ry="12.5" style="stroke:#35506E;stroke-width:0.5;" width="217.1094" x="954.1777" y="671.8867"/><text fill="#000000" font-family="sans-serif" font-size="12" lengthAdjust="spacing" textLength="94.0313" x="964.1777" y="694.3438">substitute_fillers()</text><text fill="#000000" font-family="sans-serif" font-size="12" lengthAdjust="spacing" textLength="197.1094" x="964.1777" y="709.4375">verbose phrases -&gt; short equivalents</text><path d="M1182.7852,745.8164 L1182.7852,763.168 L1162.7852,767.168 L1182.7852,771.168 L1182.7852,788.5195 A0,0 0 0 0 1182.7852,788.5195 L1406.1484,788.5195 A0,0 0 0 0 1406.1484,788.5195 L1406.1484,755.8164 L1396.1484,745.8164 L1182.7852,745.8164 A0,0 0 0 0 1182.7852,745.8164" fill="#FEFFDD" style="stroke:#181818;stroke-width:0.5;"/><path d="M1396.1484,745.8164 L1396.1484,755.8164 L1406.1484,755.8164 L1396.1484,745.8164" fill="#FEFFDD" style="stroke:#181818;stroke-width:0.5;"/><text fill="#000000" font-family="sans-serif" font-size="13" lengthAdjust="spacing" textLength="151.0107" x="1188.7852" y="764.3115">reduce_text() records only</text><text fill="#000000" font-family="sans-serif" font-size="13" lengthAdjust="spacing" textLength="202.3633" x="1188.7852" y="780.6631">the stages that changed something</text><rect fill="#FDFDFD" height="50.1875" rx="12.5" ry="12.5" style="stroke:#35506E;stroke-width:0.5;" width="200.1055" x="962.6797" y="742.0742"/><text fill="#000000" font-family="sans-serif" font-size="12" lengthAdjust="spacing" textLength="115.418" x="972.6797" y="764.5313">dedupe_paragraphs()</text><text fill="#000000" font-family="sans-serif" font-size="12" lengthAdjust="spacing" textLength="180.1055" x="972.6797" y="779.625">near-duplicate paragraph removal</text><line style="stroke:#000000;stroke-width:1.5;" x1="931.0098" x2="931.0098" y1="79.1211" y2="1597.8555"/><rect fill="#EAF3EA" height="1518.7344" style="stroke:#EAF3EA;stroke-width:1;" width="570.5537" x="1411.1484" y="79.1211"/><path d="M1743.2969,823.5508 L1743.2969,840.9023 L1723.2969,844.9023 L1743.2969,848.9023 L1743.2969,866.2539 A0,0 0 0 0 1743.2969,866.2539 L1976.7021,866.2539 A0,0 0 0 0 1976.7021,866.2539 L1976.7021,833.5508 L1966.7021,823.5508 L1743.2969,823.5508 A0,0 0 0 0 1743.2969,823.5508" fill="#FEFFDD" style="stroke:#181818;stroke-width:0.5;"/><path d="M1966.7021,823.5508 L1966.7021,833.5508 L1976.7021,833.5508 L1966.7021,823.5508" fill="#FEFFDD" style="stroke:#181818;stroke-width:0.5;"/><text fill="#000000" font-family="sans-serif" font-size="13" lengthAdjust="spacing" textLength="212.4053" x="1749.2969" y="842.0459">runs BEFORE summary so duplicate</text><text fill="#000000" font-family="sans-serif" font-size="13" lengthAdjust="spacing" textLength="193.2354" x="1749.2969" y="858.3975">lines can't dominate the summary</text><rect fill="#FDFDFD" height="65.2813" rx="12.5" ry="12.5" style="stroke:#35506E;stroke-width:0.5;" width="306.1484" x="1417.1484" y="812.2617"/><text fill="#000000" font-family="sans-serif" font-size="12" lengthAdjust="spacing" textLength="96.6973" x="1427.1484" y="834.7188">compress_prose()</text><text fill="#000000" font-family="sans-serif" font-size="12" lengthAdjust="spacing" textLength="249.4805" x="1427.1484" y="849.8125">collapse whitespace runs, squeeze blank lines,</text><text fill="#000000" font-family="sans-serif" font-size="12" lengthAdjust="spacing" textLength="286.1484" x="1427.1484" y="864.9063">dedupe verbatim lines, head/tail truncate (max_chars)</text><line style="stroke:#000000;stroke-width:1.5;" x1="1411.1484" x2="1411.1484" y1="79.1211" y2="1597.8555"/><rect fill="#FDF3E7" height="1518.7344" style="stroke:#FDF3E7;stroke-width:1;" width="801.301" x="1981.7021" y="79.1211"/><polygon fill="#FFF4D6" points="2459.0464,897.543,2570.9316,897.543,2582.9316,909.543,2570.9316,921.543,2459.0464,921.543,2447.0464,909.543,2459.0464,897.543" style="stroke:#B8860B;stroke-width:0.5;stroke-linejoin:miter;stroke-miterlimit:10;"/><text fill="#000000" font-family="sans-serif" font-size="11" lengthAdjust="spacing" textLength="111.8853" x="2459.0464" y="914.0439">summarize requested?</text><text fill="#000000" font-family="sans-serif" font-size="11" lengthAdjust="spacing" textLength="17.1177" x="2429.9287" y="907.126">yes</text><text fill="#000000" font-family="sans-serif" font-size="11" lengthAdjust="spacing" textLength="12.2354" x="2582.9316" y="907.126">no</text><polygon fill="#FFF4D6" points="2022.3333,956.543,2138.5046,956.543,2150.5046,968.543,2138.5046,980.543,2022.3333,980.543,2010.3333,968.543,2022.3333,956.543" style="stroke:#B8860B;stroke-width:0.5;stroke-linejoin:miter;stroke-miterlimit:10;"/><text fill="#000000" font-family="sans-serif" font-size="11" lengthAdjust="spacing" textLength="17.1177" x="2084.4189" y="991.9619">yes</text><text fill="#000000" font-family="sans-serif" font-size="11" lengthAdjust="spacing" textLength="116.1714" x="2022.3333" y="973.0439">ClaudeClient / API key?</text><rect fill="#FDFDFD" height="50.1875" rx="12.5" ry="12.5" style="stroke:#35506E;stroke-width:0.5;" width="185.4336" x="1987.7021" y="1014.3789"/><text fill="#000000" font-family="sans-serif" font-size="12" lengthAdjust="spacing" textLength="124.7109" x="1997.7021" y="1036.8359">Claude Haiku summary</text><text fill="#000000" font-family="sans-serif" font-size="12" lengthAdjust="spacing" textLength="165.4336" x="1997.7021" y="1051.9297">low effort, adaptive_thinking off</text><rect fill="#FDFDFD" height="35.0938" rx="12.5" ry="12.5" style="stroke:#35506E;stroke-width:0.5;" width="135.043" x="2012.8975" y="1088.1953"/><text fill="#000000" font-family="sans-serif" font-size="12" lengthAdjust="spacing" textLength="115.043" x="2022.8975" y="1110.6523">summary_tier = haiku</text><polygon fill="#FFF4D6" points="2205.1357,956.543,2359.2163,956.543,2371.2163,968.543,2359.2163,980.543,2205.1357,980.543,2193.1357,968.543,2205.1357,956.543" style="stroke:#B8860B;stroke-width:0.5;stroke-linejoin:miter;stroke-miterlimit:10;"/><text fill="#000000" font-family="sans-serif" font-size="11" lengthAdjust="spacing" textLength="17.1177" x="2286.176" y="991.9619">yes</text><text fill="#000000" font-family="sans-serif" font-size="11" lengthAdjust="spacing" textLength="154.0806" x="2205.1357" y="973.0439">local Ollama model configured?</text><text fill="#000000" font-family="sans-serif" font-size="11" lengthAdjust="spacing" textLength="86.8291" x="2371.2163" y="966.126">no key / no model</text><rect fill="#FDFDFD" height="50.1875" rx="12.5" ry="12.5" style="stroke:#35506E;stroke-width:0.5;" width="195.3887" x="2184.4817" y="1014.3789"/><text fill="#000000" font-family="sans-serif" font-size="12" lengthAdjust="spacing" textLength="175.3887" x="2194.4817" y="1036.8359">local-model abstractive summary</text><text fill="#000000" font-family="sans-serif" font-size="12" lengthAdjust="spacing" textLength="92.0508" x="2194.4817" y="1051.9297">(no cloud tokens)</text><rect fill="#FDFDFD" height="35.0938" rx="12.5" ry="12.5" style="stroke:#35506E;stroke-width:0.5;" width="167.7148" x="2198.3186" y="1088.1953"/><text fill="#000000" font-family="sans-serif" font-size="12" lengthAdjust="spacing" textLength="147.7148" x="2208.3186" y="1110.6523">summary_tier = local-model</text><rect fill="#FDFDFD" height="65.2813" rx="12.5" ry="12.5" style="stroke:#35506E;stroke-width:0.5;" width="236.082" x="2399.8704" y="1002.9141"/><text fill="#000000" font-family="sans-serif" font-size="12" lengthAdjust="spacing" textLength="115.3535" x="2409.8704" y="1025.3711">extractive_summary()</text><text fill="#000000" font-family="sans-serif" font-size="12" lengthAdjust="spacing" textLength="169.4063" x="2409.8704" y="1040.4648">TextRank-style, entity-anchored</text><text fill="#000000" font-family="sans-serif" font-size="12" lengthAdjust="spacing" textLength="216.082" x="2409.8704" y="1055.5586">(keeps error codes, versions, IDs, paths)</text><rect fill="#FDFDFD" height="35.0938" rx="12.5" ry="12.5" style="stroke:#35506E;stroke-width:0.5;" width="157.707" x="2439.0579" y="1091.8242"/><text fill="#000000" font-family="sans-serif" font-size="12" lengthAdjust="spacing" textLength="137.707" x="2449.0579" y="1114.2813">summary_tier = extractive</text><rect fill="#FDFDFD" height="35.0938" rx="12.5" ry="12.5" style="stroke:#35506E;stroke-width:0.5;" width="133.0508" x="2645.9524" y="931.543"/><text fill="#000000" font-family="sans-serif" font-size="12" lengthAdjust="spacing" textLength="113.0508" x="2655.9524" y="954">summary_tier = none</text><line style="stroke:#000000;stroke-width:1.5;" x1="1981.7021" x2="1981.7021" y1="79.1211" y2="1597.8555"/><rect fill="#FDFDFD" height="50.1875" rx="12.5" ry="12.5" style="stroke:#35506E;stroke-width:0.5;" width="205.1035" x="2837.51" y="1184.918"/><text fill="#000000" font-family="sans-serif" font-size="12" lengthAdjust="spacing" textLength="122.0449" x="2847.51" y="1207.375">final compress_prose()</text><text fill="#000000" font-family="sans-serif" font-size="12" lengthAdjust="spacing" textLength="185.1035" x="2847.51" y="1222.4688">tidy whitespace + enforce char cap</text><rect fill="#FDFDFD" height="35.0938" rx="12.5" ry="12.5" style="stroke:#35506E;stroke-width:0.5;" width="240.7402" x="2819.6917" y="1255.1055"/><text fill="#000000" font-family="sans-serif" font-size="12" lengthAdjust="spacing" textLength="220.7402" x="2829.6917" y="1277.5625">count OPTIMIZED tokens (same method)</text><rect fill="#FDFDFD" height="35.0938" rx="12.5" ry="12.5" style="stroke:#35506E;stroke-width:0.5;" width="174.7227" x="2852.7004" y="1310.1992"/><text fill="#000000" font-family="sans-serif" font-size="12" lengthAdjust="spacing" textLength="154.7227" x="2862.7004" y="1332.6563">estimate_cost() (0.0 if offline)</text><rect fill="#FDFDFD" height="65.2813" rx="12.5" ry="12.5" style="stroke:#35506E;stroke-width:0.5;" width="302.1172" x="2789.0032" y="1365.293"/><text fill="#000000" font-family="sans-serif" font-size="12" lengthAdjust="spacing" textLength="124.043" x="2799.0032" y="1387.75">TextOptimizationResult</text><text fill="#000000" font-family="sans-serif" font-size="12" lengthAdjust="spacing" textLength="256.7871" x="2799.0032" y="1402.8438">raw vs optimized &#183; tokens_saved &#183; reduction_pct</text><text fill="#000000" font-family="sans-serif" font-size="12" lengthAdjust="spacing" textLength="282.1172" x="2799.0032" y="1417.9375">stages &#183; summary_tier &#183; token_method &#183; duration_ms</text><line style="stroke:#000000;stroke-width:1.5;" x1="2783.0032" x2="2783.0032" y1="79.1211" y2="1597.8555"/><rect fill="#FDFDFD" height="50.1875" rx="12.5" ry="12.5" style="stroke:#35506E;stroke-width:0.5;" width="218.4336" x="3118.136" y="1450.5742"/><text fill="#000000" font-family="sans-serif" font-size="12" lengthAdjust="spacing" textLength="198.4336" x="3128.136" y="1473.0313">write_output() -&gt; optimized_output.txt</text><text fill="#000000" font-family="sans-serif" font-size="12" lengthAdjust="spacing" textLength="161.7422" x="3128.136" y="1488.125">(stats header + optimized text)</text><rect fill="#FDFDFD" height="35.0938" rx="12.5" ry="12.5" style="stroke:#35506E;stroke-width:0.5;" width="252.4648" x="3101.1204" y="1520.7617"/><text fill="#000000" font-family="sans-serif" font-size="12" lengthAdjust="spacing" textLength="232.4648" x="3111.1204" y="1543.2188">log_run() -&gt; logs/&lt;run_id&gt;_optimize-doc.log</text><ellipse cx="3227.3528" cy="1586.8555" fill="none" rx="11" ry="11" style="stroke:#222222;stroke-width:1;"/><ellipse cx="3227.3528" cy="1586.8555" fill="#222222" rx="6" ry="6" style="stroke:#222222;stroke-width:1;"/><line style="stroke:#000000;stroke-width:1.5;" x1="3095.1204" x2="3095.1204" y1="79.1211" y2="1597.8555"/><line style="stroke:#000000;stroke-width:1.5;" x1="3357.5852" x2="3357.5852" y1="79.1211" y2="1597.8555"/><line style="stroke:#35506E;stroke-width:1;" x1="146.0596" x2="146.0596" y1="126.7617" y2="146.7617"/><polygon fill="#35506E" points="142.0596,136.7617,146.0596,146.7617,150.0596,136.7617,146.0596,140.7617" style="stroke:#35506E;stroke-width:1;stroke-linejoin:miter;stroke-miterlimit:10;"/><line style="stroke:#35506E;stroke-width:1;" x1="146.0596" x2="146.0596" y1="196.9492" y2="216.9492"/><polygon fill="#35506E" points="142.0596,206.9492,146.0596,216.9492,150.0596,206.9492,146.0596,210.9492" style="stroke:#35506E;stroke-width:1;stroke-linejoin:miter;stroke-miterlimit:10;"/><line style="stroke:#35506E;stroke-width:1;" x1="656.7217" x2="602.9082" y1="333.1367" y2="333.1367"/><line style="stroke:#35506E;stroke-width:1;" x1="602.9082" x2="602.9082" y1="333.1367" y2="355.1367"/><polygon fill="#35506E" points="598.9082,345.1367,602.9082,355.1367,606.9082,345.1367,602.9082,349.1367" style="stroke:#35506E;stroke-width:1;stroke-linejoin:miter;stroke-miterlimit:10;"/><line style="stroke:#35506E;stroke-width:1;" x1="768.1631" x2="821.9766" y1="333.1367" y2="333.1367"/><line style="stroke:#35506E;stroke-width:1;" x1="821.9766" x2="821.9766" y1="333.1367" y2="355.1367"/><polygon fill="#35506E" points="817.9766,345.1367,821.9766,355.1367,825.9766,345.1367,821.9766,349.1367" style="stroke:#35506E;stroke-width:1;stroke-linejoin:miter;stroke-miterlimit:10;"/><line style="stroke:#35506E;stroke-width:1;" x1="602.9082" x2="602.9082" y1="405.3242" y2="423.3242"/><polygon fill="#35506E" points="598.9082,413.3242,602.9082,423.3242,606.9082,413.3242,602.9082,417.3242" style="stroke:#35506E;stroke-width:1;stroke-linejoin:miter;stroke-miterlimit:10;"/><line style="stroke:#35506E;stroke-width:1;" x1="821.9766" x2="821.9766" y1="405.3242" y2="423.3242"/><polygon fill="#35506E" points="817.9766,413.3242,821.9766,423.3242,825.9766,413.3242,821.9766,417.3242" style="stroke:#35506E;stroke-width:1;stroke-linejoin:miter;stroke-miterlimit:10;"/><line style="stroke:#35506E;stroke-width:1;" x1="602.9082" x2="821.9766" y1="423.3242" y2="423.3242"/><line style="stroke:#35506E;stroke-width:1;" x1="502.0935" x2="377.4961" y1="299.1367" y2="299.1367"/><line style="stroke:#35506E;stroke-width:1;" x1="377.4961" x2="377.4961" y1="299.1367" y2="321.1367"/><polygon fill="#35506E" points="373.4961,311.1367,377.4961,321.1367,381.4961,311.1367,377.4961,315.1367" style="stroke:#35506E;stroke-width:1;stroke-linejoin:miter;stroke-miterlimit:10;"/><line style="stroke:#35506E;stroke-width:1;" x1="587.845" x2="712.4424" y1="299.1367" y2="299.1367"/><line style="stroke:#35506E;stroke-width:1;" x1="712.4424" x2="712.4424" y1="299.1367" y2="321.1367"/><polygon fill="#35506E" points="708.4424,311.1367,712.4424,321.1367,716.4424,311.1367,712.4424,315.1367" style="stroke:#35506E;stroke-width:1;stroke-linejoin:miter;stroke-miterlimit:10;"/><line style="stroke:#35506E;stroke-width:1;" x1="377.4961" x2="377.4961" y1="371.3242" y2="441.3242"/><polygon fill="#35506E" points="373.4961,431.3242,377.4961,441.3242,381.4961,431.3242,377.4961,435.3242" style="stroke:#35506E;stroke-width:1;stroke-linejoin:miter;stroke-miterlimit:10;"/><line style="stroke:#35506E;stroke-width:1;" x1="712.4424" x2="712.4424" y1="423.3242" y2="441.3242"/><polygon fill="#35506E" points="708.4424,431.3242,712.4424,441.3242,716.4424,431.3242,712.4424,435.3242" style="stroke:#35506E;stroke-width:1;stroke-linejoin:miter;stroke-miterlimit:10;"/><line style="stroke:#35506E;stroke-width:1;" x1="377.4961" x2="712.4424" y1="441.3242" y2="441.3242"/><line style="stroke:#35506E;stroke-width:1;" x1="1062.7324" x2="1062.7324" y1="511.5117" y2="531.5117"/><polygon fill="#35506E" points="1058.7324,521.5117,1062.7324,531.5117,1066.7324,521.5117,1062.7324,525.5117" style="stroke:#35506E;stroke-width:1;stroke-linejoin:miter;stroke-miterlimit:10;"/><line style="stroke:#35506E;stroke-width:1;" x1="1062.7324" x2="1062.7324" y1="581.6992" y2="601.6992"/><polygon fill="#35506E" points="1058.7324,591.6992,1062.7324,601.6992,1066.7324,591.6992,1062.7324,595.6992" style="stroke:#35506E;stroke-width:1;stroke-linejoin:miter;stroke-miterlimit:10;"/><line style="stroke:#35506E;stroke-width:1;" x1="1062.7324" x2="1062.7324" y1="651.8867" y2="671.8867"/><polygon fill="#35506E" points="1058.7324,661.8867,1062.7324,671.8867,1066.7324,661.8867,1062.7324,665.8867" style="stroke:#35506E;stroke-width:1;stroke-linejoin:miter;stroke-miterlimit:10;"/><line style="stroke:#35506E;stroke-width:1;" x1="1062.7324" x2="1062.7324" y1="722.0742" y2="742.0742"/><polygon fill="#35506E" points="1058.7324,732.0742,1062.7324,742.0742,1066.7324,732.0742,1062.7324,736.0742" style="stroke:#35506E;stroke-width:1;stroke-linejoin:miter;stroke-miterlimit:10;"/><line style="stroke:#35506E;stroke-width:1;" x1="2080.4189" x2="2080.4189" y1="1064.5664" y2="1088.1953"/><polygon fill="#35506E" points="2076.4189,1078.1953,2080.4189,1088.1953,2084.4189,1078.1953,2080.4189,1082.1953" style="stroke:#35506E;stroke-width:1;stroke-linejoin:miter;stroke-miterlimit:10;"/><line style="stroke:#35506E;stroke-width:1;" x1="2282.176" x2="2282.176" y1="1064.5664" y2="1088.1953"/><polygon fill="#35506E" points="2278.176,1078.1953,2282.176,1088.1953,2286.176,1078.1953,2282.176,1082.1953" style="stroke:#35506E;stroke-width:1;stroke-linejoin:miter;stroke-miterlimit:10;"/><line style="stroke:#35506E;stroke-width:1;" x1="2517.9114" x2="2517.9114" y1="1068.1953" y2="1091.8242"/><polygon fill="#35506E" points="2513.9114,1081.8242,2517.9114,1091.8242,2521.9114,1081.8242,2517.9114,1085.8242" style="stroke:#35506E;stroke-width:1;stroke-linejoin:miter;stroke-miterlimit:10;"/><line style="stroke:#35506E;stroke-width:1;" x1="2080.4189" x2="2080.4189" y1="980.543" y2="1014.3789"/><polygon fill="#35506E" points="2076.4189,1004.3789,2080.4189,1014.3789,2084.4189,1004.3789,2080.4189,1008.3789" style="stroke:#35506E;stroke-width:1;stroke-linejoin:miter;stroke-miterlimit:10;"/><line style="stroke:#35506E;stroke-width:1;" x1="2080.4189" x2="2080.4189" y1="1123.2891" y2="1146.918"/><polygon fill="#35506E" points="2076.4189,1136.918,2080.4189,1146.918,2084.4189,1136.918,2080.4189,1140.918" style="stroke:#35506E;stroke-width:1;stroke-linejoin:miter;stroke-miterlimit:10;"/><line style="stroke:#35506E;stroke-width:1;" x1="2282.176" x2="2282.176" y1="980.543" y2="1014.3789"/><polygon fill="#35506E" points="2278.176,1004.3789,2282.176,1014.3789,2286.176,1004.3789,2282.176,1008.3789" style="stroke:#35506E;stroke-width:1;stroke-linejoin:miter;stroke-miterlimit:10;"/><line style="stroke:#35506E;stroke-width:1;" x1="2282.176" x2="2282.176" y1="1123.2891" y2="1146.918"/><polygon fill="#35506E" points="2278.176,1136.918,2282.176,1146.918,2286.176,1136.918,2282.176,1140.918" style="stroke:#35506E;stroke-width:1;stroke-linejoin:miter;stroke-miterlimit:10;"/><line style="stroke:#35506E;stroke-width:1;" x1="2150.5046" x2="2193.1357" y1="968.543" y2="968.543"/><polygon fill="#35506E" points="2183.1357,964.543,2193.1357,968.543,2183.1357,972.543,2187.1357,968.543" style="stroke:#35506E;stroke-width:1;stroke-linejoin:miter;stroke-miterlimit:10;"/><line style="stroke:#35506E;stroke-width:1;" x1="2447.0464" x2="2080.4189" y1="909.543" y2="909.543"/><line style="stroke:#35506E;stroke-width:1;" x1="2080.4189" x2="2080.4189" y1="909.543" y2="956.543"/><polygon fill="#35506E" points="2076.4189,946.543,2080.4189,956.543,2084.4189,946.543,2080.4189,950.543" style="stroke:#35506E;stroke-width:1;stroke-linejoin:miter;stroke-miterlimit:10;"/><line style="stroke:#35506E;stroke-width:1;" x1="2371.2163" x2="2517.9114" y1="968.543" y2="968.543"/><line style="stroke:#35506E;stroke-width:1;" x1="2517.9114" x2="2517.9114" y1="968.543" y2="1002.9141"/><polygon fill="#35506E" points="2513.9114,992.9141,2517.9114,1002.9141,2521.9114,992.9141,2517.9114,996.9141" style="stroke:#35506E;stroke-width:1;stroke-linejoin:miter;stroke-miterlimit:10;"/><line style="stroke:#35506E;stroke-width:1;" x1="2517.9114" x2="2517.9114" y1="1126.918" y2="1146.918"/><polygon fill="#35506E" points="2513.9114,1136.918,2517.9114,1146.918,2521.9114,1136.918,2517.9114,1140.918" style="stroke:#35506E;stroke-width:1;stroke-linejoin:miter;stroke-miterlimit:10;"/><line style="stroke:#35506E;stroke-width:1;" x1="2080.4189" x2="2517.9114" y1="1146.918" y2="1146.918"/><line style="stroke:#35506E;stroke-width:1;" x1="2582.9316" x2="2712.4778" y1="909.543" y2="909.543"/><line style="stroke:#35506E;stroke-width:1;" x1="2712.4778" x2="2712.4778" y1="909.543" y2="931.543"/><polygon fill="#35506E" points="2708.4778,921.543,2712.4778,931.543,2716.4778,921.543,2712.4778,925.543" style="stroke:#35506E;stroke-width:1;stroke-linejoin:miter;stroke-miterlimit:10;"/><line style="stroke:#35506E;stroke-width:1;" x1="2307.5002" x2="2307.5002" y1="1146.918" y2="1164.918"/><polygon fill="#35506E" points="2303.5002,1154.918,2307.5002,1164.918,2311.5002,1154.918,2307.5002,1158.918" style="stroke:#35506E;stroke-width:1;stroke-linejoin:miter;stroke-miterlimit:10;"/><line style="stroke:#35506E;stroke-width:1;" x1="2712.4778" x2="2712.4778" y1="966.6367" y2="1164.918"/><polygon fill="#35506E" points="2708.4778,1154.918,2712.4778,1164.918,2716.4778,1154.918,2712.4778,1158.918" style="stroke:#35506E;stroke-width:1;stroke-linejoin:miter;stroke-miterlimit:10;"/><line style="stroke:#35506E;stroke-width:1;" x1="2307.5002" x2="2712.4778" y1="1164.918" y2="1164.918"/><line style="stroke:#35506E;stroke-width:1;" x1="2940.0618" x2="2940.0618" y1="1235.1055" y2="1255.1055"/><polygon fill="#35506E" points="2936.0618,1245.1055,2940.0618,1255.1055,2944.0618,1245.1055,2940.0618,1249.1055" style="stroke:#35506E;stroke-width:1;stroke-linejoin:miter;stroke-miterlimit:10;"/><line style="stroke:#35506E;stroke-width:1;" x1="2940.0618" x2="2940.0618" y1="1290.1992" y2="1310.1992"/><polygon fill="#35506E" points="2936.0618,1300.1992,2940.0618,1310.1992,2944.0618,1300.1992,2940.0618,1304.1992" style="stroke:#35506E;stroke-width:1;stroke-linejoin:miter;stroke-miterlimit:10;"/><line style="stroke:#35506E;stroke-width:1;" x1="2940.0618" x2="2940.0618" y1="1345.293" y2="1365.293"/><polygon fill="#35506E" points="2936.0618,1355.293,2940.0618,1365.293,2944.0618,1355.293,2940.0618,1359.293" style="stroke:#35506E;stroke-width:1;stroke-linejoin:miter;stroke-miterlimit:10;"/><line style="stroke:#35506E;stroke-width:1;" x1="3227.3528" x2="3227.3528" y1="1500.7617" y2="1520.7617"/><polygon fill="#35506E" points="3223.3528,1510.7617,3227.3528,1520.7617,3231.3528,1510.7617,3227.3528,1514.7617" style="stroke:#35506E;stroke-width:1;stroke-linejoin:miter;stroke-miterlimit:10;"/><line style="stroke:#35506E;stroke-width:1;" x1="3227.3528" x2="3227.3528" y1="1555.8555" y2="1575.8555"/><polygon fill="#35506E" points="3223.3528,1565.8555,3227.3528,1575.8555,3231.3528,1565.8555,3227.3528,1569.8555" style="stroke:#35506E;stroke-width:1;stroke-linejoin:miter;stroke-miterlimit:10;"/><line style="stroke:#35506E;stroke-width:1;" x1="146.0596" x2="146.0596" y1="267.1367" y2="272.1367"/><line style="stroke:#35506E;stroke-width:1;" x1="146.0596" x2="544.9692" y1="272.1367" y2="272.1367"/><line style="stroke:#35506E;stroke-width:1;" x1="544.9692" x2="544.9692" y1="272.1367" y2="287.1367"/><polygon fill="#35506E" points="540.9692,277.1367,544.9692,287.1367,548.9692,277.1367,544.9692,281.1367" style="stroke:#35506E;stroke-width:1;stroke-linejoin:miter;stroke-miterlimit:10;"/><line style="stroke:#35506E;stroke-width:1;" x1="544.9692" x2="544.9692" y1="441.3242" y2="446.3242"/><line style="stroke:#35506E;stroke-width:1;" x1="544.9692" x2="1062.7324" y1="446.3242" y2="446.3242"/><line style="stroke:#35506E;stroke-width:1;" x1="1062.7324" x2="1062.7324" y1="446.3242" y2="461.3242"/><polygon fill="#35506E" points="1058.7324,451.3242,1062.7324,461.3242,1066.7324,451.3242,1062.7324,455.3242" style="stroke:#35506E;stroke-width:1;stroke-linejoin:miter;stroke-miterlimit:10;"/><line style="stroke:#35506E;stroke-width:1;" x1="1062.7324" x2="1062.7324" y1="792.2617" y2="797.2617"/><line style="stroke:#35506E;stroke-width:1;" x1="1062.7324" x2="1570.2227" y1="797.2617" y2="797.2617"/><line style="stroke:#35506E;stroke-width:1;" x1="1570.2227" x2="1570.2227" y1="797.2617" y2="812.2617"/><polygon fill="#35506E" points="1566.2227,802.2617,1570.2227,812.2617,1574.2227,802.2617,1570.2227,806.2617" style="stroke:#35506E;stroke-width:1;stroke-linejoin:miter;stroke-miterlimit:10;"/><line style="stroke:#35506E;stroke-width:1;" x1="1570.2227" x2="1570.2227" y1="877.543" y2="882.543"/><line style="stroke:#35506E;stroke-width:1;" x1="1570.2227" x2="2514.989" y1="882.543" y2="882.543"/><line style="stroke:#35506E;stroke-width:1;" x1="2514.989" x2="2514.989" y1="882.543" y2="897.543"/><polygon fill="#35506E" points="2510.989,887.543,2514.989,897.543,2518.989,887.543,2514.989,891.543" style="stroke:#35506E;stroke-width:1;stroke-linejoin:miter;stroke-miterlimit:10;"/><line style="stroke:#35506E;stroke-width:1;" x1="2514.989" x2="2514.989" y1="1164.918" y2="1169.918"/><line style="stroke:#35506E;stroke-width:1;" x1="2514.989" x2="2940.0618" y1="1169.918" y2="1169.918"/><line style="stroke:#35506E;stroke-width:1;" x1="2940.0618" x2="2940.0618" y1="1169.918" y2="1184.918"/><polygon fill="#35506E" points="2936.0618,1174.918,2940.0618,1184.918,2944.0618,1174.918,2940.0618,1178.918" style="stroke:#35506E;stroke-width:1;stroke-linejoin:miter;stroke-miterlimit:10;"/><line style="stroke:#35506E;stroke-width:1;" x1="2940.0618" x2="2940.0618" y1="1430.5742" y2="1435.5742"/><line style="stroke:#35506E;stroke-width:1;" x1="2940.0618" x2="3227.3528" y1="1435.5742" y2="1435.5742"/><line style="stroke:#35506E;stroke-width:1;" x1="3227.3528" x2="3227.3528" y1="1435.5742" y2="1450.5742"/><polygon fill="#35506E" points="3223.3528,1440.5742,3227.3528,1450.5742,3231.3528,1440.5742,3227.3528,1444.5742" style="stroke:#35506E;stroke-width:1;stroke-linejoin:miter;stroke-miterlimit:10;"/><text fill="#000000" font-family="sans-serif" font-size="18" lengthAdjust="spacing" textLength="40.0342" x="125.0425" y="97.8066">Input</text><text fill="#000000" font-family="sans-serif" font-size="18" lengthAdjust="spacing" textLength="132.0732" x="534.5278" y="97.8066">Count (baseline)</text><text fill="#000000" font-family="sans-serif" font-size="18" lengthAdjust="spacing" textLength="429.1699" x="956.4941" y="97.8066">Strategy 1 &#8212; deterministic reductions (offline, always)</text><text fill="#000000" font-family="sans-serif" font-size="18" lengthAdjust="spacing" textLength="359.1211" x="1516.8647" y="97.8066">Strategy 2 &#8212; compression (before summary)</text><text fill="#000000" font-family="sans-serif" font-size="18" lengthAdjust="spacing" textLength="374.0977" x="2195.3038" y="97.8066">Strategy 3 &#8212; summary (optional: --summarize)</text><text fill="#000000" font-family="sans-serif" font-size="18" lengthAdjust="spacing" textLength="62.0244" x="2908.0496" y="97.8066">Finalize</text><text fill="#000000" font-family="sans-serif" font-size="18" lengthAdjust="spacing" textLength="54.0352" x="3199.3352" y="97.8066">Output</text><?plantuml-src XLPRZjis5FtNAYwGZzYe7vCccGHscsB63zGVnGIJ50MA0GHQkhPOKwHAKlOudG9THFVI_owbA-aXBNayST32W2nUtlVZN3sdgSdgahMd8QqiStzbR4cUxpsPoijIVX9U6asLh5X9pTHfo3mCJ6bB7rJxNlASZfVAP485uYCfCsLbsRcdL6ysh0EjEqYyz8ffhioE_ldZpqVNRauzeSv766v8R0UjfcwIk8tKbR2Y95U8tEoaNjDAACSdDnEZSnaKpNJ-mUzXhmZ-dt28pCkjz7lwBI6w5jbcRKsjyubHnjAp-JJymesnETk6-lBrwulB6QXJAKfOE1URprzDBqyOJgMltxwzlBZ6vPMrPlTKvUz9yl1i_ch-PdxziD1LxHyIvuNroSYooDEyoL6d4hxetka12FVKgVQ-CBeV3brKTk3lGu47PJvEHa_JbwQLSJwLMleqlTFBMggS9ahKEK-K3DatMkr9hkZg_O8slATGHD37S6o223rrbiB59kW-9E3hj8oE_NTTyWLhwkpPTH7WwFRg9pgKdBPIH9rPK98UY7Sw_gSbm_-SlYLHoN72A25rj0aQWW4lDv6Df4OkbEBySpldbeuocNfnSR4vCzJUZo5zQkzSKrO8EzoXViGEMHIUpvIr5r4P-csL79uevUng_d9szV31Mzolz_GYjdhEdcs98a0m8yjvdOKUTHYtrIgajaT2xSJU8SKZZH4L2jLBQoqpatC7XLy9dUtfnmE1-k_ewiDaiUXHRar5N9fVaCUHyrPMwT98nRPIS218LcBDfEjooTRrg41NuMMuCiP7WgqLu-_ZpGGACgEKg1odLQqpNyU933fopWm2abiUMguOcdCwOUdHiaQPl0i-r4i4wMlFwKg2Q5rGi6MxDCXwLLWqami1kC9OJ_nhBRT2eU62S8xCLB2EGLrRKHLHLhEmVT2Lp62OZfV8OsaWEquqOY4hruKV7PBBQK2lJXSdE9wxsEGeOy64Zbh30Ly87qgjrmZ5cL1QmCcNAlXrh62BRW6YEai6Z49LNPR2xaFDskkqiWWpUDscadQ5zEmgaS75MYFLxjUQ-HFJKWczeL1zrmif3g5JI1HoMZRqMA-X5rAHXtHCGASKzsdeKjVzB7Ief-lP_EPsrlg6qEYOkZiTbL8cz7DFkK531dqnAmVs24PJnF_cCVwNCVvMNzmFHWiredx_G0pWV426unbvHv3EdqzkO7i2FyCMUBumumT6-bx8JTrwW22mFtY52dXCJIwgq9PfADycB0GCr3XAFvjUpjxEvwD6BlMIBMQt2CfQ50ZUn5L6DwXMAQZ4T2aKMw_akhPV19x8tpym2lIwZGk57_q3iW25J9qtgDBzJtzEr9rYKqJO8U4bNZMsqTIDkRHH4rej8FujUgdlmiBh0P8mWFi-40CZnZaysZ1NZXZhnr8043GM6YqqCzuMKpp2VlaVJn-Dd-3U2PH-pg-D1cUBZ7CqMm0r3CiglDBvo7YPxq_7vIiOGPdn5heTRLj5Y0exwURznyKFYvzdqnQvEqwKJ0U4HXYZ5gBJ3EiFGD2v65o4vclmjljqKKOKksLNAt-dhTZHrXq_ONBw-w_6Ikh4zd0-GdXQPH1fG0KNJtBG2hQR0-Uyjj5OMhgmOMzg7tV-Q6SHTchY4Uu27u_s6sfOyYWbJ7dNm3WozEXbGBmGbZBh54XmK8A36tw3OohpTsdB73uS1hWQurl3LCc_?></g></svg>