<svg xmlns="http://www.w3.org/2000/svg" xmlns:xlink="http://www.w3.org/1999/xlink" contentStyleType="text/css" data-diagram-type="ACTIVITY" height="1756px" preserveAspectRatio="none" style="width:1682px;height:1756px;background:#FFFFFF;" version="1.1" viewBox="0 0 1682 1756" width="1682px" zoomAndPan="magnify"><?plantuml 1.2026.6?><defs/><g><g class="title" data-source-line="3"><text fill="#000000" font-family="sans-serif" font-size="14" font-weight="700" lengthAdjust="spacing" textLength="465.9922" x="607.0969" y="34.5332">Flow &#8212; Automations  (connector -&gt; compress -&gt; optimized call -&gt; log)</text></g><rect fill="none" height="22.6406" style="stroke:none;stroke-width:1;" width="1635.186" x="20" y="56.0645"/><rect fill="#F4F7FB" height="1679.7461" style="stroke:#F4F7FB;stroke-width:1;" width="235.4063" x="20" y="56.0645"/><ellipse cx="138.7031" cy="93.7051" fill="#222222" rx="10" ry="10" style="stroke:#222222;stroke-width:1;"/><rect fill="#FDFDFD" height="35.0938" rx="12.5" ry="12.5" style="stroke:#35506E;stroke-width:0.5;" width="225.4063" x="26" y="123.7051"/><text fill="#000000" font-family="sans-serif" font-size="12" lengthAdjust="spacing" textLength="205.4063" x="36" y="146.1621">JiraConnector.search(jql, max_results)</text><rect fill="#FDFDFD" height="50.1875" rx="12.5" ry="12.5" style="stroke:#35506E;stroke-width:0.5;" width="179.041" x="49.1826" y="178.7988"/><text fill="#000000" font-family="sans-serif" font-size="12" lengthAdjust="spacing" textLength="159.041" x="59.1826" y="201.2559">system = _TRIAGE_SYSTEM</text><text fill="#000000" font-family="sans-serif" font-size="12" lengthAdjust="spacing" textLength="156.9023" x="59.1826" y="216.3496">task = "Triage N JIRA issues"</text><rect fill="#FDFDFD" height="35.0938" rx="12.5" ry="12.5" style="stroke:#35506E;stroke-width:0.5;" width="211.4023" x="33.002" y="248.9863"/><text fill="#000000" font-family="sans-serif" font-size="12" lengthAdjust="spacing" textLength="191.4023" x="43.002" y="271.4434">profile=jira_issue &#183; summarize=True</text><line style="stroke:#000000;stroke-width:1.5;" x1="20" x2="20" y1="56.0645" y2="1735.8105"/><rect fill="#F4F7FB" height="1679.7461" style="stroke:#F4F7FB;stroke-width:1;" width="349.1602" x="255.4063" y="56.0645"/><ellipse cx="430.9863" cy="304.0801" fill="#222222" rx="10" ry="10" style="stroke:#222222;stroke-width:1;"/><rect fill="#FDFDFD" height="50.1875" rx="12.5" ry="12.5" style="stroke:#35506E;stroke-width:0.5;" width="169.7891" x="346.0918" y="334.0801"/><text fill="#000000" font-family="sans-serif" font-size="12" lengthAdjust="spacing" textLength="96.0527" x="356.0918" y="356.5371">JenkinsConnector</text><text fill="#000000" font-family="sans-serif" font-size="12" lengthAdjust="spacing" textLength="149.7891" x="356.0918" y="371.6309">get_build + get_console_log</text><rect fill="#FDFDFD" height="50.1875" rx="12.5" ry="12.5" style="stroke:#35506E;stroke-width:0.5;" width="287.457" x="287.2578" y="404.2676"/><text fill="#000000" font-family="sans-serif" font-size="12" lengthAdjust="spacing" textLength="267.457" x="297.2578" y="426.7246">compress_text(log, max=8000, keep_errors=True)</text><text fill="#000000" font-family="sans-serif" font-size="12" lengthAdjust="spacing" textLength="192.7734" x="297.2578" y="441.8184">console logs are the worst offenders</text><rect fill="#FDFDFD" height="35.0938" rx="12.5" ry="12.5" style="stroke:#35506E;stroke-width:0.5;" width="203.627" x="329.1729" y="474.4551"/><text fill="#000000" font-family="sans-serif" font-size="12" lengthAdjust="spacing" textLength="183.627" x="339.1729" y="496.9121">build["console_log"] = compressed</text><rect fill="#FDFDFD" height="50.1875" rx="12.5" ry="12.5" style="stroke:#35506E;stroke-width:0.5;" width="339.1602" x="261.4063" y="529.5488"/><text fill="#000000" font-family="sans-serif" font-size="12" lengthAdjust="spacing" textLength="139.7051" x="271.4063" y="552.0059">system = _RCA_SYSTEM</text><text fill="#000000" font-family="sans-serif" font-size="12" lengthAdjust="spacing" textLength="319.1602" x="271.4063" y="567.0996">profile=jenkins_build &#183; summarize=True &#183; max_tokens=2048</text><line style="stroke:#000000;stroke-width:1.5;" x1="255.4063" x2="255.4063" y1="56.0645" y2="1735.8105"/><rect fill="#F4F7FB" height="1679.7461" style="stroke:#F4F7FB;stroke-width:1;" width="334.4883" x="604.5664" y="56.0645"/><ellipse cx="772.8105" cy="599.7363" fill="#222222" rx="10" ry="10" style="stroke:#222222;stroke-width:1;"/><rect fill="#FDFDFD" height="50.1875" rx="12.5" ry="12.5" style="stroke:#35506E;stroke-width:0.5;" width="124.4082" x="710.6064" y="629.7363"/><text fill="#000000" font-family="sans-serif" font-size="12" lengthAdjust="spacing" textLength="92.7129" x="720.6064" y="652.1934">GitHubConnector</text><text fill="#000000" font-family="sans-serif" font-size="12" lengthAdjust="spacing" textLength="104.4082" x="720.6064" y="667.2871">get_pr + get_pr_diff</text><rect fill="#FDFDFD" height="65.2813" rx="12.5" ry="12.5" style="stroke:#35506E;stroke-width:0.5;" width="228.7871" x="658.417" y="699.9238"/><text fill="#000000" font-family="sans-serif" font-size="12" lengthAdjust="spacing" textLength="168.4102" x="668.417" y="722.3809">compress_diff(diff, max=16000)</text><text fill="#000000" font-family="sans-serif" font-size="12" lengthAdjust="spacing" textLength="180.1113" x="668.417" y="737.4746">keep hunk/file headers + -/+ lines,</text><text fill="#000000" font-family="sans-serif" font-size="12" lengthAdjust="spacing" textLength="208.7871" x="668.417" y="752.5684">collapse unchanged context to markers</text><rect fill="#FDFDFD" height="35.0938" rx="12.5" ry="12.5" style="stroke:#35506E;stroke-width:0.5;" width="140.9023" x="702.3594" y="785.2051"/><text fill="#000000" font-family="sans-serif" font-size="12" lengthAdjust="spacing" textLength="120.9023" x="712.3594" y="807.6621">pr["diff"] = compressed</text><rect fill="#FDFDFD" height="50.1875" rx="12.5" ry="12.5" style="stroke:#35506E;stroke-width:0.5;" width="324.4883" x="610.5664" y="840.2988"/><text fill="#000000" font-family="sans-serif" font-size="12" lengthAdjust="spacing" textLength="161.707" x="620.5664" y="862.7559">system = _REVIEW_SYSTEM</text><text fill="#000000" font-family="sans-serif" font-size="12" lengthAdjust="spacing" textLength="304.4883" x="620.5664" y="877.8496">profile=github_pr &#183; summarize=False &#183; max_tokens=3072</text><line style="stroke:#000000;stroke-width:1.5;" x1="604.5664" x2="604.5664" y1="56.0645" y2="1735.8105"/><rect fill="#F4F7FB" height="1679.7461" style="stroke:#F4F7FB;stroke-width:1;" width="391.8203" x="939.0547" y="56.0645"/><ellipse cx="1156.7188" cy="910.4863" fill="#222222" rx="10" ry="10" style="stroke:#222222;stroke-width:1;"/><rect fill="#FDFDFD" height="35.0938" rx="12.5" ry="12.5" style="stroke:#35506E;stroke-width:0.5;" width="246.1309" x="1033.6533" y="940.4863"/><text fill="#000000" font-family="sans-serif" font-size="12" lengthAdjust="spacing" textLength="226.1309" x="1043.6533" y="962.9434">GitHubConnector.list_open_prs(per_page)</text><polygon fill="#FFF4D6" points="1123.085,995.5801,1190.3525,995.5801,1202.3525,1007.5801,1190.3525,1019.5801,1123.085,1019.5801,1111.085,1007.5801,1123.085,995.5801" style="stroke:#B8860B;stroke-width:0.5;stroke-linejoin:miter;stroke-miterlimit:10;"/><text fill="#000000" font-family="sans-serif" font-size="11" lengthAdjust="spacing" textLength="67.2676" x="1123.085" y="1012.0811">include_diffs?</text><text fill="#000000" font-family="sans-serif" font-size="11" lengthAdjust="spacing" textLength="17.1177" x="1093.9673" y="1005.1631">yes</text><text fill="#000000" font-family="sans-serif" font-size="11" lengthAdjust="spacing" textLength="12.2354" x="1202.3525" y="1005.1631">no</text><rect fill="#FDFDFD" height="35.0938" rx="12.5" ry="12.5" style="stroke:#35506E;stroke-width:0.5;" width="222.418" x="945.0547" y="1029.5801"/><text fill="#000000" font-family="sans-serif" font-size="12" lengthAdjust="spacing" textLength="202.418" x="955.0547" y="1052.0371">compress_diff(diff, max=6000) per PR</text><rect fill="#FDFDFD" height="35.0938" rx="12.5" ry="12.5" style="stroke:#35506E;stroke-width:0.5;" width="110.3574" x="1001.085" y="1084.6738"/><text fill="#000000" font-family="sans-serif" font-size="12" lengthAdjust="spacing" textLength="90.3574" x="1011.085" y="1107.1309">summarize=True</text><rect fill="#FDFDFD" height="35.0938" rx="12.5" ry="12.5" style="stroke:#35506E;stroke-width:0.5;" width="139.4023" x="1187.4727" y="1029.5801"/><text fill="#000000" font-family="sans-serif" font-size="12" lengthAdjust="spacing" textLength="119.4023" x="1197.4727" y="1052.0371">metadata only (cheap)</text><rect fill="#FDFDFD" height="35.0938" rx="12.5" ry="12.5" style="stroke:#35506E;stroke-width:0.5;" width="115.0273" x="1199.6602" y="1084.6738"/><text fill="#000000" font-family="sans-serif" font-size="12" lengthAdjust="spacing" textLength="95.0273" x="1209.6602" y="1107.1309">summarize=False</text><polygon fill="#FFF4D6" points="1156.7188,1125.7676,1168.7188,1137.7676,1156.7188,1149.7676,1144.7188,1137.7676,1156.7188,1125.7676" style="stroke:#B8860B;stroke-width:0.5;stroke-linejoin:miter;stroke-miterlimit:10;"/><rect fill="#FDFDFD" height="50.1875" rx="12.5" ry="12.5" style="stroke:#35506E;stroke-width:0.5;" width="218.7969" x="1047.3203" y="1169.7676"/><text fill="#000000" font-family="sans-serif" font-size="12" lengthAdjust="spacing" textLength="182.3848" x="1057.3203" y="1192.2246">system = _PR_TRIAGE_SYSTEM</text><text fill="#000000" font-family="sans-serif" font-size="12" lengthAdjust="spacing" textLength="198.7969" x="1057.3203" y="1207.3184">profile=github_pr &#183; max_tokens=2048</text><line style="stroke:#000000;stroke-width:1.5;" x1="939.0547" x2="939.0547" y1="56.0645" y2="1735.8105"/><rect fill="#EAF3EA" height="1679.7461" style="stroke:#EAF3EA;stroke-width:1;" width="322.8105" x="1330.875" y="56.0645"/><ellipse cx="1493.2803" cy="1239.9551" fill="#222222" rx="10" ry="10" style="stroke:#222222;stroke-width:1;"/><rect fill="#FDFDFD" height="65.2813" rx="12.5" ry="12.5" style="stroke:#35506E;stroke-width:0.5;" width="312.8105" x="1336.875" y="1269.9551"/><text fill="#000000" font-family="sans-serif" font-size="12" lengthAdjust="spacing" textLength="228.7266" x="1346.875" y="1292.4121">prefilter_fields -&gt; compress -&gt; (summarize)</text><text fill="#000000" font-family="sans-serif" font-size="12" lengthAdjust="spacing" textLength="171.082" x="1346.875" y="1307.5059">-&gt; count raw &amp; optimized tokens</text><text fill="#000000" font-family="sans-serif" font-size="12" lengthAdjust="spacing" textLength="292.8105" x="1346.875" y="1322.5996">-&gt; ClaudeClient.complete (prompt cache + local cache)</text><rect fill="#FDFDFD" height="50.1875" rx="12.5" ry="12.5" style="stroke:#35506E;stroke-width:0.5;" width="238.7656" x="1373.8975" y="1355.2363"/><text fill="#000000" font-family="sans-serif" font-size="12" lengthAdjust="spacing" textLength="100.7051" x="1383.8975" y="1377.6934">OptimizationResult</text><text fill="#000000" font-family="sans-serif" font-size="12" lengthAdjust="spacing" textLength="218.7656" x="1383.8975" y="1392.7871">answer &#183; tokens saved &#183; usage &#183; est. cost</text><rect fill="#FDFDFD" height="50.1875" rx="12.5" ry="12.5" style="stroke:#35506E;stroke-width:0.5;" width="220.1035" x="1383.2285" y="1474.3418"/><text fill="#000000" font-family="sans-serif" font-size="12" lengthAdjust="spacing" textLength="200.1035" x="1393.2285" y="1496.7988">GitHubConnector.comment_on_issue</text><text fill="#000000" font-family="sans-serif" font-size="12" lengthAdjust="spacing" textLength="180.0938" x="1393.2285" y="1511.8926">post review back to the PR thread</text><polygon fill="#FFF4D6" points="1397.613,1425.4238,1588.9475,1425.4238,1600.9475,1437.4238,1588.9475,1449.4238,1397.613,1449.4238,1385.613,1437.4238,1397.613,1425.4238" style="stroke:#B8860B;stroke-width:0.5;stroke-linejoin:miter;stroke-miterlimit:10;"/><text fill="#000000" font-family="sans-serif" font-size="11" lengthAdjust="spacing" textLength="17.1177" x="1497.2803" y="1460.8428">yes</text><text fill="#000000" font-family="sans-serif" font-size="11" lengthAdjust="spacing" textLength="191.3345" x="1397.613" y="1441.9248">review-github-pr AND --post-comment?</text><text fill="#000000" font-family="sans-serif" font-size="11" lengthAdjust="spacing" textLength="12.2354" x="1600.9475" y="1435.0068">no</text><polygon fill="#FFF4D6" points="1493.2803,1544.5293,1505.2803,1556.5293,1493.2803,1568.5293,1481.2803,1556.5293,1493.2803,1544.5293" style="stroke:#B8860B;stroke-width:0.5;stroke-linejoin:miter;stroke-miterlimit:10;"/><rect fill="#FDFDFD" height="50.1875" rx="12.5" ry="12.5" style="stroke:#35506E;stroke-width:0.5;" width="259.7715" x="1363.3945" y="1588.5293"/><text fill="#000000" font-family="sans-serif" font-size="12" lengthAdjust="spacing" textLength="231.1406" x="1373.3945" y="1610.9863">log_run() -&gt; logs/&lt;run_id&gt;_&lt;command&gt;.log</text><text fill="#000000" font-family="sans-serif" font-size="12" lengthAdjust="spacing" textLength="239.7715" x="1373.3945" y="1626.0801">(metrics + config snapshot, secrets redacted)</text><rect fill="#FDFDFD" height="35.0938" rx="12.5" ry="12.5" style="stroke:#35506E;stroke-width:0.5;" width="231.7461" x="1377.4072" y="1658.7168"/><text fill="#000000" font-family="sans-serif" font-size="12" lengthAdjust="spacing" textLength="211.7461" x="1387.4072" y="1681.1738">print answer + summary to stdout/stderr</text><ellipse cx="1493.2803" cy="1724.8105" fill="none" rx="11" ry="11" style="stroke:#222222;stroke-width:1;"/><ellipse cx="1493.2803" cy="1724.8105" fill="#222222" rx="6" ry="6" style="stroke:#222222;stroke-width:1;"/><line style="stroke:#000000;stroke-width:1.5;" x1="1330.875" x2="1330.875" y1="56.0645" y2="1735.8105"/><line style="stroke:#000000;stroke-width:1.5;" x1="1653.6855" x2="1653.6855" y1="56.0645" y2="1735.8105"/><line style="stroke:#35506E;stroke-width:1;" x1="138.7031" x2="138.7031" y1="103.7051" y2="123.7051"/><polygon fill="#35506E" points="134.7031,113.7051,138.7031,123.7051,142.7031,113.7051,138.7031,117.7051" style="stroke:#35506E;stroke-width:1;stroke-linejoin:miter;stroke-miterlimit:10;"/><line style="stroke:#35506E;stroke-width:1;" x1="138.7031" x2="138.7031" y1="158.7988" y2="178.7988"/><polygon fill="#35506E" points="134.7031,168.7988,138.7031,178.7988,142.7031,168.7988,138.7031,172.7988" style="stroke:#35506E;stroke-width:1;stroke-linejoin:miter;stroke-miterlimit:10;"/><line style="stroke:#35506E;stroke-width:1;" x1="138.7031" x2="138.7031" y1="228.9863" y2="248.9863"/><polygon fill="#35506E" points="134.7031,238.9863,138.7031,248.9863,142.7031,238.9863,138.7031,242.9863" style="stroke:#35506E;stroke-width:1;stroke-linejoin:miter;stroke-miterlimit:10;"/><line style="stroke:#35506E;stroke-width:1;" x1="430.9863" x2="430.9863" y1="314.0801" y2="334.0801"/><polygon fill="#35506E" points="426.9863,324.0801,430.9863,334.0801,434.9863,324.0801,430.9863,328.0801" style="stroke:#35506E;stroke-width:1;stroke-linejoin:miter;stroke-miterlimit:10;"/><line style="stroke:#35506E;stroke-width:1;" x1="430.9863" x2="430.9863" y1="384.2676" y2="404.2676"/><polygon fill="#35506E" points="426.9863,394.2676,430.9863,404.2676,434.9863,394.2676,430.9863,398.2676" style="stroke:#35506E;stroke-width:1;stroke-linejoin:miter;stroke-miterlimit:10;"/><line style="stroke:#35506E;stroke-width:1;" x1="430.9863" x2="430.9863" y1="454.4551" y2="474.4551"/><polygon fill="#35506E" points="426.9863,464.4551,430.9863,474.4551,434.9863,464.4551,430.9863,468.4551" style="stroke:#35506E;stroke-width:1;stroke-linejoin:miter;stroke-miterlimit:10;"/><line style="stroke:#35506E;stroke-width:1;" x1="430.9863" x2="430.9863" y1="509.5488" y2="529.5488"/><polygon fill="#35506E" points="426.9863,519.5488,430.9863,529.5488,434.9863,519.5488,430.9863,523.5488" style="stroke:#35506E;stroke-width:1;stroke-linejoin:miter;stroke-miterlimit:10;"/><line style="stroke:#35506E;stroke-width:1;" x1="772.8105" x2="772.8105" y1="609.7363" y2="629.7363"/><polygon fill="#35506E" points="768.8105,619.7363,772.8105,629.7363,776.8105,619.7363,772.8105,623.7363" style="stroke:#35506E;stroke-width:1;stroke-linejoin:miter;stroke-miterlimit:10;"/><line style="stroke:#35506E;stroke-width:1;" x1="772.8105" x2="772.8105" y1="679.9238" y2="699.9238"/><polygon fill="#35506E" points="768.8105,689.9238,772.8105,699.9238,776.8105,689.9238,772.8105,693.9238" style="stroke:#35506E;stroke-width:1;stroke-linejoin:miter;stroke-miterlimit:10;"/><line style="stroke:#35506E;stroke-width:1;" x1="772.8105" x2="772.8105" y1="765.2051" y2="785.2051"/><polygon fill="#35506E" points="768.8105,775.2051,772.8105,785.2051,776.8105,775.2051,772.8105,779.2051" style="stroke:#35506E;stroke-width:1;stroke-linejoin:miter;stroke-miterlimit:10;"/><line style="stroke:#35506E;stroke-width:1;" x1="772.8105" x2="772.8105" y1="820.2988" y2="840.2988"/><polygon fill="#35506E" points="768.8105,830.2988,772.8105,840.2988,776.8105,830.2988,772.8105,834.2988" style="stroke:#35506E;stroke-width:1;stroke-linejoin:miter;stroke-miterlimit:10;"/><line style="stroke:#35506E;stroke-width:1;" x1="1156.7188" x2="1156.7188" y1="920.4863" y2="940.4863"/><polygon fill="#35506E" points="1152.7188,930.4863,1156.7188,940.4863,1160.7188,930.4863,1156.7188,934.4863" style="stroke:#35506E;stroke-width:1;stroke-linejoin:miter;stroke-miterlimit:10;"/><line style="stroke:#35506E;stroke-width:1;" x1="1056.2637" x2="1056.2637" y1="1064.6738" y2="1084.6738"/><polygon fill="#35506E" points="1052.2637,1074.6738,1056.2637,1084.6738,1060.2637,1074.6738,1056.2637,1078.6738" style="stroke:#35506E;stroke-width:1;stroke-linejoin:miter;stroke-miterlimit:10;"/><line style="stroke:#35506E;stroke-width:1;" x1="1257.1738" x2="1257.1738" y1="1064.6738" y2="1084.6738"/><polygon fill="#35506E" points="1253.1738,1074.6738,1257.1738,1084.6738,1261.1738,1074.6738,1257.1738,1078.6738" style="stroke:#35506E;stroke-width:1;stroke-linejoin:miter;stroke-miterlimit:10;"/><line style="stroke:#35506E;stroke-width:1;" x1="1111.085" x2="1056.2637" y1="1007.5801" y2="1007.5801"/><line style="stroke:#35506E;stroke-width:1;" x1="1056.2637" x2="1056.2637" y1="1007.5801" y2="1029.5801"/><polygon fill="#35506E" points="1052.2637,1019.5801,1056.2637,1029.5801,1060.2637,1019.5801,1056.2637,1023.5801" style="stroke:#35506E;stroke-width:1;stroke-linejoin:miter;stroke-miterlimit:10;"/><line style="stroke:#35506E;stroke-width:1;" x1="1202.3525" x2="1257.1738" y1="1007.5801" y2="1007.5801"/><line style="stroke:#35506E;stroke-width:1;" x1="1257.1738" x2="1257.1738" y1="1007.5801" y2="1029.5801"/><polygon fill="#35506E" points="1253.1738,1019.5801,1257.1738,1029.5801,1261.1738,1019.5801,1257.1738,1023.5801" style="stroke:#35506E;stroke-width:1;stroke-linejoin:miter;stroke-miterlimit:10;"/><line style="stroke:#35506E;stroke-width:1;" x1="1056.2637" x2="1056.2637" y1="1119.7676" y2="1137.7676"/><line style="stroke:#35506E;stroke-width:1;" x1="1056.2637" x2="1144.7188" y1="1137.7676" y2="1137.7676"/><polygon fill="#35506E" points="1134.7188,1133.7676,1144.7188,1137.7676,1134.7188,1141.7676,1138.7188,1137.7676" style="stroke:#35506E;stroke-width:1;stroke-linejoin:miter;stroke-miterlimit:10;"/><line style="stroke:#35506E;stroke-width:1;" x1="1257.1738" x2="1257.1738" y1="1119.7676" y2="1137.7676"/><line style="stroke:#35506E;stroke-width:1;" x1="1257.1738" x2="1168.7188" y1="1137.7676" y2="1137.7676"/><polygon fill="#35506E" points="1178.7188,1133.7676,1168.7188,1137.7676,1178.7188,1141.7676,1174.7188,1137.7676" style="stroke:#35506E;stroke-width:1;stroke-linejoin:miter;stroke-miterlimit:10;"/><line style="stroke:#35506E;stroke-width:1;" x1="1156.7188" x2="1156.7188" y1="975.5801" y2="995.5801"/><polygon fill="#35506E" points="1152.7188,985.5801,1156.7188,995.5801,1160.7188,985.5801,1156.7188,989.5801" style="stroke:#35506E;stroke-width:1;stroke-linejoin:miter;stroke-miterlimit:10;"/><line style="stroke:#35506E;stroke-width:1;" x1="1156.7188" x2="1156.7188" y1="1149.7676" y2="1169.7676"/><polygon fill="#35506E" points="1152.7188,1159.7676,1156.7188,1169.7676,1160.7188,1159.7676,1156.7188,1163.7676" style="stroke:#35506E;stroke-width:1;stroke-linejoin:miter;stroke-miterlimit:10;"/><line style="stroke:#35506E;stroke-width:1;" x1="1493.2803" x2="1493.2803" y1="1249.9551" y2="1269.9551"/><polygon fill="#35506E" points="1489.2803,1259.9551,1493.2803,1269.9551,1497.2803,1259.9551,1493.2803,1263.9551" style="stroke:#35506E;stroke-width:1;stroke-linejoin:miter;stroke-miterlimit:10;"/><line style="stroke:#35506E;stroke-width:1;" x1="1493.2803" x2="1493.2803" y1="1335.2363" y2="1355.2363"/><polygon fill="#35506E" points="1489.2803,1345.2363,1493.2803,1355.2363,1497.2803,1345.2363,1493.2803,1349.2363" style="stroke:#35506E;stroke-width:1;stroke-linejoin:miter;stroke-miterlimit:10;"/><line style="stroke:#35506E;stroke-width:1;" x1="1493.2803" x2="1493.2803" y1="1449.4238" y2="1474.3418"/><polygon fill="#35506E" points="1489.2803,1464.3418,1493.2803,1474.3418,1497.2803,1464.3418,1493.2803,1468.3418" style="stroke:#35506E;stroke-width:1;stroke-linejoin:miter;stroke-miterlimit:10;"/><line style="stroke:#35506E;stroke-width:1;" x1="1600.9475" x2="1613.332" y1="1437.4238" y2="1437.4238"/><polygon fill="#35506E" points="1609.332,1489.4355,1613.332,1499.4355,1617.332,1489.4355,1613.332,1493.4355" style="stroke:#35506E;stroke-width:1;stroke-linejoin:miter;stroke-miterlimit:10;"/><line style="stroke:#35506E;stroke-width:1;" x1="1613.332" x2="1613.332" y1="1437.4238" y2="1556.5293"/><line style="stroke:#35506E;stroke-width:1;" x1="1613.332" x2="1505.2803" y1="1556.5293" y2="1556.5293"/><polygon fill="#35506E" points="1515.2803,1552.5293,1505.2803,1556.5293,1515.2803,1560.5293,1511.2803,1556.5293" style="stroke:#35506E;stroke-width:1;stroke-linejoin:miter;stroke-miterlimit:10;"/><line style="stroke:#35506E;stroke-width:1;" x1="1493.2803" x2="1493.2803" y1="1524.5293" y2="1544.5293"/><polygon fill="#35506E" points="1489.2803,1534.5293,1493.2803,1544.5293,1497.2803,1534.5293,1493.2803,1538.5293" style="stroke:#35506E;stroke-width:1;stroke-linejoin:miter;stroke-miterlimit:10;"/><line style="stroke:#35506E;stroke-width:1;" x1="1493.2803" x2="1493.2803" y1="1405.4238" y2="1425.4238"/><polygon fill="#35506E" points="1489.2803,1415.4238,1493.2803,1425.4238,1497.2803,1415.4238,1493.2803,1419.4238" style="stroke:#35506E;stroke-width:1;stroke-linejoin:miter;stroke-miterlimit:10;"/><line style="stroke:#35506E;stroke-width:1;" x1="1493.2803" x2="1493.2803" y1="1568.5293" y2="1588.5293"/><polygon fill="#35506E" points="1489.2803,1578.5293,1493.2803,1588.5293,1497.2803,1578.5293,1493.2803,1582.5293" style="stroke:#35506E;stroke-width:1;stroke-linejoin:miter;stroke-miterlimit:10;"/><line style="stroke:#35506E;stroke-width:1;" x1="1493.2803" x2="1493.2803" y1="1638.7168" y2="1658.7168"/><polygon fill="#35506E" points="1489.2803,1648.7168,1493.2803,1658.7168,1497.2803,1648.7168,1493.2803,1652.7168" style="stroke:#35506E;stroke-width:1;stroke-linejoin:miter;stroke-miterlimit:10;"/><line style="stroke:#35506E;stroke-width:1;" x1="1493.2803" x2="1493.2803" y1="1693.8105" y2="1713.8105"/><polygon fill="#35506E" points="1489.2803,1703.8105,1493.2803,1713.8105,1497.2803,1703.8105,1493.2803,1707.8105" style="stroke:#35506E;stroke-width:1;stroke-linejoin:miter;stroke-miterlimit:10;"/><text fill="#000000" font-family="sans-serif" font-size="18" lengthAdjust="spacing" textLength="75.0234" x="100.1914" y="74.75">triage-jira</text><text fill="#000000" font-family="sans-serif" font-size="18" lengthAdjust="spacing" textLength="107.0508" x="376.4609" y="74.75">triage-jenkins</text><text fill="#000000" font-family="sans-serif" font-size="18" lengthAdjust="spacing" textLength="129.0498" x="707.2856" y="74.75">review-github-pr</text><text fill="#000000" font-family="sans-serif" font-size="18" lengthAdjust="spacing" textLength="131.0625" x="1069.4336" y="74.75">triage-github-prs</text><text fill="#000000" font-family="sans-serif" font-size="18" lengthAdjust="spacing" textLength="243.1055" x="1370.7275" y="74.75">OptimizedRunner.run (shared)</text><?plantuml-src VPLhRjj6483_ynG31MWeMA_6ZcF4aGjPbb8RQ6eeHeiYAeWrEHGtMkwoEqihQbsWX-XT-hz7wKawIzAoBDk10Oixt7bzy-1BcA58rjrS90YYT2ONJXeDgJ8h0dE35YxEPoFemmNgfTJ4J--b-xwy3bv2UAz0VMUbM62lM7TWMxoGBYklMTm6eHF8p0fGn1caY0c1on1igJNQNk2aKmXJTWp__VKtZEwD08InuKknCnQw9n2RlB18v9zDuMGkVyS4Og6KboYpQ0S1SR25i287oaHYLb8l81MASEkDY9syaMuDVmG0fo9UBgmfTJ8sYlsyc9xvF__6s0Hj8zr__NfmE67fcHIvqSbZjUdquEnmwyAszkdHqU7Wb5-Eh3MhXoR_38BR5zE3wPlfwMqDi_jPMd4Ra1FM1Myl-32-mz0Z53REmi-_gGxaual4F4hbg7qSlAKrESnX2D7Lx7pqVX9z_ENZrUI7kNQ2bYnkNLNMuKDTMabK8hLOiR0cbGg7tcrKYU7VVu3AF1UM4G-lR8d7GOAE2_X4i7M3tCTRdpSXp_K2NNHTIfN07lXdBYePXH5NZBtVLJLo-CM5BAiI6nuD1eCEB16B21cQfIgCzbmtshxU1C9YrKmhlk30f2bgfavijdBugRNbg_KhGxZpXia3OhFnQ8DhWwDEf0dz4H4lyHLmPecQXgy61qTFGB9u8t7LhSUXMzWDfdgQTYWLja5Ks2YHQRgDnvz3_w_cy-qX0s8SdX1afLxsVT2GyLWp03RJxU-1aXgfuvaf9Gf2A7MS2NR5OsEq1mxEi3cxhA4LzbFBk_WggibFvvEV7z6gC_GPF20rzREtWsf_yERLy_sqGKNFiUefIIuo1MfsHs61DYfOasT0fX1A7QiomOeNVTVsxQ4XN2ErUVwUnLdH13O5bxDZVt6t_T7d4MfJMSavzaGu0KQhDMyffbwqTzIgp5bFivDjVfUptVby4k5NMciockvFHhS_tgt0MRr9UQ52o5lFOjBUeEDasRPZHAb4bT3k7Wqt0NClLUzAxS2A5NopjMFhGAeBOoMOxbX9rAxdBIbq38Ppo0l7ovXPSFCfmskvFldLr8HQhVLPjR7cMcXQOPLgRHr8t60rPoNvDSKFIAx74P6hAxixIp3wS0RTRi4NkXn9pX4zglTkwpJt8gFhJSVqMHrgqt3DMzrFX5yfbpF-iJnEsxLlgidR96BSORlvy53_7HyZcPn4xxm7_kITz5W-ro6tYfMn7qYUk5GkW3HFOcPS1mXZYuxOUSAV9AvQDO6I-JTizff1MlkOo2McT7t-uNrupFKrHV0_?></g></svg>