<svg xmlns="http://www.w3.org/2000/svg" xmlns:xlink="http://www.w3.org/1999/xlink" contentStyleType="text/css" data-diagram-type="ACTIVITY" height="1785px" preserveAspectRatio="none" style="width:1295px;height:1785px;background:#FFFFFF;" version="1.1" viewBox="0 0 1295 1785" width="1295px" zoomAndPan="magnify"><?plantuml 1.2026.6?><defs/><g><g class="title" data-source-line="3"><text fill="#000000" font-family="sans-serif" font-size="14" font-weight="700" lengthAdjust="spacing" textLength="237.7129" x="528.0535" y="34.5332">Flow &#8212; Feature-Development Skills</text></g><rect fill="none" height="22.6406" style="stroke:none;stroke-width:1;" width="1248.8198" x="20" y="56.0645"/><rect fill="#EAF3EA" height="1708.25" style="stroke:#EAF3EA;stroke-width:1;" width="394.9326" x="20" y="56.0645"/><ellipse cx="236.1411" cy="93.7051" fill="#222222" rx="10" ry="10" style="stroke:#222222;stroke-width:1;"/><rect fill="#FDFDFD" height="35.0938" rx="12.5" ry="12.5" style="stroke:#35506E;stroke-width:0.5;" width="155.3691" x="158.4565" y="123.7051"/><text fill="#000000" font-family="sans-serif" font-size="12" lengthAdjust="spacing" textLength="135.3691" x="168.4565" y="146.1621">read PRD (.docx/.txt/.md)</text><rect fill="#FDFDFD" height="65.2813" rx="12.5" ry="12.5" style="stroke:#35506E;stroke-width:0.5;" width="242.8086" x="114.7368" y="178.7988"/><text fill="#000000" font-family="sans-serif" font-size="12" lengthAdjust="spacing" textLength="199.1191" x="124.7368" y="201.2559">normalize_unicode + strip_boilerplate</text><text fill="#000000" font-family="sans-serif" font-size="12" lengthAdjust="spacing" textLength="222.8086" x="124.7368" y="216.3496">+ collapse_punctuation + substitute_fillers</text><text fill="#000000" font-family="sans-serif" font-size="12" lengthAdjust="spacing" textLength="148.0488" x="124.7368" y="231.4434">(reused from optimize.local)</text><rect fill="#FDFDFD" height="35.0938" rx="12.5" ry="12.5" style="stroke:#35506E;stroke-width:0.5;" width="170.7441" x="150.769" y="264.0801"/><text fill="#000000" font-family="sans-serif" font-size="12" lengthAdjust="spacing" textLength="150.7441" x="160.769" y="286.5371">segment into sections / lines</text><rect fill="#FDFDFD" height="65.2813" rx="12.5" ry="12.5" style="stroke:#35506E;stroke-width:0.5;" width="284.1348" x="94.0737" y="319.1738"/><text fill="#000000" font-family="sans-serif" font-size="12" lengthAdjust="spacing" textLength="261.4395" x="104.0737" y="341.6309">classify each unit by category cue (priority order):</text><text fill="#000000" font-family="sans-serif" font-size="12" lengthAdjust="spacing" textLength="264.1348" x="104.0737" y="356.7246">acceptance-criteria -&gt; constraint -&gt; non-functional</text><text fill="#000000" font-family="sans-serif" font-size="12" lengthAdjust="spacing" textLength="249.4863" x="104.0737" y="371.8184">-&gt; out-of-scope -&gt; dependency -&gt; goal -&gt; other</text><polygon fill="#FFF4D6" points="156.042,404.4551,316.2402,404.4551,328.2402,416.4551,316.2402,428.4551,156.042,428.4551,144.042,416.4551,156.042,404.4551" style="stroke:#B8860B;stroke-width:0.5;stroke-linejoin:miter;stroke-miterlimit:10;"/><text fill="#000000" font-family="sans-serif" font-size="11" lengthAdjust="spacing" textLength="160.1982" x="156.042" y="420.9561">category == acceptance-criteria?</text><text fill="#000000" font-family="sans-serif" font-size="11" lengthAdjust="spacing" textLength="17.1177" x="126.9243" y="414.0381">yes</text><text fill="#000000" font-family="sans-serif" font-size="11" lengthAdjust="spacing" textLength="12.2354" x="328.2402" y="414.0381">no</text><rect fill="#FDFDFD" height="35.0938" rx="12.5" ry="12.5" style="stroke:#35506E;stroke-width:0.5;" width="216.084" x="26" y="438.4551"/><text fill="#000000" font-family="sans-serif" font-size="12" lengthAdjust="spacing" textLength="196.084" x="36" y="460.9121">keep VERBATIM (never paraphrase)</text><rect fill="#FDFDFD" height="35.0938" rx="12.5" ry="12.5" style="stroke:#35506E;stroke-width:0.5;" width="145.3848" x="265.5479" y="438.4551"/><text fill="#000000" font-family="sans-serif" font-size="12" lengthAdjust="spacing" textLength="125.3848" x="275.5479" y="460.9121">re-render as terse atom</text><polygon fill="#FFF4D6" points="236.1411,479.5488,248.1411,491.5488,236.1411,503.5488,224.1411,491.5488,236.1411,479.5488" style="stroke:#B8860B;stroke-width:0.5;stroke-linejoin:miter;stroke-miterlimit:10;"/><rect fill="#FDFDFD" height="35.0938" rx="12.5" ry="12.5" style="stroke:#35506E;stroke-width:0.5;" width="338.3691" x="66.9565" y="523.5488"/><text fill="#000000" font-family="sans-serif" font-size="12" lengthAdjust="spacing" textLength="318.3691" x="76.9565" y="546.0059">drop low-signal "other" prose + dedupe near-identical atoms</text><rect fill="#FDFDFD" height="65.2813" rx="12.5" ry="12.5" style="stroke:#35506E;stroke-width:0.5;" width="318.1367" x="77.0728" y="578.6426"/><text fill="#000000" font-family="sans-serif" font-size="12" lengthAdjust="spacing" textLength="104.707" x="87.0728" y="601.0996">CompressionResult</text><text fill="#000000" font-family="sans-serif" font-size="12" lengthAdjust="spacing" textLength="298.1367" x="87.0728" y="616.1934">atoms grouped by category &#183; raw vs compressed tokens</text><text fill="#000000" font-family="sans-serif" font-size="12" lengthAdjust="spacing" textLength="87.0469" x="87.0728" y="631.2871">(~1/3 of original)</text><ellipse cx="236.1411" cy="674.9238" fill="none" rx="11" ry="11" style="stroke:#222222;stroke-width:1;"/><ellipse cx="236.1411" cy="674.9238" fill="#222222" rx="6" ry="6" style="stroke:#222222;stroke-width:1;"/><line style="stroke:#000000;stroke-width:1.5;" x1="20" x2="20" y1="56.0645" y2="1764.3145"/><rect fill="#F4F7FB" height="1708.25" style="stroke:#F4F7FB;stroke-width:1;" width="442.2725" x="414.9326" y="56.0645"/><ellipse cx="633.1436" cy="705.9238" fill="#222222" rx="10" ry="10" style="stroke:#222222;stroke-width:1;"/><rect fill="#FDFDFD" height="50.1875" rx="12.5" ry="12.5" style="stroke:#35506E;stroke-width:0.5;" width="318.125" x="474.0811" y="735.9238"/><text fill="#000000" font-family="sans-serif" font-size="12" lengthAdjust="spacing" textLength="92.7246" x="484.0811" y="758.3809">build_index(repo)</text><text fill="#000000" font-family="sans-serif" font-size="12" lengthAdjust="spacing" textLength="298.125" x="484.0811" y="773.4746">AST + regex symbol index (functions/classes -&gt; file:line)</text><rect fill="#FDFDFD" height="35.0938" rx="12.5" ry="12.5" style="stroke:#35506E;stroke-width:0.5;" width="288.1309" x="489.0781" y="806.1113"/><text fill="#000000" font-family="sans-serif" font-size="12" lengthAdjust="spacing" textLength="268.1309" x="499.0781" y="828.5684">for each plan step: extract candidate symbol terms</text><polygon fill="#FFF4D6" points="576.5913,861.2051,689.6958,861.2051,701.6958,873.2051,689.6958,885.2051,576.5913,885.2051,564.5913,873.2051,576.5913,861.2051" style="stroke:#B8860B;stroke-width:0.5;stroke-linejoin:miter;stroke-miterlimit:10;"/><text fill="#000000" font-family="sans-serif" font-size="11" lengthAdjust="spacing" textLength="113.1045" x="576.5913" y="877.7061">term resolves in index?</text><text fill="#000000" font-family="sans-serif" font-size="11" lengthAdjust="spacing" textLength="17.1177" x="547.4736" y="870.7881">yes</text><text fill="#000000" font-family="sans-serif" font-size="11" lengthAdjust="spacing" textLength="12.2354" x="701.6958" y="870.7881">no</text><rect fill="#FDFDFD" height="35.0938" rx="12.5" ry="12.5" style="stroke:#35506E;stroke-width:0.5;" width="133.4023" x="481.9043" y="895.2051"/><text fill="#000000" font-family="sans-serif" font-size="12" lengthAdjust="spacing" textLength="113.4023" x="491.9043" y="917.6621">attach file:line anchor</text><rect fill="#FDFDFD" height="50.1875" rx="12.5" ry="12.5" style="stroke:#35506E;stroke-width:0.5;" width="164.75" x="635.3066" y="895.2051"/><text fill="#000000" font-family="sans-serif" font-size="12" lengthAdjust="spacing" textLength="123.3867" x="645.3066" y="917.6621">record unresolved term</text><text fill="#000000" font-family="sans-serif" font-size="12" lengthAdjust="spacing" textLength="144.75" x="645.3066" y="932.7559">(flag possible hallucination)</text><polygon fill="#FFF4D6" points="633.1436,951.3926,645.1436,963.3926,633.1436,975.3926,621.1436,963.3926,633.1436,951.3926" style="stroke:#B8860B;stroke-width:0.5;stroke-linejoin:miter;stroke-miterlimit:10;"/><rect fill="#FDFDFD" height="35.0938" rx="12.5" ry="12.5" style="stroke:#35506E;stroke-width:0.5;" width="223.7949" x="521.2461" y="995.3926"/><text fill="#000000" font-family="sans-serif" font-size="12" lengthAdjust="spacing" textLength="203.7949" x="531.2461" y="1017.8496">anchoring_accuracy = anchored / total</text><rect fill="#FDFDFD" height="35.0938" rx="12.5" ry="12.5" style="stroke:#35506E;stroke-width:0.5;" width="241.4551" x="512.416" y="1050.4863"/><text fill="#000000" font-family="sans-serif" font-size="12" lengthAdjust="spacing" textLength="221.4551" x="522.416" y="1072.9434">Anchors + accuracy% + unresolved count</text><ellipse cx="633.1436" cy="1116.5801" fill="none" rx="11" ry="11" style="stroke:#222222;stroke-width:1;"/><ellipse cx="633.1436" cy="1116.5801" fill="#222222" rx="6" ry="6" style="stroke:#222222;stroke-width:1;"/><line style="stroke:#000000;stroke-width:1.5;" x1="414.9326" x2="414.9326" y1="56.0645" y2="1764.3145"/><rect fill="#FDF3E7" height="1708.25" style="stroke:#FDF3E7;stroke-width:1;" width="410.1143" x="857.2051" y="56.0645"/><ellipse cx="1096.1099" cy="1147.5801" fill="#222222" rx="10" ry="10" style="stroke:#222222;stroke-width:1;"/><rect fill="#FDFDFD" height="65.2813" rx="12.5" ry="12.5" style="stroke:#35506E;stroke-width:0.5;" width="224.0938" x="984.063" y="1177.5801"/><text fill="#000000" font-family="sans-serif" font-size="12" lengthAdjust="spacing" textLength="98.0215" x="994.063" y="1200.0371">classify_task(task)</text><text fill="#000000" font-family="sans-serif" font-size="12" lengthAdjust="spacing" textLength="204.0938" x="994.063" y="1215.1309">count cues: trivial / standard / complex</text><text fill="#000000" font-family="sans-serif" font-size="12" lengthAdjust="spacing" textLength="163.7285" x="994.063" y="1230.2246">+ heuristics (length, multi-step)</text><rect fill="#FDFDFD" height="50.1875" rx="12.5" ry="12.5" style="stroke:#35506E;stroke-width:0.5;" width="249.1426" x="971.5386" y="1262.8613"/><text fill="#000000" font-family="sans-serif" font-size="12" lengthAdjust="spacing" textLength="194.7363" x="981.5386" y="1285.3184">pick winner tier (complex dominates)</text><text fill="#000000" font-family="sans-serif" font-size="12" lengthAdjust="spacing" textLength="229.1426" x="981.5386" y="1300.4121">confidence = winner share, damped on ties</text><polygon fill="#FFF4D6" points="983.9131,1333.0488,1208.3066,1333.0488,1220.3066,1345.0488,1208.3066,1357.0488,983.9131,1357.0488,971.9131,1345.0488,983.9131,1333.0488" style="stroke:#B8860B;stroke-width:0.5;stroke-linejoin:miter;stroke-miterlimit:10;"/><text fill="#000000" font-family="sans-serif" font-size="11" lengthAdjust="spacing" textLength="224.3936" x="983.9131" y="1349.5498">confidence &lt; threshold  AND  tier != complex?</text><text fill="#000000" font-family="sans-serif" font-size="11" lengthAdjust="spacing" textLength="17.1177" x="954.7954" y="1342.6318">yes</text><text fill="#000000" font-family="sans-serif" font-size="11" lengthAdjust="spacing" textLength="12.2354" x="1220.3066" y="1342.6318">no</text><rect fill="#FDFDFD" height="50.1875" rx="12.5" ry="12.5" style="stroke:#35506E;stroke-width:0.5;" width="197.416" x="863.2051" y="1367.0488"/><text fill="#000000" font-family="sans-serif" font-size="12" lengthAdjust="spacing" textLength="177.416" x="873.2051" y="1389.5059">escalate one tier toward premium</text><text fill="#000000" font-family="sans-serif" font-size="12" lengthAdjust="spacing" textLength="155.0684" x="873.2051" y="1404.5996">upgraded = True (safety first)</text><rect fill="#FDFDFD" height="35.0938" rx="12.5" ry="12.5" style="stroke:#35506E;stroke-width:0.5;" width="66.0254" x="1197.2939" y="1367.0488"/><text fill="#000000" font-family="sans-serif" font-size="12" lengthAdjust="spacing" textLength="46.0254" x="1207.2939" y="1389.5059">keep tier</text><polygon fill="#FFF4D6" points="1096.1099,1423.2363,1108.1099,1435.2363,1096.1099,1447.2363,1084.1099,1435.2363,1096.1099,1423.2363" style="stroke:#B8860B;stroke-width:0.5;stroke-linejoin:miter;stroke-miterlimit:10;"/><rect fill="none" height="194.8906" style="stroke:#000000;stroke-width:1.5;" width="192.4082" x="999.9058" y="1457.2363"/><path d="M1100.9331,1457.2363 L1100.9331,1467.8457 L1090.9331,1477.8457 L999.9058,1477.8457" fill="none" style="stroke:#000000;stroke-width:1.5;"/><text fill="#000000" font-family="sans-serif" font-size="14" lengthAdjust="spacing" textLength="91.0273" x="1002.9058" y="1472.7695">model_for(tier)</text><rect fill="#FDFDFD" height="35.0938" rx="12.5" ry="12.5" style="stroke:#35506E;stroke-width:0.5;" width="158.3926" x="1016.9136" y="1494.8457"/><text fill="#000000" font-family="sans-serif" font-size="12" lengthAdjust="spacing" textLength="138.3926" x="1026.9136" y="1517.3027">trivial  -&gt; claude-haiku-4-5</text><rect fill="#FDFDFD" height="35.0938" rx="12.5" ry="12.5" style="stroke:#35506E;stroke-width:0.5;" width="170.4277" x="1010.896" y="1549.9395"/><text fill="#000000" font-family="sans-serif" font-size="12" lengthAdjust="spacing" textLength="150.4277" x="1020.896" y="1572.3965">standard -&gt; claude-sonnet-5</text><rect fill="#FDFDFD" height="35.0938" rx="12.5" ry="12.5" style="stroke:#35506E;stroke-width:0.5;" width="172.4082" x="1009.9058" y="1605.0332"/><text fill="#000000" font-family="sans-serif" font-size="12" lengthAdjust="spacing" textLength="152.4082" x="1019.9058" y="1627.4902">complex  -&gt; claude-opus-4-8</text><rect fill="#FDFDFD" height="50.1875" rx="12.5" ry="12.5" style="stroke:#35506E;stroke-width:0.5;" width="242.7734" x="974.7231" y="1672.127"/><text fill="#000000" font-family="sans-serif" font-size="12" lengthAdjust="spacing" textLength="64.7051" x="984.7231" y="1694.584">ModelRoute</text><text fill="#000000" font-family="sans-serif" font-size="12" lengthAdjust="spacing" textLength="222.7734" x="984.7231" y="1709.6777">task &#183; tier &#183; confidence &#183; model &#183; upgraded</text><ellipse cx="1096.1099" cy="1753.3145" fill="none" rx="11" ry="11" style="stroke:#222222;stroke-width:1;"/><ellipse cx="1096.1099" cy="1753.3145" fill="#222222" rx="6" ry="6" style="stroke:#222222;stroke-width:1;"/><line style="stroke:#000000;stroke-width:1.5;" x1="857.2051" x2="857.2051" y1="56.0645" y2="1764.3145"/><line style="stroke:#000000;stroke-width:1.5;" x1="1267.3193" x2="1267.3193" y1="56.0645" y2="1764.3145"/><line style="stroke:#35506E;stroke-width:1;" x1="236.1411" x2="236.1411" y1="103.7051" y2="123.7051"/><polygon fill="#35506E" points="232.1411,113.7051,236.1411,123.7051,240.1411,113.7051,236.1411,117.7051" style="stroke:#35506E;stroke-width:1;stroke-linejoin:miter;stroke-miterlimit:10;"/><line style="stroke:#35506E;stroke-width:1;" x1="236.1411" x2="236.1411" y1="158.7988" y2="178.7988"/><polygon fill="#35506E" points="232.1411,168.7988,236.1411,178.7988,240.1411,168.7988,236.1411,172.7988" style="stroke:#35506E;stroke-width:1;stroke-linejoin:miter;stroke-miterlimit:10;"/><line style="stroke:#35506E;stroke-width:1;" x1="236.1411" x2="236.1411" y1="244.0801" y2="264.0801"/><polygon fill="#35506E" points="232.1411,254.0801,236.1411,264.0801,240.1411,254.0801,236.1411,258.0801" style="stroke:#35506E;stroke-width:1;stroke-linejoin:miter;stroke-miterlimit:10;"/><line style="stroke:#35506E;stroke-width:1;" x1="236.1411" x2="236.1411" y1="299.1738" y2="319.1738"/><polygon fill="#35506E" points="232.1411,309.1738,236.1411,319.1738,240.1411,309.1738,236.1411,313.1738" style="stroke:#35506E;stroke-width:1;stroke-linejoin:miter;stroke-miterlimit:10;"/><line style="stroke:#35506E;stroke-width:1;" x1="144.042" x2="134.042" y1="416.4551" y2="416.4551"/><line style="stroke:#35506E;stroke-width:1;" x1="134.042" x2="134.042" y1="416.4551" y2="438.4551"/><polygon fill="#35506E" points="130.042,428.4551,134.042,438.4551,138.042,428.4551,134.042,432.4551" style="stroke:#35506E;stroke-width:1;stroke-linejoin:miter;stroke-miterlimit:10;"/><line style="stroke:#35506E;stroke-width:1;" x1="328.2402" x2="338.2402" y1="416.4551" y2="416.4551"/><line style="stroke:#35506E;stroke-width:1;" x1="338.2402" x2="338.2402" y1="416.4551" y2="438.4551"/><polygon fill="#35506E" points="334.2402,428.4551,338.2402,438.4551,342.2402,428.4551,338.2402,432.4551" style="stroke:#35506E;stroke-width:1;stroke-linejoin:miter;stroke-miterlimit:10;"/><line style="stroke:#35506E;stroke-width:1;" x1="134.042" x2="134.042" y1="473.5488" y2="491.5488"/><line style="stroke:#35506E;stroke-width:1;" x1="134.042" x2="224.1411" y1="491.5488" y2="491.5488"/><polygon fill="#35506E" points="214.1411,487.5488,224.1411,491.5488,214.1411,495.5488,218.1411,491.5488" style="stroke:#35506E;stroke-width:1;stroke-linejoin:miter;stroke-miterlimit:10;"/><line style="stroke:#35506E;stroke-width:1;" x1="338.2402" x2="338.2402" y1="473.5488" y2="491.5488"/><line style="stroke:#35506E;stroke-width:1;" x1="338.2402" x2="248.1411" y1="491.5488" y2="491.5488"/><polygon fill="#35506E" points="258.1411,487.5488,248.1411,491.5488,258.1411,495.5488,254.1411,491.5488" style="stroke:#35506E;stroke-width:1;stroke-linejoin:miter;stroke-miterlimit:10;"/><line style="stroke:#35506E;stroke-width:1;" x1="236.1411" x2="236.1411" y1="384.4551" y2="404.4551"/><polygon fill="#35506E" points="232.1411,394.4551,236.1411,404.4551,240.1411,394.4551,236.1411,398.4551" style="stroke:#35506E;stroke-width:1;stroke-linejoin:miter;stroke-miterlimit:10;"/><line style="stroke:#35506E;stroke-width:1;" x1="236.1411" x2="236.1411" y1="503.5488" y2="523.5488"/><polygon fill="#35506E" points="232.1411,513.5488,236.1411,523.5488,240.1411,513.5488,236.1411,517.5488" style="stroke:#35506E;stroke-width:1;stroke-linejoin:miter;stroke-miterlimit:10;"/><line style="stroke:#35506E;stroke-width:1;" x1="236.1411" x2="236.1411" y1="558.6426" y2="578.6426"/><polygon fill="#35506E" points="232.1411,568.6426,236.1411,578.6426,240.1411,568.6426,236.1411,572.6426" style="stroke:#35506E;stroke-width:1;stroke-linejoin:miter;stroke-miterlimit:10;"/><line style="stroke:#35506E;stroke-width:1;" x1="236.1411" x2="236.1411" y1="643.9238" y2="663.9238"/><polygon fill="#35506E" points="232.1411,653.9238,236.1411,663.9238,240.1411,653.9238,236.1411,657.9238" style="stroke:#35506E;stroke-width:1;stroke-linejoin:miter;stroke-miterlimit:10;"/><line style="stroke:#35506E;stroke-width:1;" x1="633.1436" x2="633.1436" y1="715.9238" y2="735.9238"/><polygon fill="#35506E" points="629.1436,725.9238,633.1436,735.9238,637.1436,725.9238,633.1436,729.9238" style="stroke:#35506E;stroke-width:1;stroke-linejoin:miter;stroke-miterlimit:10;"/><line style="stroke:#35506E;stroke-width:1;" x1="633.1436" x2="633.1436" y1="786.1113" y2="806.1113"/><polygon fill="#35506E" points="629.1436,796.1113,633.1436,806.1113,637.1436,796.1113,633.1436,800.1113" style="stroke:#35506E;stroke-width:1;stroke-linejoin:miter;stroke-miterlimit:10;"/><line style="stroke:#35506E;stroke-width:1;" x1="564.5913" x2="548.6055" y1="873.2051" y2="873.2051"/><line style="stroke:#35506E;stroke-width:1;" x1="548.6055" x2="548.6055" y1="873.2051" y2="895.2051"/><polygon fill="#35506E" points="544.6055,885.2051,548.6055,895.2051,552.6055,885.2051,548.6055,889.2051" style="stroke:#35506E;stroke-width:1;stroke-linejoin:miter;stroke-miterlimit:10;"/><line style="stroke:#35506E;stroke-width:1;" x1="701.6958" x2="717.6816" y1="873.2051" y2="873.2051"/><line style="stroke:#35506E;stroke-width:1;" x1="717.6816" x2="717.6816" y1="873.2051" y2="895.2051"/><polygon fill="#35506E" points="713.6816,885.2051,717.6816,895.2051,721.6816,885.2051,717.6816,889.2051" style="stroke:#35506E;stroke-width:1;stroke-linejoin:miter;stroke-miterlimit:10;"/><line style="stroke:#35506E;stroke-width:1;" x1="548.6055" x2="548.6055" y1="930.2988" y2="963.3926"/><line style="stroke:#35506E;stroke-width:1;" x1="548.6055" x2="621.1436" y1="963.3926" y2="963.3926"/><polygon fill="#35506E" points="611.1436,959.3926,621.1436,963.3926,611.1436,967.3926,615.1436,963.3926" style="stroke:#35506E;stroke-width:1;stroke-linejoin:miter;stroke-miterlimit:10;"/><line style="stroke:#35506E;stroke-width:1;" x1="717.6816" x2="717.6816" y1="945.3926" y2="963.3926"/><line style="stroke:#35506E;stroke-width:1;" x1="717.6816" x2="645.1436" y1="963.3926" y2="963.3926"/><polygon fill="#35506E" points="655.1436,959.3926,645.1436,963.3926,655.1436,967.3926,651.1436,963.3926" style="stroke:#35506E;stroke-width:1;stroke-linejoin:miter;stroke-miterlimit:10;"/><line style="stroke:#35506E;stroke-width:1;" x1="633.1436" x2="633.1436" y1="841.2051" y2="861.2051"/><polygon fill="#35506E" points="629.1436,851.2051,633.1436,861.2051,637.1436,851.2051,633.1436,855.2051" style="stroke:#35506E;stroke-width:1;stroke-linejoin:miter;stroke-miterlimit:10;"/><line style="stroke:#35506E;stroke-width:1;" x1="633.1436" x2="633.1436" y1="975.3926" y2="995.3926"/><polygon fill="#35506E" points="629.1436,985.3926,633.1436,995.3926,637.1436,985.3926,633.1436,989.3926" style="stroke:#35506E;stroke-width:1;stroke-linejoin:miter;stroke-miterlimit:10;"/><line style="stroke:#35506E;stroke-width:1;" x1="633.1436" x2="633.1436" y1="1030.4863" y2="1050.4863"/><polygon fill="#35506E" points="629.1436,1040.4863,633.1436,1050.4863,637.1436,1040.4863,633.1436,1044.4863" style="stroke:#35506E;stroke-width:1;stroke-linejoin:miter;stroke-miterlimit:10;"/><line style="stroke:#35506E;stroke-width:1;" x1="633.1436" x2="633.1436" y1="1085.5801" y2="1105.5801"/><polygon fill="#35506E" points="629.1436,1095.5801,633.1436,1105.5801,637.1436,1095.5801,633.1436,1099.5801" style="stroke:#35506E;stroke-width:1;stroke-linejoin:miter;stroke-miterlimit:10;"/><line style="stroke:#35506E;stroke-width:1;" x1="1096.1099" x2="1096.1099" y1="1157.5801" y2="1177.5801"/><polygon fill="#35506E" points="1092.1099,1167.5801,1096.1099,1177.5801,1100.1099,1167.5801,1096.1099,1171.5801" style="stroke:#35506E;stroke-width:1;stroke-linejoin:miter;stroke-miterlimit:10;"/><line style="stroke:#35506E;stroke-width:1;" x1="1096.1099" x2="1096.1099" y1="1242.8613" y2="1262.8613"/><polygon fill="#35506E" points="1092.1099,1252.8613,1096.1099,1262.8613,1100.1099,1252.8613,1096.1099,1256.8613" style="stroke:#35506E;stroke-width:1;stroke-linejoin:miter;stroke-miterlimit:10;"/><line style="stroke:#35506E;stroke-width:1;" x1="971.9131" x2="961.9131" y1="1345.0488" y2="1345.0488"/><line style="stroke:#35506E;stroke-width:1;" x1="961.9131" x2="961.9131" y1="1345.0488" y2="1367.0488"/><polygon fill="#35506E" points="957.9131,1357.0488,961.9131,1367.0488,965.9131,1357.0488,961.9131,1361.0488" style="stroke:#35506E;stroke-width:1;stroke-linejoin:miter;stroke-miterlimit:10;"/><line style="stroke:#35506E;stroke-width:1;" x1="1220.3066" x2="1230.3066" y1="1345.0488" y2="1345.0488"/><line style="stroke:#35506E;stroke-width:1;" x1="1230.3066" x2="1230.3066" y1="1345.0488" y2="1367.0488"/><polygon fill="#35506E" points="1226.3066,1357.0488,1230.3066,1367.0488,1234.3066,1357.0488,1230.3066,1361.0488" style="stroke:#35506E;stroke-width:1;stroke-linejoin:miter;stroke-miterlimit:10;"/><line style="stroke:#35506E;stroke-width:1;" x1="961.9131" x2="961.9131" y1="1417.2363" y2="1435.2363"/><line style="stroke:#35506E;stroke-width:1;" x1="961.9131" x2="1084.1099" y1="1435.2363" y2="1435.2363"/><polygon fill="#35506E" points="1074.1099,1431.2363,1084.1099,1435.2363,1074.1099,1439.2363,1078.1099,1435.2363" style="stroke:#35506E;stroke-width:1;stroke-linejoin:miter;stroke-miterlimit:10;"/><line style="stroke:#35506E;stroke-width:1;" x1="1230.3066" x2="1230.3066" y1="1402.1426" y2="1435.2363"/><line style="stroke:#35506E;stroke-width:1;" x1="1230.3066" x2="1108.1099" y1="1435.2363" y2="1435.2363"/><polygon fill="#35506E" points="1118.1099,1431.2363,1108.1099,1435.2363,1118.1099,1439.2363,1114.1099,1435.2363" style="stroke:#35506E;stroke-width:1;stroke-linejoin:miter;stroke-miterlimit:10;"/><line style="stroke:#35506E;stroke-width:1;" x1="1096.1099" x2="1096.1099" y1="1313.0488" y2="1333.0488"/><polygon fill="#35506E" points="1092.1099,1323.0488,1096.1099,1333.0488,1100.1099,1323.0488,1096.1099,1327.0488" style="stroke:#35506E;stroke-width:1;stroke-linejoin:miter;stroke-miterlimit:10;"/><line style="stroke:#35506E;stroke-width:1;" x1="1096.1099" x2="1096.1099" y1="1529.9395" y2="1549.9395"/><polygon fill="#35506E" points="1092.1099,1539.9395,1096.1099,1549.9395,1100.1099,1539.9395,1096.1099,1543.9395" style="stroke:#35506E;stroke-width:1;stroke-linejoin:miter;stroke-miterlimit:10;"/><line style="stroke:#35506E;stroke-width:1;" x1="1096.1099" x2="1096.1099" y1="1585.0332" y2="1605.0332"/><polygon fill="#35506E" points="1092.1099,1595.0332,1096.1099,1605.0332,1100.1099,1595.0332,1096.1099,1599.0332" style="stroke:#35506E;stroke-width:1;stroke-linejoin:miter;stroke-miterlimit:10;"/><line style="stroke:#35506E;stroke-width:1;" x1="1096.1099" x2="1096.1099" y1="1447.2363" y2="1494.8457"/><polygon fill="#35506E" points="1092.1099,1484.8457,1096.1099,1494.8457,1100.1099,1484.8457,1096.1099,1488.8457" style="stroke:#35506E;stroke-width:1;stroke-linejoin:miter;stroke-miterlimit:10;"/><line style="stroke:#35506E;stroke-width:1;" x1="1096.1099" x2="1096.1099" y1="1640.127" y2="1672.127"/><polygon fill="#35506E" points="1092.1099,1662.127,1096.1099,1672.127,1100.1099,1662.127,1096.1099,1666.127" style="stroke:#35506E;stroke-width:1;stroke-linejoin:miter;stroke-miterlimit:10;"/><line style="stroke:#35506E;stroke-width:1;" x1="1096.1099" x2="1096.1099" y1="1722.3145" y2="1742.3145"/><polygon fill="#35506E" points="1092.1099,1732.3145,1096.1099,1742.3145,1100.1099,1732.3145,1096.1099,1736.3145" style="stroke:#35506E;stroke-width:1;stroke-linejoin:miter;stroke-miterlimit:10;"/><text fill="#000000" font-family="sans-serif" font-size="18" lengthAdjust="spacing" textLength="376.1191" x="29.4067" y="74.75">Skill 1 &#8212; PRD compression (prd_compression)</text><text fill="#000000" font-family="sans-serif" font-size="18" lengthAdjust="spacing" textLength="432.2725" x="419.9326" y="74.75">Skill 2a &#8212; codebase anchoring (codebase_anchoring)</text><text fill="#000000" font-family="sans-serif" font-size="18" lengthAdjust="spacing" textLength="326.1533" x="899.1855" y="74.75">Skill 2b &#8212; model routing (model_routing)</text><?plantuml-src RLNRRXit47tNLqmT594QhvKqjcF8TGixie0-f2WSeqy616evAn7YaWJ9zQLDYtv4_wNl_PH-IS_GArc92m6h9JcSopbdPb_IZ5Nk8bUQRzdwqBBBbDR6MWgsMngNQ5YMQVpDQ48_Nqsfzcs8d9BnRXyBpGkLUF2IbAjNFXgttCUhBcQMxqr-gCH0KmjJIz5t6JO7WsooPPfPVqV__ldNDe_fJXuVI-3100cueA9gAQsKzdUuJusoYFfqekfiRX6CVXiGNQXwlKGafzzxwoEzc4tb9oS-QexzxjkZezV7bzYT6jLwfvzVcyqEfySx1hktBqvEZbzVuF0yHd_tkSlV1uDFBoxFPsylpp-LAkXDgV8B_6WOefxlR8m-3L9MCGycaPKkviC3xUlxyK6-p-E3LezE1nFdOwki-PNddJF20BsYbAC9yuKtbcEmAlEDUuLGrggGU1uwL-TEPOa9sswH07-NUTuWDuxfnWqZTy9I4trBFcJJml-1zRMo4ZBnib1YNFQKk1PFYSPaZUE4yzeg5D0y4AjwHKWhq-A1QkInz14l7Kkj1le0HGN5qUJ6gRhca24ShcgSS3IAgk-HjaCv2h5avRoh6iaV8PMzSTY2XYhVLAdsWSL4Ss2dsTKFibfwPUNVvnN7qu5fQBXDvEoC_YVe3oE2BUXuu3G2evCrSw1VBgykpgz__4131r564g65LOIOWGX3VZZmnHowZP9099K87d6aiczXvRHf1XCTVI0elKfcYHfehwIsHo7w9EHfrXqgSQnYPL17De2zk11itp_fuufJPpE0aoCIhGPmjelqFtzJL7TqcxOwWq7sQtP2yXzlnc_9Ds30eBSBjIdx86gT7SxUpIvwjNwhYbmttVtKsu2otvjlzvv4k-YCrNC39EwXf-17D-xyupKAZBpaUqeFxS9RAkSqt72QnaKyd8Gpw94d8YeHNOEEAdg2e1qKpc52V0zbr1a50rgDgZTU0RkW9MpBAq8cRs_XrRZ7YCz8LZcByst8lifdtDRGAoJTEzGb4h1ih5fIyE1bWK6sKjPsDJ2LaaPRvhSWpI6x3fb3WdqSU1g3cQmiIZqlMmbGRUo-nljEq1fZAU-mDSLiURTXQr7O-cp0qh0iv_toYQDDfywpIkkXFC1IyIvTcYQ4GN9h8Byn40V8AagU_JINeRBYBXhCZngV1ijkcLVxr4ALfXA6XBTWwZLXIZiqH3Pu3Flhf7qh4840YUaQ4NlDWAItndoFl4zQjQ9h32jSxqdTCVyEH0AObRSQq_UdAJr6-Ufia-OpgZcXeKGi7ZGNu-plf39qI6iwqDc5PLJeG-Ho7MLQ9TKmPbLZOifVzdiP3-9cmpD60mQgJDUzHzWXtQ4OZFRA1sco0RMCDwiwpTLAcNLN7LP7fsAmnVh987bWallp3O8xvpvq2VTFJl6vcNoGi5SW6uDVI9L1K0h5_mvqM3tA12-RadjL_GS0?></g></svg>