<svg xmlns="http://www.w3.org/2000/svg" xmlns:xlink="http://www.w3.org/1999/xlink" contentStyleType="text/css" data-diagram-type="ACTIVITY" height="1097px" preserveAspectRatio="none" style="width:1708px;height:1097px;background:#FFFFFF;" version="1.1" viewBox="0 0 1708 1097" width="1708px" zoomAndPan="magnify"><?plantuml 1.2026.6?><defs/><g><g class="title" data-source-line="3"><text fill="#000000" font-family="sans-serif" font-size="14" font-weight="700" lengthAdjust="spacing" textLength="396.3887" x="655.2185" y="34.5332">Flow &#8212; A/B Validation  (baseline vs optimised, 25-pt rubric)</text></g><rect fill="none" height="22.6406" style="stroke:none;stroke-width:1;" width="1661.8257" x="20" y="56.0645"/><rect fill="#F4F7FB" height="1020.7969" style="stroke:#F4F7FB;stroke-width:1;" width="203.4258" x="20" y="56.0645"/><ellipse cx="122.7129" cy="93.7051" fill="#222222" rx="10" ry="10" style="stroke:#222222;stroke-width:1;"/><rect fill="#FDFDFD" height="50.1875" rx="12.5" ry="12.5" style="stroke:#35506E;stroke-width:0.5;" width="191.416" x="27.0049" y="123.7051"/><text fill="#000000" font-family="sans-serif" font-size="12" lengthAdjust="spacing" textLength="84.6973" x="37.0049" y="146.1621">sample_cases()</text><text fill="#000000" font-family="sans-serif" font-size="12" lengthAdjust="spacing" textLength="171.416" x="37.0049" y="161.2559">8 feature requests across 2 BUs</text><rect fill="#FDFDFD" height="50.1875" rx="12.5" ry="12.5" style="stroke:#35506E;stroke-width:0.5;" width="193.4258" x="26" y="193.8926"/><text fill="#000000" font-family="sans-serif" font-size="12" lengthAdjust="spacing" textLength="122.0801" x="36" y="216.3496">build_index(repo) once</text><text fill="#000000" font-family="sans-serif" font-size="12" lengthAdjust="spacing" textLength="173.4258" x="36" y="231.4434">(shared codebase symbol index)</text><line style="stroke:#000000;stroke-width:1.5;" x1="20" x2="20" y1="56.0645" y2="1076.8613"/><rect fill="#EAF3EA" height="1020.7969" style="stroke:#EAF3EA;stroke-width:1;" width="293.7656" x="223.4258" y="56.0645"/><rect fill="#FDFDFD" height="50.1875" rx="12.5" ry="12.5" style="stroke:#35506E;stroke-width:0.5;" width="283.7656" x="229.4258" y="264.0801"/><text fill="#000000" font-family="sans-serif" font-size="12" lengthAdjust="spacing" textLength="130.0488" x="239.4258" y="286.5371">compress_prd(case.prd)</text><text fill="#000000" font-family="sans-serif" font-size="12" lengthAdjust="spacing" textLength="263.7656" x="239.4258" y="301.6309">-&gt; requirement atoms (raw &amp; compressed tokens)</text><rect fill="#FDFDFD" height="50.1875" rx="12.5" ry="12.5" style="stroke:#35506E;stroke-width:0.5;" width="256.8125" x="242.9023" y="334.2676"/><text fill="#000000" font-family="sans-serif" font-size="12" lengthAdjust="spacing" textLength="218.4434" x="252.9023" y="356.7246">plan_fn(requirements, task) -&gt; plan steps</text><text fill="#000000" font-family="sans-serif" font-size="12" lengthAdjust="spacing" textLength="236.8125" x="252.9023" y="371.8184">(offline stub by default; LLM-pluggable hook)</text><line style="stroke:#000000;stroke-width:1.5;" x1="223.4258" x2="223.4258" y1="56.0645" y2="1076.8613"/><rect fill="#FDECEC" height="1020.7969" style="stroke:#FDECEC;stroke-width:1;" width="282.0957" x="517.1914" y="56.0645"/><line style="stroke:#35506E;stroke-width:1.5;" x1="644.7393" x2="794.2871" y1="404.4551" y2="404.4551"/><rect fill="#FDFDFD" height="35.0938" rx="12.5" ry="12.5" style="stroke:#35506E;stroke-width:0.5;" width="189.0898" x="550.1943" y="424.4551"/><text fill="#000000" font-family="sans-serif" font-size="12" lengthAdjust="spacing" textLength="169.0898" x="560.1943" y="446.9121">input_tokens = RAW prd tokens</text><rect fill="#FDFDFD" height="35.0938" rx="12.5" ry="12.5" style="stroke:#35506E;stroke-width:0.5;" width="243.0957" x="523.1914" y="479.5488"/><text fill="#000000" font-family="sans-serif" font-size="12" lengthAdjust="spacing" textLength="223.0957" x="533.1914" y="502.0059">model = claude-opus-4-8 (premium, fixed)</text><rect fill="#FDFDFD" height="50.1875" rx="12.5" ry="12.5" style="stroke:#35506E;stroke-width:0.5;" width="200.4453" x="544.5166" y="534.6426"/><text fill="#000000" font-family="sans-serif" font-size="12" lengthAdjust="spacing" textLength="180.4453" x="554.5166" y="557.0996">anchor_plan(steps, index = None)</text><text fill="#000000" font-family="sans-serif" font-size="12" lengthAdjust="spacing" textLength="124.7402" x="554.5166" y="572.1934">NO anchoring available</text><rect fill="#FDFDFD" height="50.1875" rx="12.5" ry="12.5" style="stroke:#35506E;stroke-width:0.5;" width="237.1426" x="526.168" y="604.8301"/><text fill="#000000" font-family="sans-serif" font-size="12" lengthAdjust="spacing" textLength="78.6973" x="536.168" y="627.2871">score_quality()</text><text fill="#000000" font-family="sans-serif" font-size="12" lengthAdjust="spacing" textLength="217.1426" x="536.168" y="642.3809">loses anchoring + no-hallucination points</text><rect fill="#FDFDFD" height="35.0938" rx="12.5" ry="12.5" style="stroke:#35506E;stroke-width:0.5;" width="174.0664" x="557.7061" y="675.0176"/><text fill="#000000" font-family="sans-serif" font-size="12" lengthAdjust="spacing" textLength="154.0664" x="567.7061" y="697.4746">estimate_cost(model, in, out)</text><line style="stroke:#000000;stroke-width:1.5;" x1="517.1914" x2="517.1914" y1="56.0645" y2="1076.8613"/><rect fill="#E9F2FF" height="1020.7969" style="stroke:#E9F2FF;stroke-width:1;" width="400.8408" x="799.2871" y="56.0645"/><rect fill="#FDFDFD" height="35.0938" rx="12.5" ry="12.5" style="stroke:#35506E;stroke-width:0.5;" width="246.4414" x="946.0098" y="424.4551"/><text fill="#000000" font-family="sans-serif" font-size="12" lengthAdjust="spacing" textLength="226.4414" x="956.0098" y="446.9121">input_tokens = COMPRESSED prd tokens</text><rect fill="#FDFDFD" height="35.0938" rx="12.5" ry="12.5" style="stroke:#35506E;stroke-width:0.5;" width="253.7949" x="942.333" y="479.5488"/><text fill="#000000" font-family="sans-serif" font-size="12" lengthAdjust="spacing" textLength="233.7949" x="952.333" y="502.0059">route_task(task) -&gt; cheapest capable model</text><rect fill="#FDFDFD" height="50.1875" rx="12.5" ry="12.5" style="stroke:#35506E;stroke-width:0.5;" width="179.4277" x="979.5166" y="534.6426"/><text fill="#000000" font-family="sans-serif" font-size="12" lengthAdjust="spacing" textLength="138.082" x="989.5166" y="557.0996">anchor_plan(steps, index)</text><text fill="#000000" font-family="sans-serif" font-size="12" lengthAdjust="spacing" textLength="159.4277" x="989.5166" y="572.1934">steps anchored to real file:line</text><rect fill="#FDFDFD" height="50.1875" rx="12.5" ry="12.5" style="stroke:#35506E;stroke-width:0.5;" width="237.8164" x="950.3223" y="604.8301"/><text fill="#000000" font-family="sans-serif" font-size="12" lengthAdjust="spacing" textLength="78.6973" x="960.3223" y="627.2871">score_quality()</text><text fill="#000000" font-family="sans-serif" font-size="12" lengthAdjust="spacing" textLength="217.8164" x="960.3223" y="642.3809">gains anchoring + no-hallucination points</text><rect fill="#FDFDFD" height="35.0938" rx="12.5" ry="12.5" style="stroke:#35506E;stroke-width:0.5;" width="174.0664" x="982.1973" y="675.0176"/><text fill="#000000" font-family="sans-serif" font-size="12" lengthAdjust="spacing" textLength="154.0664" x="992.1973" y="697.4746">estimate_cost(model, in, out)</text><line style="stroke:#35506E;stroke-width:1.5;" x1="804.2871" x2="1069.2305" y1="730.1113" y2="730.1113"/><rect fill="#FDFDFD" height="65.2813" rx="12.5" ry="12.5" style="stroke:#35506E;stroke-width:0.5;" width="230.791" x="818.2871" y="750.1113"/><text fill="#000000" font-family="sans-serif" font-size="12" lengthAdjust="spacing" textLength="50.0215" x="828.2871" y="772.5684">ABResult</text><text fill="#000000" font-family="sans-serif" font-size="12" lengthAdjust="spacing" textLength="210.791" x="828.2871" y="787.6621">cost_savings_pct &#183; token_reduction_pct</text><text fill="#000000" font-family="sans-serif" font-size="12" lengthAdjust="spacing" textLength="125.4141" x="828.2871" y="802.7559">quality_delta (out of 25)</text><line style="stroke:#000000;stroke-width:1.5;" x1="799.2871" x2="799.2871" y1="56.0645" y2="1076.8613"/><rect fill="#F4F7FB" height="1020.7969" style="stroke:#F4F7FB;stroke-width:1;" width="480.1973" x="1200.1279" y="56.0645"/><rect fill="#FDFDFD" height="65.2813" rx="12.5" ry="12.5" style="stroke:#35506E;stroke-width:0.5;" width="289.4961" x="1302.4917" y="835.3926"/><text fill="#000000" font-family="sans-serif" font-size="12" lengthAdjust="spacing" textLength="144.0469" x="1312.4917" y="857.8496">ABSummary over all cases</text><text fill="#000000" font-family="sans-serif" font-size="12" lengthAdjust="spacing" textLength="269.4961" x="1312.4917" y="872.9434">avg cost savings ~58% &#183; avg input reduction ~73%</text><text fill="#000000" font-family="sans-serif" font-size="12" lengthAdjust="spacing" textLength="191.4375" x="1312.4917" y="888.0371">avg quality 24.0/25 (locked by tests)</text><polygon fill="#FFF4D6" points="1384.5591,920.6738,1509.9204,920.6738,1521.9204,932.6738,1509.9204,944.6738,1384.5591,944.6738,1372.5591,932.6738,1384.5591,920.6738" style="stroke:#B8860B;stroke-width:0.5;stroke-linejoin:miter;stroke-miterlimit:10;"/><text fill="#000000" font-family="sans-serif" font-size="11" lengthAdjust="spacing" textLength="125.3613" x="1384.5591" y="937.1748">command == dashboard?</text><text fill="#000000" font-family="sans-serif" font-size="11" lengthAdjust="spacing" textLength="17.1177" x="1355.4414" y="930.2568">yes</text><text fill="#000000" font-family="sans-serif" font-size="11" lengthAdjust="spacing" textLength="39.1338" x="1521.9204" y="930.2568">ab-suite</text><rect fill="#FDFDFD" height="50.1875" rx="12.5" ry="12.5" style="stroke:#35506E;stroke-width:0.5;" width="237.125" x="1206.1279" y="954.6738"/><text fill="#000000" font-family="sans-serif" font-size="12" lengthAdjust="spacing" textLength="217.125" x="1216.1279" y="977.1309">write_dashboard() -&gt; ab_dashboard.html</text><text fill="#000000" font-family="sans-serif" font-size="12" lengthAdjust="spacing" textLength="182.0801" x="1216.1279" y="992.2246">(self-contained cost/quality charts)</text><rect fill="#FDFDFD" height="35.0938" rx="12.5" ry="12.5" style="stroke:#35506E;stroke-width:0.5;" width="213.0723" x="1463.2529" y="954.6738"/><text fill="#000000" font-family="sans-serif" font-size="12" lengthAdjust="spacing" textLength="193.0723" x="1473.2529" y="977.1309">print suite summary + per-case lines</text><polygon fill="#FFF4D6" points="1447.2397,1010.8613,1459.2397,1022.8613,1447.2397,1034.8613,1435.2397,1022.8613,1447.2397,1010.8613" style="stroke:#B8860B;stroke-width:0.5;stroke-linejoin:miter;stroke-miterlimit:10;"/><ellipse cx="1447.2397" cy="1065.8613" fill="none" rx="11" ry="11" style="stroke:#222222;stroke-width:1;"/><ellipse cx="1447.2397" cy="1065.8613" fill="#222222" rx="6" ry="6" style="stroke:#222222;stroke-width:1;"/><line style="stroke:#000000;stroke-width:1.5;" x1="1200.1279" x2="1200.1279" y1="56.0645" y2="1076.8613"/><line style="stroke:#000000;stroke-width:1.5;" x1="1680.3252" x2="1680.3252" y1="56.0645" y2="1076.8613"/><line style="stroke:#35506E;stroke-width:1;" x1="122.7129" x2="122.7129" y1="103.7051" y2="123.7051"/><polygon fill="#35506E" points="118.7129,113.7051,122.7129,123.7051,126.7129,113.7051,122.7129,117.7051" style="stroke:#35506E;stroke-width:1;stroke-linejoin:miter;stroke-miterlimit:10;"/><line style="stroke:#35506E;stroke-width:1;" x1="122.7129" x2="122.7129" y1="173.8926" y2="193.8926"/><polygon fill="#35506E" points="118.7129,183.8926,122.7129,193.8926,126.7129,183.8926,122.7129,187.8926" style="stroke:#35506E;stroke-width:1;stroke-linejoin:miter;stroke-miterlimit:10;"/><line style="stroke:#35506E;stroke-width:1;" x1="371.3086" x2="371.3086" y1="314.2676" y2="334.2676"/><polygon fill="#35506E" points="367.3086,324.2676,371.3086,334.2676,375.3086,324.2676,371.3086,328.2676" style="stroke:#35506E;stroke-width:1;stroke-linejoin:miter;stroke-miterlimit:10;"/><line style="stroke:#35506E;stroke-width:1;" x1="644.7393" x2="644.7393" y1="459.5488" y2="479.5488"/><polygon fill="#35506E" points="640.7393,469.5488,644.7393,479.5488,648.7393,469.5488,644.7393,473.5488" style="stroke:#35506E;stroke-width:1;stroke-linejoin:miter;stroke-miterlimit:10;"/><line style="stroke:#35506E;stroke-width:1;" x1="644.7393" x2="644.7393" y1="514.6426" y2="534.6426"/><polygon fill="#35506E" points="640.7393,524.6426,644.7393,534.6426,648.7393,524.6426,644.7393,528.6426" style="stroke:#35506E;stroke-width:1;stroke-linejoin:miter;stroke-miterlimit:10;"/><line style="stroke:#35506E;stroke-width:1;" x1="644.7393" x2="644.7393" y1="584.8301" y2="604.8301"/><polygon fill="#35506E" points="640.7393,594.8301,644.7393,604.8301,648.7393,594.8301,644.7393,598.8301" style="stroke:#35506E;stroke-width:1;stroke-linejoin:miter;stroke-miterlimit:10;"/><line style="stroke:#35506E;stroke-width:1;" x1="644.7393" x2="644.7393" y1="655.0176" y2="675.0176"/><polygon fill="#35506E" points="640.7393,665.0176,644.7393,675.0176,648.7393,665.0176,644.7393,669.0176" style="stroke:#35506E;stroke-width:1;stroke-linejoin:miter;stroke-miterlimit:10;"/><line style="stroke:#35506E;stroke-width:1;" x1="644.7393" x2="644.7393" y1="405.9551" y2="424.4551"/><polygon fill="#35506E" points="640.7393,414.4551,644.7393,424.4551,648.7393,414.4551,644.7393,418.4551" style="stroke:#35506E;stroke-width:1;stroke-linejoin:miter;stroke-miterlimit:10;"/><line style="stroke:#35506E;stroke-width:1;" x1="1069.2305" x2="1069.2305" y1="459.5488" y2="479.5488"/><polygon fill="#35506E" points="1065.2305,469.5488,1069.2305,479.5488,1073.2305,469.5488,1069.2305,473.5488" style="stroke:#35506E;stroke-width:1;stroke-linejoin:miter;stroke-miterlimit:10;"/><line style="stroke:#35506E;stroke-width:1;" x1="1069.2305" x2="1069.2305" y1="514.6426" y2="534.6426"/><polygon fill="#35506E" points="1065.2305,524.6426,1069.2305,534.6426,1073.2305,524.6426,1069.2305,528.6426" style="stroke:#35506E;stroke-width:1;stroke-linejoin:miter;stroke-miterlimit:10;"/><line style="stroke:#35506E;stroke-width:1;" x1="1069.2305" x2="1069.2305" y1="584.8301" y2="604.8301"/><polygon fill="#35506E" points="1065.2305,594.8301,1069.2305,604.8301,1073.2305,594.8301,1069.2305,598.8301" style="stroke:#35506E;stroke-width:1;stroke-linejoin:miter;stroke-miterlimit:10;"/><line style="stroke:#35506E;stroke-width:1;" x1="1069.2305" x2="1069.2305" y1="655.0176" y2="675.0176"/><polygon fill="#35506E" points="1065.2305,665.0176,1069.2305,675.0176,1073.2305,665.0176,1069.2305,669.0176" style="stroke:#35506E;stroke-width:1;stroke-linejoin:miter;stroke-miterlimit:10;"/><line style="stroke:#35506E;stroke-width:1;" x1="1069.2305" x2="1069.2305" y1="710.1113" y2="730.1113"/><polygon fill="#35506E" points="1065.2305,720.1113,1069.2305,730.1113,1073.2305,720.1113,1069.2305,724.1113" style="stroke:#35506E;stroke-width:1;stroke-linejoin:miter;stroke-miterlimit:10;"/><line style="stroke:#35506E;stroke-width:1;" x1="933.6826" x2="933.6826" y1="731.6113" y2="750.1113"/><polygon fill="#35506E" points="929.6826,740.1113,933.6826,750.1113,937.6826,740.1113,933.6826,744.1113" style="stroke:#35506E;stroke-width:1;stroke-linejoin:miter;stroke-miterlimit:10;"/><line style="stroke:#35506E;stroke-width:1;" x1="1372.5591" x2="1324.6904" y1="932.6738" y2="932.6738"/><line style="stroke:#35506E;stroke-width:1;" x1="1324.6904" x2="1324.6904" y1="932.6738" y2="954.6738"/><polygon fill="#35506E" points="1320.6904,944.6738,1324.6904,954.6738,1328.6904,944.6738,1324.6904,948.6738" style="stroke:#35506E;stroke-width:1;stroke-linejoin:miter;stroke-miterlimit:10;"/><line style="stroke:#35506E;stroke-width:1;" x1="1521.9204" x2="1569.7891" y1="932.6738" y2="932.6738"/><line style="stroke:#35506E;stroke-width:1;" x1="1569.7891" x2="1569.7891" y1="932.6738" y2="954.6738"/><polygon fill="#35506E" points="1565.7891,944.6738,1569.7891,954.6738,1573.7891,944.6738,1569.7891,948.6738" style="stroke:#35506E;stroke-width:1;stroke-linejoin:miter;stroke-miterlimit:10;"/><line style="stroke:#35506E;stroke-width:1;" x1="1324.6904" x2="1324.6904" y1="1004.8613" y2="1022.8613"/><line style="stroke:#35506E;stroke-width:1;" x1="1324.6904" x2="1435.2397" y1="1022.8613" y2="1022.8613"/><polygon fill="#35506E" points="1425.2397,1018.8613,1435.2397,1022.8613,1425.2397,1026.8613,1429.2397,1022.8613" style="stroke:#35506E;stroke-width:1;stroke-linejoin:miter;stroke-miterlimit:10;"/><line style="stroke:#35506E;stroke-width:1;" x1="1569.7891" x2="1569.7891" y1="989.7676" y2="1022.8613"/><line style="stroke:#35506E;stroke-width:1;" x1="1569.7891" x2="1459.2397" y1="1022.8613" y2="1022.8613"/><polygon fill="#35506E" points="1469.2397,1018.8613,1459.2397,1022.8613,1469.2397,1026.8613,1465.2397,1022.8613" style="stroke:#35506E;stroke-width:1;stroke-linejoin:miter;stroke-miterlimit:10;"/><line style="stroke:#35506E;stroke-width:1;" x1="1447.2397" x2="1447.2397" y1="900.6738" y2="920.6738"/><polygon fill="#35506E" points="1443.2397,910.6738,1447.2397,920.6738,1451.2397,910.6738,1447.2397,914.6738" style="stroke:#35506E;stroke-width:1;stroke-linejoin:miter;stroke-miterlimit:10;"/><line style="stroke:#35506E;stroke-width:1;" x1="1447.2397" x2="1447.2397" y1="1034.8613" y2="1054.8613"/><polygon fill="#35506E" points="1443.2397,1044.8613,1447.2397,1054.8613,1451.2397,1044.8613,1447.2397,1048.8613" style="stroke:#35506E;stroke-width:1;stroke-linejoin:miter;stroke-miterlimit:10;"/><line style="stroke:#35506E;stroke-width:1;" x1="122.7129" x2="122.7129" y1="244.0801" y2="249.0801"/><line style="stroke:#35506E;stroke-width:1;" x1="122.7129" x2="371.3086" y1="249.0801" y2="249.0801"/><line style="stroke:#35506E;stroke-width:1;" x1="371.3086" x2="371.3086" y1="249.0801" y2="264.0801"/><polygon fill="#35506E" points="367.3086,254.0801,371.3086,264.0801,375.3086,254.0801,371.3086,258.0801" style="stroke:#35506E;stroke-width:1;stroke-linejoin:miter;stroke-miterlimit:10;"/><line style="stroke:#35506E;stroke-width:1;" x1="794.2871" x2="794.2871" y1="405.9551" y2="409.4551"/><line style="stroke:#35506E;stroke-width:1;" x1="794.2871" x2="1069.2305" y1="409.4551" y2="409.4551"/><line style="stroke:#35506E;stroke-width:1;" x1="1069.2305" x2="1069.2305" y1="409.4551" y2="424.4551"/><polygon fill="#35506E" points="1065.2305,414.4551,1069.2305,424.4551,1073.2305,414.4551,1069.2305,418.4551" style="stroke:#35506E;stroke-width:1;stroke-linejoin:miter;stroke-miterlimit:10;"/><line style="stroke:#35506E;stroke-width:1;" x1="644.7393" x2="644.7393" y1="710.1113" y2="716.1113"/><line style="stroke:#35506E;stroke-width:1;" x1="644.7393" x2="804.2871" y1="716.1113" y2="716.1113"/><line style="stroke:#35506E;stroke-width:1;" x1="804.2871" x2="804.2871" y1="716.1113" y2="730.1113"/><polygon fill="#35506E" points="800.2871,720.1113,804.2871,730.1113,808.2871,720.1113,804.2871,724.1113" style="stroke:#35506E;stroke-width:1;stroke-linejoin:miter;stroke-miterlimit:10;"/><line style="stroke:#35506E;stroke-width:1;" x1="371.3086" x2="371.3086" y1="384.4551" y2="389.4551"/><line style="stroke:#35506E;stroke-width:1;" x1="371.3086" x2="780.2871" y1="389.4551" y2="389.4551"/><line style="stroke:#35506E;stroke-width:1;" x1="780.2871" x2="780.2871" y1="389.4551" y2="404.4551"/><polygon fill="#35506E" points="776.2871,394.4551,780.2871,404.4551,784.2871,394.4551,780.2871,398.4551" style="stroke:#35506E;stroke-width:1;stroke-linejoin:miter;stroke-miterlimit:10;"/><line style="stroke:#35506E;stroke-width:1;" x1="933.6826" x2="933.6826" y1="815.3926" y2="820.3926"/><line style="stroke:#35506E;stroke-width:1;" x1="933.6826" x2="1447.2397" y1="820.3926" y2="820.3926"/><line style="stroke:#35506E;stroke-width:1;" x1="1447.2397" x2="1447.2397" y1="820.3926" y2="835.3926"/><polygon fill="#35506E" points="1443.2397,825.3926,1447.2397,835.3926,1451.2397,825.3926,1447.2397,829.3926" style="stroke:#35506E;stroke-width:1;stroke-linejoin:miter;stroke-miterlimit:10;"/><text fill="#000000" font-family="sans-serif" font-size="18" lengthAdjust="spacing" textLength="47.0391" x="98.1934" y="74.75">Setup</text><text fill="#000000" font-family="sans-serif" font-size="18" lengthAdjust="spacing" textLength="249.1172" x="245.75" y="74.75">Per test case &#8212; run_ab_case()</text><text fill="#000000" font-family="sans-serif" font-size="18" lengthAdjust="spacing" textLength="147.0498" x="584.7144" y="74.75">Arm A &#8212; Baseline</text><text fill="#000000" font-family="sans-serif" font-size="18" lengthAdjust="spacing" textLength="159.0293" x="920.1929" y="74.75">Arm B &#8212; Optimised</text><text fill="#000000" font-family="sans-serif" font-size="18" lengthAdjust="spacing" textLength="152.0947" x="1364.1792" y="74.75">Aggregate &amp; report</text><?plantuml-src hLJDRjj64BxpAGO8qf28Q1kovQWot4Aon5CI1pRQNWmGAt8eBRJStUoF5A5gq8Vek_JUHycJP7P9sseRz5G84BWxEpFVVD_Cl8BRfX5S8anFPx1bWjVCSILXpOn4Qo55klJnxfGjI-EbH7EYzmEeb7NX8ta57pqvkZrPbuPNqKfXc4Ld-uDTBnKpDPsoayHn9n0AeNRmvVS_OkQVdpD3kYJFY6bhGMd7Mswn7i1mb6i7NOuiIUo6IyqCQy6kMQrsNAwWOSBYaOLLZcy96VoQ0CnOjLaPvMLzeuGoyAAOXr-mA5EZwM_FHwEpomNTpZbhbQp_xLOK5_FBemV7thFn-F9iHiQfCMhtzv2_9SdXHN5Hl2bcXtjqNXyIwvXnoSIoLWiiAohSfjc374E3p7c3OF2ZH-iibM8KwJ64sK_sAfaiFHTroMMDdrA3McMWP8KFCYKo3DQaJes1Hx3xTga4n9VPLK2mc1RdY-dX0nfm51f2rYW4YLkInk6SPeTaKgbM6sg2Kfiw3RSdz47eyXyYB6wmHUc0ETLIenYsW-_WqOSWEBL1QIddH0icoqQcHrvs0DGWcmmeM323TQWjuLTzFrhdbx3SGuqDyy9TmTktxt8j_6h5bjGzQwKseHohgVE8RY9slhXPt1ocfeLfB6VMjz61p1Fg2E_A3X9Smztq5w1YUenNuKLBZ0aoLOBv6dEblSqlyZ6aL4_BVJk0Xd_2EekFcQpMofG1UHgH3pg6oV-zaaWalR-5xb7eIxPbN0JSqTbMoc3P3qsGMoZI_UZvQv0gNpCXVCLbDnLQSI8jkfDcl6MEseKcC8smG_O1AEy8NMG4s8fn6NbPV5yCYoBoCekyt3wErBU8kRbzz-5kSN-_cF-J7ne1oXb4Iv-KgzR8TDT3EieIqVmdGrHkFFRbnZwXTcA2w1Ku2O9zcwHGqFz64ieQkjP99jFP7LfgiGSPtfQMRIayDNtbuAy_EmPAmkcha2DSFyZ7XKTH7OEKOe9gQ45r0zQF-7IrChWY33GMOKIDEuHazxvjcTc3sj804lmuVzJvRBkAEnLw0F1vD7uP40H3L0cUKC3dD-SlEvSU2WmlJivEXoD8XQesn2gDJfZkC7-yWPJcicLKzFNrypR-CGEtHWdf7cqMIDiPJemzsTEeCMs4v_szTgq8ImP5arTAEj8aBXlhJX-1LBI0ObgaNGmfM-RMKzYOG9DoL60uqt_7mslGQFAuX8BuDeh36rgDIYTV0G00?></g></svg>