<svg xmlns="http://www.w3.org/2000/svg" xmlns:xlink="http://www.w3.org/1999/xlink" contentStyleType="text/css" data-diagram-type="ACTIVITY" height="1443px" preserveAspectRatio="none" style="width:2262px;height:1443px;background:#FFFFFF;" version="1.1" viewBox="0 0 2262 1443" width="2262px" zoomAndPan="magnify"><?plantuml 1.2026.6?><defs/><g><g class="title" data-source-line="3"><text fill="#000000" font-family="sans-serif" font-size="14" font-weight="700" lengthAdjust="spacing" textLength="323.9961" x="968.4551" y="34.5332">Flow &#8212; End-to-End Data Flow (the shared spine)</text></g><rect fill="none" height="22.6406" style="stroke:none;stroke-width:1;" width="2215.9063" x="20" y="56.0645"/><rect fill="#F4F7FB" height="1366.6445" style="stroke:#F4F7FB;stroke-width:1;" width="240.7441" x="20" y="56.0645"/><ellipse cx="141.3721" cy="93.7051" fill="#222222" rx="10" ry="10" style="stroke:#222222;stroke-width:1;"/><rect fill="#FDFDFD" height="50.1875" rx="12.5" ry="12.5" style="stroke:#35506E;stroke-width:0.5;" width="202.0684" x="40.3379" y="123.7051"/><text fill="#000000" font-family="sans-serif" font-size="12" lengthAdjust="spacing" textLength="120.0469" x="50.3379" y="146.1621">user picks a command</text><text fill="#000000" font-family="sans-serif" font-size="12" lengthAdjust="spacing" textLength="182.0684" x="50.3379" y="161.2559">(UI tab / tokenopt CLI / library call)</text><rect fill="#FDFDFD" height="50.1875" rx="12.5" ry="12.5" style="stroke:#35506E;stroke-width:0.5;" width="230.7441" x="26" y="193.8926"/><text fill="#000000" font-family="sans-serif" font-size="12" lengthAdjust="spacing" textLength="118.7109" x="36" y="216.3496">Config() from env/.env</text><text fill="#000000" font-family="sans-serif" font-size="12" lengthAdjust="spacing" textLength="210.7441" x="36" y="231.4434">(build_config merges UI form overrides)</text><line style="stroke:#000000;stroke-width:1.5;" x1="20" x2="20" y1="56.0645" y2="1422.709"/><rect fill="#EDEDED" height="1366.6445" style="stroke:#EDEDED;stroke-width:1;" width="899.0801" x="260.7441" y="56.0645"/><polygon fill="#FFF4D6" points="309.4517,264.0801,372.4331,264.0801,384.4331,276.0801,372.4331,288.0801,309.4517,288.0801,297.4517,276.0801,309.4517,264.0801" style="stroke:#B8860B;stroke-width:0.5;stroke-linejoin:miter;stroke-miterlimit:10;"/><text fill="#000000" font-family="sans-serif" font-size="11" lengthAdjust="spacing" textLength="48.3076" x="344.9424" y="299.499">document</text><text fill="#000000" font-family="sans-serif" font-size="11" lengthAdjust="spacing" textLength="62.9814" x="309.4517" y="280.5811">source type?</text><rect fill="#FDFDFD" height="35.0938" rx="12.5" ry="12.5" style="stroke:#35506E;stroke-width:0.5;" width="148.3965" x="266.7441" y="321.916"/><text fill="#000000" font-family="sans-serif" font-size="12" lengthAdjust="spacing" textLength="128.3965" x="276.7441" y="344.373">read_document() -&gt; text</text><polygon fill="#FFF4D6" points="516.0088,264.0801,540.0088,264.0801,552.0088,276.0801,540.0088,288.0801,516.0088,288.0801,504.0088,276.0801,516.0088,264.0801" style="stroke:#B8860B;stroke-width:0.5;stroke-linejoin:miter;stroke-miterlimit:10;"/><text fill="#000000" font-family="sans-serif" font-size="11" lengthAdjust="spacing" textLength="23.8369" x="516.0903" y="280.5811">JIRA</text><rect fill="#FDFDFD" height="35.0938" rx="12.5" ry="12.5" style="stroke:#35506E;stroke-width:0.5;" width="205.7363" x="425.1406" y="308.0801"/><text fill="#000000" font-family="sans-serif" font-size="12" lengthAdjust="spacing" textLength="185.7363" x="435.1406" y="330.5371">JiraConnector.search(jql) -&gt; issues</text><polygon fill="#FFF4D6" points="753.3228,264.0801,787.5581,264.0801,799.5581,276.0801,787.5581,288.0801,753.3228,288.0801,741.3228,276.0801,753.3228,264.0801" style="stroke:#B8860B;stroke-width:0.5;stroke-linejoin:miter;stroke-miterlimit:10;"/><text fill="#000000" font-family="sans-serif" font-size="11" lengthAdjust="spacing" textLength="34.2354" x="753.3228" y="280.5811">GitHub</text><text fill="#000000" font-family="sans-serif" font-size="11" lengthAdjust="spacing" textLength="37.2969" x="799.5581" y="273.6631">Jenkins</text><rect fill="#FDFDFD" height="35.0938" rx="12.5" ry="12.5" style="stroke:#35506E;stroke-width:0.5;" width="259.127" x="640.877" y="308.0801"/><text fill="#000000" font-family="sans-serif" font-size="12" lengthAdjust="spacing" textLength="239.127" x="650.877" y="330.5371">GitHubConnector get_pr/list_open_prs (+diff)</text><rect fill="#FDFDFD" height="35.0938" rx="12.5" ry="12.5" style="stroke:#35506E;stroke-width:0.5;" width="245.8203" x="910.0039" y="317.998"/><text fill="#000000" font-family="sans-serif" font-size="12" lengthAdjust="spacing" textLength="225.8203" x="920.0039" y="340.4551">JenkinsConnector get_build + console_log</text><line style="stroke:#000000;stroke-width:1.5;" x1="260.7441" x2="260.7441" y1="56.0645" y2="1422.709"/><rect fill="#EAF3EA" height="1366.6445" style="stroke:#EAF3EA;stroke-width:1;" width="310.0879" x="1159.8242" y="56.0645"/><rect fill="#FDFDFD" height="35.0938" rx="12.5" ry="12.5" style="stroke:#35506E;stroke-width:0.5;" width="175.4023" x="1218.8398" y="397.0098"/><text fill="#000000" font-family="sans-serif" font-size="12" lengthAdjust="spacing" textLength="155.4023" x="1228.8398" y="419.4668">count RAW tokens (baseline)</text><rect fill="#FDFDFD" height="35.0938" rx="12.5" ry="12.5" style="stroke:#35506E;stroke-width:0.5;" width="273.4355" x="1169.8232" y="452.1035"/><text fill="#000000" font-family="sans-serif" font-size="12" lengthAdjust="spacing" textLength="253.4355" x="1179.8232" y="474.5605">prefilter_fields (structured) / reduce_text (prose)</text><rect fill="#FDFDFD" height="35.0938" rx="12.5" ry="12.5" style="stroke:#35506E;stroke-width:0.5;" width="281.4336" x="1165.8242" y="507.1973"/><text fill="#000000" font-family="sans-serif" font-size="12" lengthAdjust="spacing" textLength="261.4336" x="1175.8242" y="529.6543">compress_text / compress_prose / compress_diff</text><rect fill="#FDFDFD" height="35.0938" rx="12.5" ry="12.5" style="stroke:#35506E;stroke-width:0.5;" width="268.7422" x="1172.1699" y="611.209"/><text fill="#000000" font-family="sans-serif" font-size="12" lengthAdjust="spacing" textLength="248.7422" x="1182.1699" y="633.666">summarize  Haiku -&gt; local Ollama -&gt; extractive</text><polygon fill="#FFF4D6" points="1272.926,562.291,1340.156,562.291,1352.156,574.291,1340.156,586.291,1272.926,586.291,1260.926,574.291,1272.926,562.291" style="stroke:#B8860B;stroke-width:0.5;stroke-linejoin:miter;stroke-miterlimit:10;"/><text fill="#000000" font-family="sans-serif" font-size="11" lengthAdjust="spacing" textLength="17.1177" x="1310.541" y="597.71">yes</text><text fill="#000000" font-family="sans-serif" font-size="11" lengthAdjust="spacing" textLength="67.23" x="1272.926" y="578.792">--summarize?</text><text fill="#000000" font-family="sans-serif" font-size="11" lengthAdjust="spacing" textLength="12.2354" x="1352.156" y="571.874">no</text><polygon fill="#FFF4D6" points="1306.541,666.3027,1318.541,678.3027,1306.541,690.3027,1294.541,678.3027,1306.541,666.3027" style="stroke:#B8860B;stroke-width:0.5;stroke-linejoin:miter;stroke-miterlimit:10;"/><rect fill="#FDFDFD" height="50.1875" rx="12.5" ry="12.5" style="stroke:#35506E;stroke-width:0.5;" width="250.7715" x="1181.1553" y="710.3027"/><text fill="#000000" font-family="sans-serif" font-size="12" lengthAdjust="spacing" textLength="113.3848" x="1191.1553" y="732.7598">build minimal request</text><text fill="#000000" font-family="sans-serif" font-size="12" lengthAdjust="spacing" textLength="230.7715" x="1191.1553" y="747.8535">(stable system prefix + terse task + &lt;data&gt;)</text><rect fill="#FDFDFD" height="35.0938" rx="12.5" ry="12.5" style="stroke:#35506E;stroke-width:0.5;" width="156.7109" x="1228.1855" y="780.4902"/><text fill="#000000" font-family="sans-serif" font-size="12" lengthAdjust="spacing" textLength="136.7109" x="1238.1855" y="802.9473">count OPTIMIZED tokens</text><line style="stroke:#000000;stroke-width:1.5;" x1="1159.8242" x2="1159.8242" y1="56.0645" y2="1422.709"/><rect fill="#E9F2FF" height="1366.6445" style="stroke:#E9F2FF;stroke-width:1;" width="438.9995" x="1469.9121" y="56.0645"/><rect fill="#FDFDFD" height="35.0938" rx="12.5" ry="12.5" style="stroke:#35506E;stroke-width:0.5;" width="148.7246" x="1601.0452" y="835.584"/><text fill="#000000" font-family="sans-serif" font-size="12" lengthAdjust="spacing" textLength="128.7246" x="1611.0452" y="858.041">ClaudeClient.complete()</text><polygon fill="#FFF4D6" points="1584.2949,890.6777,1766.52,890.6777,1778.52,902.6777,1766.52,914.6777,1584.2949,914.6777,1572.2949,902.6777,1584.2949,890.6777" style="stroke:#B8860B;stroke-width:0.5;stroke-linejoin:miter;stroke-miterlimit:10;"/><text fill="#000000" font-family="sans-serif" font-size="11" lengthAdjust="spacing" textLength="182.2251" x="1584.2949" y="907.1787">identical request in ResponseCache?</text><text fill="#000000" font-family="sans-serif" font-size="11" lengthAdjust="spacing" textLength="11.6177" x="1560.6772" y="900.2607">hit</text><text fill="#000000" font-family="sans-serif" font-size="11" lengthAdjust="spacing" textLength="22.6069" x="1778.52" y="900.2607">miss</text><rect fill="#FDFDFD" height="50.1875" rx="12.5" ry="12.5" style="stroke:#35506E;stroke-width:0.5;" width="172.7656" x="1475.9121" y="924.6777"/><text fill="#000000" font-family="sans-serif" font-size="12" lengthAdjust="spacing" textLength="96.0527" x="1485.9121" y="947.1348">return cached text</text><text fill="#000000" font-family="sans-serif" font-size="12" lengthAdjust="spacing" textLength="152.7656" x="1485.9121" y="962.2285">0 tokens &#183; local_cache_hit++</text><rect fill="#FDFDFD" height="65.2813" rx="12.5" ry="12.5" style="stroke:#35506E;stroke-width:0.5;" width="232.7832" x="1672.1284" y="924.6777"/><text fill="#000000" font-family="sans-serif" font-size="12" lengthAdjust="spacing" textLength="94.7109" x="1682.1284" y="947.1348">call Anthropic API</text><text fill="#000000" font-family="sans-serif" font-size="12" lengthAdjust="spacing" textLength="198.7559" x="1682.1284" y="962.2285">native prompt cache on system prefix</text><text fill="#000000" font-family="sans-serif" font-size="12" lengthAdjust="spacing" textLength="212.7832" x="1682.1284" y="977.3223">(~0.1x reads) &#183; adaptive thinking + effort</text><rect fill="#FDFDFD" height="35.0938" rx="12.5" ry="12.5" style="stroke:#35506E;stroke-width:0.5;" width="217.4316" x="1679.8042" y="1009.959"/><text fill="#000000" font-family="sans-serif" font-size="12" lengthAdjust="spacing" textLength="197.4316" x="1689.8042" y="1032.416">tally Usage &#183; store response in cache</text><polygon fill="#FFF4D6" points="1675.4075,1051.0527,1687.4075,1063.0527,1675.4075,1075.0527,1663.4075,1063.0527,1675.4075,1051.0527" style="stroke:#B8860B;stroke-width:0.5;stroke-linejoin:miter;stroke-miterlimit:10;"/><rect fill="#FDFDFD" height="35.0938" rx="12.5" ry="12.5" style="stroke:#35506E;stroke-width:0.5;" width="236.7266" x="1557.0442" y="1095.0527"/><text fill="#000000" font-family="sans-serif" font-size="12" lengthAdjust="spacing" textLength="216.7266" x="1567.0442" y="1117.5098">estimate_cost() from Usage x _PRICING</text><line style="stroke:#000000;stroke-width:1.5;" x1="1469.9121" x2="1469.9121" y1="56.0645" y2="1422.709"/><rect fill="#FDF3E7" height="1366.6445" style="stroke:#FDF3E7;stroke-width:1;" width="325.4941" x="1908.9116" y="56.0645"/><rect fill="#FDFDFD" height="50.1875" rx="12.5" ry="12.5" style="stroke:#35506E;stroke-width:0.5;" width="216.7637" x="1964.2769" y="1150.1465"/><text fill="#000000" font-family="sans-serif" font-size="12" lengthAdjust="spacing" textLength="184.0664" x="1974.2769" y="1172.6035">Result &#8212; raw vs optimized tokens,</text><text fill="#000000" font-family="sans-serif" font-size="12" lengthAdjust="spacing" textLength="196.7637" x="1974.2769" y="1187.6973">%saved, cache hits, est. cost, stages</text><rect fill="#FDFDFD" height="35.0938" rx="12.5" ry="12.5" style="stroke:#35506E;stroke-width:0.5;" width="213.418" x="1965.9497" y="1220.334"/><text fill="#000000" font-family="sans-serif" font-size="12" lengthAdjust="spacing" textLength="193.418" x="1975.9497" y="1242.791">write optimized_output.txt (doc runs)</text><rect fill="#FDFDFD" height="50.1875" rx="12.5" ry="12.5" style="stroke:#35506E;stroke-width:0.5;" width="221.123" x="1962.0972" y="1275.4277"/><text fill="#000000" font-family="sans-serif" font-size="12" lengthAdjust="spacing" textLength="201.123" x="1972.0972" y="1297.8848">log_run() -&gt; logs/&lt;run_id&gt;_&lt;cmd&gt;.log</text><text fill="#000000" font-family="sans-serif" font-size="12" lengthAdjust="spacing" textLength="187.7344" x="1972.0972" y="1312.9785">(metrics + config, secrets redacted)</text><rect fill="#FDFDFD" height="35.0938" rx="12.5" ry="12.5" style="stroke:#35506E;stroke-width:0.5;" width="315.4941" x="1914.9116" y="1345.6152"/><text fill="#000000" font-family="sans-serif" font-size="12" lengthAdjust="spacing" textLength="295.4941" x="1924.9116" y="1368.0723">optional: post PR comment &#183; render ab_dashboard.html</text><ellipse cx="2072.6587" cy="1411.709" fill="none" rx="11" ry="11" style="stroke:#222222;stroke-width:1;"/><ellipse cx="2072.6587" cy="1411.709" fill="#222222" rx="6" ry="6" style="stroke:#222222;stroke-width:1;"/><line style="stroke:#000000;stroke-width:1.5;" x1="1908.9116" x2="1908.9116" y1="56.0645" y2="1422.709"/><line style="stroke:#000000;stroke-width:1.5;" x1="2234.4058" x2="2234.4058" y1="56.0645" y2="1422.709"/><line style="stroke:#35506E;stroke-width:1;" x1="141.3721" x2="141.3721" y1="103.7051" y2="123.7051"/><polygon fill="#35506E" points="137.3721,113.7051,141.3721,123.7051,145.3721,113.7051,141.3721,117.7051" style="stroke:#35506E;stroke-width:1;stroke-linejoin:miter;stroke-miterlimit:10;"/><line style="stroke:#35506E;stroke-width:1;" x1="141.3721" x2="141.3721" y1="173.8926" y2="193.8926"/><polygon fill="#35506E" points="137.3721,183.8926,141.3721,193.8926,145.3721,183.8926,141.3721,187.8926" style="stroke:#35506E;stroke-width:1;stroke-linejoin:miter;stroke-miterlimit:10;"/><line style="stroke:#35506E;stroke-width:1;" x1="340.9424" x2="340.9424" y1="288.0801" y2="321.916"/><polygon fill="#35506E" points="336.9424,311.916,340.9424,321.916,344.9424,311.916,340.9424,315.916" style="stroke:#35506E;stroke-width:1;stroke-linejoin:miter;stroke-miterlimit:10;"/><line style="stroke:#35506E;stroke-width:1;" x1="340.9424" x2="340.9424" y1="357.0098" y2="377.0098"/><polygon fill="#35506E" points="336.9424,367.0098,340.9424,377.0098,344.9424,367.0098,340.9424,371.0098" style="stroke:#35506E;stroke-width:1;stroke-linejoin:miter;stroke-miterlimit:10;"/><line style="stroke:#35506E;stroke-width:1;" x1="528.0088" x2="528.0088" y1="288.0801" y2="308.0801"/><polygon fill="#35506E" points="524.0088,298.0801,528.0088,308.0801,532.0088,298.0801,528.0088,302.0801" style="stroke:#35506E;stroke-width:1;stroke-linejoin:miter;stroke-miterlimit:10;"/><line style="stroke:#35506E;stroke-width:1;" x1="528.0088" x2="528.0088" y1="343.1738" y2="377.0098"/><polygon fill="#35506E" points="524.0088,367.0098,528.0088,377.0098,532.0088,367.0098,528.0088,371.0098" style="stroke:#35506E;stroke-width:1;stroke-linejoin:miter;stroke-miterlimit:10;"/><line style="stroke:#35506E;stroke-width:1;" x1="770.4404" x2="770.4404" y1="288.0801" y2="308.0801"/><polygon fill="#35506E" points="766.4404,298.0801,770.4404,308.0801,774.4404,298.0801,770.4404,302.0801" style="stroke:#35506E;stroke-width:1;stroke-linejoin:miter;stroke-miterlimit:10;"/><line style="stroke:#35506E;stroke-width:1;" x1="770.4404" x2="770.4404" y1="343.1738" y2="377.0098"/><polygon fill="#35506E" points="766.4404,367.0098,770.4404,377.0098,774.4404,367.0098,770.4404,371.0098" style="stroke:#35506E;stroke-width:1;stroke-linejoin:miter;stroke-miterlimit:10;"/><line style="stroke:#35506E;stroke-width:1;" x1="384.4331" x2="504.0088" y1="276.0801" y2="276.0801"/><polygon fill="#35506E" points="494.0088,272.0801,504.0088,276.0801,494.0088,280.0801,498.0088,276.0801" style="stroke:#35506E;stroke-width:1;stroke-linejoin:miter;stroke-miterlimit:10;"/><line style="stroke:#35506E;stroke-width:1;" x1="552.0088" x2="741.3228" y1="276.0801" y2="276.0801"/><polygon fill="#35506E" points="731.3228,272.0801,741.3228,276.0801,731.3228,280.0801,735.3228,276.0801" style="stroke:#35506E;stroke-width:1;stroke-linejoin:miter;stroke-miterlimit:10;"/><line style="stroke:#35506E;stroke-width:1;" x1="141.3721" x2="141.3721" y1="244.0801" y2="249.0801"/><line style="stroke:#35506E;stroke-width:1;" x1="141.3721" x2="340.9424" y1="249.0801" y2="249.0801"/><line style="stroke:#35506E;stroke-width:1;" x1="340.9424" x2="340.9424" y1="249.0801" y2="264.0801"/><polygon fill="#35506E" points="336.9424,254.0801,340.9424,264.0801,344.9424,254.0801,340.9424,258.0801" style="stroke:#35506E;stroke-width:1;stroke-linejoin:miter;stroke-miterlimit:10;"/><line style="stroke:#35506E;stroke-width:1;" x1="799.5581" x2="1032.9141" y1="276.0801" y2="276.0801"/><line style="stroke:#35506E;stroke-width:1;" x1="1032.9141" x2="1032.9141" y1="276.0801" y2="317.998"/><polygon fill="#35506E" points="1028.9141,307.998,1032.9141,317.998,1036.9141,307.998,1032.9141,311.998" style="stroke:#35506E;stroke-width:1;stroke-linejoin:miter;stroke-miterlimit:10;"/><line style="stroke:#35506E;stroke-width:1;" x1="1032.9141" x2="1032.9141" y1="353.0918" y2="377.0098"/><polygon fill="#35506E" points="1028.9141,367.0098,1032.9141,377.0098,1036.9141,367.0098,1032.9141,371.0098" style="stroke:#35506E;stroke-width:1;stroke-linejoin:miter;stroke-miterlimit:10;"/><line style="stroke:#35506E;stroke-width:1;" x1="340.9424" x2="1032.9141" y1="377.0098" y2="377.0098"/><line style="stroke:#35506E;stroke-width:1;" x1="1306.541" x2="1306.541" y1="432.1035" y2="452.1035"/><polygon fill="#35506E" points="1302.541,442.1035,1306.541,452.1035,1310.541,442.1035,1306.541,446.1035" style="stroke:#35506E;stroke-width:1;stroke-linejoin:miter;stroke-miterlimit:10;"/><line style="stroke:#35506E;stroke-width:1;" x1="1306.541" x2="1306.541" y1="487.1973" y2="507.1973"/><polygon fill="#35506E" points="1302.541,497.1973,1306.541,507.1973,1310.541,497.1973,1306.541,501.1973" style="stroke:#35506E;stroke-width:1;stroke-linejoin:miter;stroke-miterlimit:10;"/><line style="stroke:#35506E;stroke-width:1;" x1="1306.541" x2="1306.541" y1="586.291" y2="611.209"/><polygon fill="#35506E" points="1302.541,601.209,1306.541,611.209,1310.541,601.209,1306.541,605.209" style="stroke:#35506E;stroke-width:1;stroke-linejoin:miter;stroke-miterlimit:10;"/><line style="stroke:#35506E;stroke-width:1;" x1="1352.156" x2="1450.9121" y1="574.291" y2="574.291"/><polygon fill="#35506E" points="1446.9121,618.7559,1450.9121,628.7559,1454.9121,618.7559,1450.9121,622.7559" style="stroke:#35506E;stroke-width:1;stroke-linejoin:miter;stroke-miterlimit:10;"/><line style="stroke:#35506E;stroke-width:1;" x1="1450.9121" x2="1450.9121" y1="574.291" y2="678.3027"/><line style="stroke:#35506E;stroke-width:1;" x1="1450.9121" x2="1318.541" y1="678.3027" y2="678.3027"/><polygon fill="#35506E" points="1328.541,674.3027,1318.541,678.3027,1328.541,682.3027,1324.541,678.3027" style="stroke:#35506E;stroke-width:1;stroke-linejoin:miter;stroke-miterlimit:10;"/><line style="stroke:#35506E;stroke-width:1;" x1="1306.541" x2="1306.541" y1="646.3027" y2="666.3027"/><polygon fill="#35506E" points="1302.541,656.3027,1306.541,666.3027,1310.541,656.3027,1306.541,660.3027" style="stroke:#35506E;stroke-width:1;stroke-linejoin:miter;stroke-miterlimit:10;"/><line style="stroke:#35506E;stroke-width:1;" x1="1306.541" x2="1306.541" y1="542.291" y2="562.291"/><polygon fill="#35506E" points="1302.541,552.291,1306.541,562.291,1310.541,552.291,1306.541,556.291" style="stroke:#35506E;stroke-width:1;stroke-linejoin:miter;stroke-miterlimit:10;"/><line style="stroke:#35506E;stroke-width:1;" x1="1306.541" x2="1306.541" y1="690.3027" y2="710.3027"/><polygon fill="#35506E" points="1302.541,700.3027,1306.541,710.3027,1310.541,700.3027,1306.541,704.3027" style="stroke:#35506E;stroke-width:1;stroke-linejoin:miter;stroke-miterlimit:10;"/><line style="stroke:#35506E;stroke-width:1;" x1="1306.541" x2="1306.541" y1="760.4902" y2="780.4902"/><polygon fill="#35506E" points="1302.541,770.4902,1306.541,780.4902,1310.541,770.4902,1306.541,774.4902" style="stroke:#35506E;stroke-width:1;stroke-linejoin:miter;stroke-miterlimit:10;"/><line style="stroke:#35506E;stroke-width:1;" x1="1788.52" x2="1788.52" y1="989.959" y2="1009.959"/><polygon fill="#35506E" points="1784.52,999.959,1788.52,1009.959,1792.52,999.959,1788.52,1003.959" style="stroke:#35506E;stroke-width:1;stroke-linejoin:miter;stroke-miterlimit:10;"/><line style="stroke:#35506E;stroke-width:1;" x1="1572.2949" x2="1562.2949" y1="902.6777" y2="902.6777"/><line style="stroke:#35506E;stroke-width:1;" x1="1562.2949" x2="1562.2949" y1="902.6777" y2="924.6777"/><polygon fill="#35506E" points="1558.2949,914.6777,1562.2949,924.6777,1566.2949,914.6777,1562.2949,918.6777" style="stroke:#35506E;stroke-width:1;stroke-linejoin:miter;stroke-miterlimit:10;"/><line style="stroke:#35506E;stroke-width:1;" x1="1778.52" x2="1788.52" y1="902.6777" y2="902.6777"/><line style="stroke:#35506E;stroke-width:1;" x1="1788.52" x2="1788.52" y1="902.6777" y2="924.6777"/><polygon fill="#35506E" points="1784.52,914.6777,1788.52,924.6777,1792.52,914.6777,1788.52,918.6777" style="stroke:#35506E;stroke-width:1;stroke-linejoin:miter;stroke-miterlimit:10;"/><line style="stroke:#35506E;stroke-width:1;" x1="1562.2949" x2="1562.2949" y1="974.8652" y2="1063.0527"/><line style="stroke:#35506E;stroke-width:1;" x1="1562.2949" x2="1663.4075" y1="1063.0527" y2="1063.0527"/><polygon fill="#35506E" points="1653.4075,1059.0527,1663.4075,1063.0527,1653.4075,1067.0527,1657.4075,1063.0527" style="stroke:#35506E;stroke-width:1;stroke-linejoin:miter;stroke-miterlimit:10;"/><line style="stroke:#35506E;stroke-width:1;" x1="1788.52" x2="1788.52" y1="1045.0527" y2="1063.0527"/><line style="stroke:#35506E;stroke-width:1;" x1="1788.52" x2="1687.4075" y1="1063.0527" y2="1063.0527"/><polygon fill="#35506E" points="1697.4075,1059.0527,1687.4075,1063.0527,1697.4075,1067.0527,1693.4075,1063.0527" style="stroke:#35506E;stroke-width:1;stroke-linejoin:miter;stroke-miterlimit:10;"/><line style="stroke:#35506E;stroke-width:1;" x1="1675.4075" x2="1675.4075" y1="870.6777" y2="890.6777"/><polygon fill="#35506E" points="1671.4075,880.6777,1675.4075,890.6777,1679.4075,880.6777,1675.4075,884.6777" style="stroke:#35506E;stroke-width:1;stroke-linejoin:miter;stroke-miterlimit:10;"/><line style="stroke:#35506E;stroke-width:1;" x1="1675.4075" x2="1675.4075" y1="1075.0527" y2="1095.0527"/><polygon fill="#35506E" points="1671.4075,1085.0527,1675.4075,1095.0527,1679.4075,1085.0527,1675.4075,1089.0527" style="stroke:#35506E;stroke-width:1;stroke-linejoin:miter;stroke-miterlimit:10;"/><line style="stroke:#35506E;stroke-width:1;" x1="2072.6587" x2="2072.6587" y1="1200.334" y2="1220.334"/><polygon fill="#35506E" points="2068.6587,1210.334,2072.6587,1220.334,2076.6587,1210.334,2072.6587,1214.334" style="stroke:#35506E;stroke-width:1;stroke-linejoin:miter;stroke-miterlimit:10;"/><line style="stroke:#35506E;stroke-width:1;" x1="2072.6587" x2="2072.6587" y1="1255.4277" y2="1275.4277"/><polygon fill="#35506E" points="2068.6587,1265.4277,2072.6587,1275.4277,2076.6587,1265.4277,2072.6587,1269.4277" style="stroke:#35506E;stroke-width:1;stroke-linejoin:miter;stroke-miterlimit:10;"/><line style="stroke:#35506E;stroke-width:1;" x1="2072.6587" x2="2072.6587" y1="1325.6152" y2="1345.6152"/><polygon fill="#35506E" points="2068.6587,1335.6152,2072.6587,1345.6152,2076.6587,1335.6152,2072.6587,1339.6152" style="stroke:#35506E;stroke-width:1;stroke-linejoin:miter;stroke-miterlimit:10;"/><line style="stroke:#35506E;stroke-width:1;" x1="2072.6587" x2="2072.6587" y1="1380.709" y2="1400.709"/><polygon fill="#35506E" points="2068.6587,1390.709,2072.6587,1400.709,2076.6587,1390.709,2072.6587,1394.709" style="stroke:#35506E;stroke-width:1;stroke-linejoin:miter;stroke-miterlimit:10;"/><line style="stroke:#35506E;stroke-width:1;" x1="706.2842" x2="706.2842" y1="377.0098" y2="382.0098"/><line style="stroke:#35506E;stroke-width:1;" x1="706.2842" x2="1306.541" y1="382.0098" y2="382.0098"/><line style="stroke:#35506E;stroke-width:1;" x1="1306.541" x2="1306.541" y1="382.0098" y2="397.0098"/><polygon fill="#35506E" points="1302.541,387.0098,1306.541,397.0098,1310.541,387.0098,1306.541,391.0098" style="stroke:#35506E;stroke-width:1;stroke-linejoin:miter;stroke-miterlimit:10;"/><line style="stroke:#35506E;stroke-width:1;" x1="1306.541" x2="1306.541" y1="815.584" y2="820.584"/><line style="stroke:#35506E;stroke-width:1;" x1="1306.541" x2="1675.4075" y1="820.584" y2="820.584"/><line style="stroke:#35506E;stroke-width:1;" x1="1675.4075" x2="1675.4075" y1="820.584" y2="835.584"/><polygon fill="#35506E" points="1671.4075,825.584,1675.4075,835.584,1679.4075,825.584,1675.4075,829.584" style="stroke:#35506E;stroke-width:1;stroke-linejoin:miter;stroke-miterlimit:10;"/><line style="stroke:#35506E;stroke-width:1;" x1="1675.4075" x2="1675.4075" y1="1130.1465" y2="1135.1465"/><line style="stroke:#35506E;stroke-width:1;" x1="1675.4075" x2="2072.6587" y1="1135.1465" y2="1135.1465"/><line style="stroke:#35506E;stroke-width:1;" x1="2072.6587" x2="2072.6587" y1="1135.1465" y2="1150.1465"/><polygon fill="#35506E" points="2068.6587,1140.1465,2072.6587,1150.1465,2076.6587,1140.1465,2072.6587,1144.1465" style="stroke:#35506E;stroke-width:1;stroke-linejoin:miter;stroke-miterlimit:10;"/><text fill="#000000" font-family="sans-serif" font-size="18" lengthAdjust="spacing" textLength="70.04" x="105.3521" y="74.75">Interface</text><text fill="#000000" font-family="sans-serif" font-size="18" lengthAdjust="spacing" textLength="61.0313" x="679.7686" y="74.75">Acquire</text><text fill="#000000" font-family="sans-serif" font-size="18" lengthAdjust="spacing" textLength="71.0156" x="1279.3604" y="74.75">Optimize</text><text fill="#000000" font-family="sans-serif" font-size="18" lengthAdjust="spacing" textLength="123.0469" x="1627.8884" y="74.75">Measure &amp; Call</text><text fill="#000000" font-family="sans-serif" font-size="18" lengthAdjust="spacing" textLength="54.0264" x="2044.6455" y="74.75">Report</text><?plantuml-src PLJjRjis5FslfxX0iLL64ZjhshHpWWoEFreNwn9uBGOC0GHQlBOvKwH2KdQyUSCUOk-o_tkKFSaE9Tj9C1YmH5tUhtFElI_fyuB9ApFNU9JACF6AtOPoMnJ2IF8BuTXtIUJtbN9C9rTaow0AzMlzNh3mLVqvUKbfBl85TtAXTIiQ7PVMXJRzk5Q55eOzejarhHSgNv0M6tParyOJmuryuBAT11LGo4ZZshz__aL38q-2FS631YA8nf26M7AiIpObjvB4BvKfXHD5D4YxHaCq4zhp4qlFERlkMsqTlJXxy-RqVFZ4AFAWLYfiwBU4w5haoxcpbP6xwwD1_4MBTPBTyo140oKAQ-J_tKQZruFp9nUUUb-_UtT-UftydYJR5wFNexUZw-tO17OpaVCsyK6ua7Gh3v1AbIyzYJqdToRzCgOWfjIXO9TiG0Zrln_ZgDNKYSXUfE0YwVQjcQbvsgAPimMnMNNQ-4E0QQMqpFBQ31BT7EGWwCowWYm4u9HaZmYeRJY8lssl4S0sKJDAlQrSpXGs9N_N8l1XA9KshmeseOL-kuw5pFPVqbeDWH_2HSBW94RuE9xq6izu_QDo0hKQpeDrRS_2vOlqb_j6HihxYlsZwtiLFbJJH-VcV72dEOUiT1sjVCXioGO7J-cHLBDPguc2z6n0lQzhtRq_3r03H4V0t7YhETDs3b-383KclT7PiBUzsKt2Dkdce3tGfFTJGmaIJeLd7TK97ah7CwL1RZPJh2MiFhWg3nWTsG9lU5GvPn4YIajdVUq5lk7eVVEzGuTpVUFfXzZRHStCoOcle1A7gWxCRBXfz60X-Y3KiehWQWkjq8tMeX3nZ4okdWNUGsLiQzTujm6bK4OLS79y3ru2r0InJkF-s6282wgRVG1sw1S1Wl1B72ub1lYgQIj2TNFxUVnf_FDmi0EiqTgterUZqVRJRgjyJNq86UZsjQWazxM2cjgnQys1qrRJCgHgWieVAo9bQCA-17NSZolfWCH2xUK9w0tL-qhMohmpftlc_lcxGIMhpHbyZexsO1GGOnqXJXZrJ5WuY_6atktupXWHSKF_A30qmScQvx00hJzEszyyK9mGtuh9X1HbxHWMAYfn3hHuXb74k21JGAODVV5Ypl6sXq8PtarxiTKwqLwSNVGFTW9Zk7tOJtxZ_K3PxMJS7__mlWORA-ri-7OxgRSqG0PabGxrtdLYJIj_sFHo1ytndVdAYnNBurrtmCOV4rAsAQOxHdL812wxQwS2FmR8R1NAAhH353Zs0hdAnFtInLnbU6zM10w-SubZfkHLTfaNyggDRy2iuE1Kxfk1nCv29ix1ee-Z0xrYZ10ifhD6w2wLg8Pk9_NAX3eYS0u0OPcAQIQ5NqojSBAz28M-mAwrPV8V?></g></svg>